<svg width="50" height="50" viewBox="0 0 197 181" fill="none" xmlns="http://www.w3.org/2000/svg">
    <g clip-path="url(#clip0_850_10563)">
        <path d="M45.58 180.96C43.47 180.96 41.34 180.74 39.23 180.3C38.5 180.15 37.81 179.98 37.16 179.8C28.38 177.4 21.04 171.15 17.1 162.68C12.93 153.73 12.92 143.43 17.07 134.4L61.57 41.1499L73.3 46.7499L28.84 139.91C26.32 145.38 26.32 151.71 28.88 157.18C31.25 162.26 35.43 165.84 40.67 167.28C41.11 167.41 41.49 167.49 41.88 167.57C50.63 169.42 59.79 164.56 63.71 156.03L86.24 106.74L98.06 112.14L75.53 161.44C70.03 173.42 58.07 180.95 45.59 180.95L45.58 180.96Z" fill="#6DC6AA" />
        <path d="M25.91 62.6499L18.08 58.5999C4.7 52.4099 -2.55 37.7799 0.819997 23.7499C0.969997 23.1599 1.11 22.6399 1.25 22.1199L1.4 21.5799C3.96 13.2399 10.04 6.37994 18.09 2.75994C26.36 -0.950063 35.82 -0.920063 44.05 2.83994L117.53 36.4599L112.12 48.2799L38.64 14.6699C33.81 12.4599 28.27 12.4399 23.42 14.6199C18.74 16.7199 15.35 20.5099 13.87 25.2899L13.8 25.5499C13.68 25.9799 13.56 26.4099 13.45 26.8499C11.53 34.8299 15.81 43.2699 23.64 46.8499L23.93 46.9899L31.89 51.1099L25.91 62.6499Z" fill="#FAB41A" />
        <path d="M166.45 123.57C162.1 123.57 157.71 122.68 153.61 120.83L79.47 87.5098L84.8 75.6498L158.94 108.97C165.6 111.96 173.5 110.72 178.61 105.89L178.7 105.81C178.97 105.56 179.23 105.3 179.47 105.05L179.54 104.97C183.19 101.11 184.69 95.8898 183.65 90.6398C182.56 85.1098 178.77 80.4098 173.54 78.0598L161.49 72.6398L166.82 60.7798L178.87 66.1998C187.94 70.2798 194.5 78.4698 196.41 88.1198C198.27 97.5298 195.59 106.91 189.03 113.86C188.55 114.38 188.05 114.89 187.51 115.37C181.82 120.74 174.19 123.57 166.45 123.57Z" fill="#FAB419" />
        <path d="M139.4 66.95C146.353 66.95 151.99 61.3133 151.99 54.36C151.99 47.4068 146.353 41.77 139.4 41.77C132.447 41.77 126.81 47.4068 126.81 54.36C126.81 61.3133 132.447 66.95 139.4 66.95Z" fill="#6CC5A9" />
    </g>
    <defs>
        <clipPath id="clip0_850_10563">
            <rect width="196.97" height="180.96" fill="white" />
        </clipPath>
    </defs>
</svg>
 