<svg width="50" height="50" viewBox="0 0 50 50" fill="none" xmlns="http://www.w3.org/2000/svg">
<path d="M25 0.999998C38.24 0.999999 49 11.77 49 25C49 38.23 38.24 49 25 49C11.76 49 1 38.23 1 25C1 11.77 11.77 0.999997 25 0.999998ZM25 45.5C36.31 45.5 45.5 36.3 45.5 25C45.5 13.7 36.31 4.5 25 4.5C13.69 4.5 4.5 13.7 4.5 25C4.51 36.3 13.7 45.5 25 45.5Z" fill="white"/>
<path d="M33.3269 26.0713L26.8174 19.6669C25.9136 18.7777 24.4274 18.7777 23.5149 19.6669L23.2107 19.9662C23.1585 20.0175 23.1064 20.0688 23.0629 20.1287L16.6751 26.4133C15.7886 27.2854 15.7886 28.7048 16.6751 29.577L16.8924 29.7907C17.7789 30.6629 19.2216 30.6629 20.108 29.7907L22.0287 27.9011L22.0287 37.6572C22.0287 38.9483 23.1064 40 24.41 40L25.5312 40C26.8435 40 27.9125 38.9397 27.9125 37.6572L27.9125 27.8327L29.7115 29.6026C30.6154 30.4919 32.1015 30.4919 33.0141 29.6026L33.3182 29.3033C34.2395 28.4226 34.2395 26.9605 33.3269 26.0713Z" fill="#FCFCFC"/>
<path d="M17.0103 14.2418L17.0103 13.7582C17.0103 12.7912 17.8063 12 18.7792 12L31.2413 12C32.2142 12 33.0103 12.7912 33.0103 13.7582L33.0103 14.2418C33.0103 15.2088 32.2142 16 31.2413 16L18.7792 16C17.8063 16 17.0103 15.2088 17.0103 14.2418Z" fill="#FCFCFC"/>
</svg>
