<svg width="50" height="50" viewBox="0 0 50 50" fill="none" xmlns="http://www.w3.org/2000/svg">
<path d="M25 49C11.76 49 1 38.23 1 25C1 11.77 11.76 1 25 1C38.24 1 49 11.77 49 25C49 38.23 38.23 49 25 49ZM25 4.5C13.69 4.5 4.5 13.7 4.5 25C4.5 36.3 13.69 45.5 25 45.5C36.31 45.5 45.5 36.3 45.5 25C45.49 13.7 36.3 4.5 25 4.5Z" fill="white"/>
<path d="M16.6833 23.9287L23.1928 30.3331C24.0967 31.2223 25.5828 31.2223 26.4954 30.3331L26.7996 30.0338C26.8517 29.9825 26.9039 29.9312 26.9473 29.8713L33.3351 23.5867C34.2216 22.7146 34.2216 21.2952 33.3351 20.423L33.1179 20.2093C32.2314 19.3371 30.7887 19.3371 29.9022 20.2093L27.9815 22.0989V12.3428C27.9815 11.0517 26.9039 10 25.6002 10H24.4791C23.1668 10 22.0978 11.0603 22.0978 12.3428V22.1673L20.2988 20.3974C19.3949 19.5081 17.9087 19.5081 16.9962 20.3974L16.692 20.6967C15.7708 21.5774 15.7708 23.0395 16.6833 23.9287Z" fill="#FCFCFC"/>
<path d="M33 35.3187V35.6813C33 36.4066 32.204 37 31.2311 37H18.7689C17.796 37 17 36.4066 17 35.6813V35.3187C17 34.5934 17.796 34 18.7689 34H31.2311C32.204 34 33 34.5934 33 35.3187Z" fill="#FCFCFC"/>
</svg>
