<svg width="48" height="50" viewBox="0 0 48 50" fill="none" xmlns="http://www.w3.org/2000/svg">
<path d="M36.1103 22.1801L26.9003 22.1201L26.9603 12.9101C26.9703 11.3101 25.6803 10.0101 24.0903 10.0001C22.4903 9.99006 21.1903 11.2801 21.1803 12.8701L21.1203 22.0801L11.9103 22.0201C10.3103 22.0101 9.01029 23.3001 9.00029 24.8901C8.99029 25.5901 9.24029 26.2401 9.66029 26.7401C10.1903 27.3801 10.9803 27.7801 11.8703 27.7801L21.0803 27.8401L21.0203 37.0501C21.0103 38.6501 22.3003 39.9501 23.8903 39.9601C24.5903 39.9701 25.2403 39.7201 25.7403 39.3001C26.3803 38.7701 26.7803 37.9801 26.7803 37.0901L26.8403 27.8801L36.0503 27.9401C37.6503 27.9501 38.9503 26.6601 38.9603 25.0701C38.9903 23.4901 37.7003 22.1901 36.1103 22.1801Z" fill="#FDFDFD"/>
<path d="M47.91 23C46.9 10.7 36.56 1 24 1C10.77 1 0 11.77 0 25C0 38.23 10.77 49 24 49C37.23 49 48 38.23 48 25C48 24.33 47.97 23.66 47.91 23ZM24 45.5C12.7 45.5 3.5 36.3 3.5 25C3.5 13.7 12.7 4.5 24 4.5C34.62 4.5 43.39 12.63 44.4 23C44.47 23.66 44.5 24.32 44.5 25C44.5 36.3 35.3 45.5 24 45.5Z" fill="white"/>
</svg>
