<svg width="50" height="50" viewBox="0 0 50 50" fill="none" xmlns="http://www.w3.org/2000/svg">
<path d="M28.3474 39.1C19.2174 39.1 11.7974 31.67 11.7974 22.55C11.7974 13.43 19.2274 6 28.3474 6C37.4674 6 44.8974 13.43 44.8974 22.55C44.8974 31.67 37.4774 39.1 28.3474 39.1ZM28.3474 10.99C21.9674 10.99 16.7874 16.18 16.7874 22.55C16.7874 28.92 21.9774 34.11 28.3474 34.11C34.7174 34.11 39.9074 28.92 39.9074 22.55C39.9074 16.18 34.7274 10.99 28.3474 10.99Z" fill="white"/>
<path d="M7.4875 45C6.8475 45 6.2075 44.76 5.7275 44.27C4.7575 43.3 4.7575 41.72 5.7275 40.74L14.3475 32.12C15.3175 31.15 16.8975 31.15 17.8775 32.12C18.8475 33.09 18.8475 34.67 17.8775 35.65L9.2575 44.27C8.7675 44.76 8.1275 45 7.4875 45Z" fill="white"/>
</svg>
