<svg width="50" height="50" viewBox="0 0 50 50" fill="none" xmlns="http://www.w3.org/2000/svg">
<path d="M22.6 47.6538C22.6 48.3738 21.97 48.9438 21.26 48.8238C18.71 48.4138 16.31 47.6138 14.06 46.4338C11.42 45.0538 9.14 43.2738 7.22 41.1038C5.3 38.9338 3.79 36.4738 2.67 33.7038C1.55 30.9338 1 28.0238 1 24.9238C1 18.6938 3.06 13.2838 7.19 8.70384C11.02 4.45384 15.73 1.89384 21.33 1.01384C22.04 0.903841 22.67 1.46384 22.67 2.18384V4.42384C22.67 5.02384 22.23 5.53384 21.63 5.64384C17.18 6.49384 13.46 8.61384 10.47 12.0038C7.25 15.6538 5.64 19.9638 5.64 24.9138C5.64 29.8238 7.25 34.1138 10.47 37.7938C13.46 41.2038 17.16 43.3338 21.57 44.1838C22.16 44.2938 22.61 44.8038 22.61 45.4038V47.6538H22.6ZM28.77 48.8338C28.06 48.9438 27.44 48.3838 27.44 47.6638V45.4238C27.44 44.8238 27.89 44.3138 28.48 44.1938C29.88 43.9238 31.22 43.5238 32.52 42.9738C33.8 42.4338 34.99 41.7738 36.11 40.9838C36.61 40.6338 37.3 40.6638 37.74 41.1038L39.41 42.7738C39.92 43.2838 39.87 44.1438 39.28 44.5638C37.7 45.6738 36.04 46.5938 34.28 47.3038C32.51 48.0238 30.68 48.5338 28.77 48.8338ZM37.84 8.73384C37.41 9.17384 36.72 9.22384 36.21 8.87384C35.06 8.08384 33.85 7.41384 32.57 6.87384C31.28 6.32384 29.93 5.92384 28.53 5.65384C27.94 5.54384 27.49 5.03384 27.49 4.42384V2.19384C27.49 1.47384 28.11 0.913841 28.82 1.02384C30.73 1.32384 32.57 1.83384 34.33 2.55384C36.09 3.27384 37.75 4.19384 39.3 5.31384C39.88 5.73384 39.93 6.56384 39.44 7.07384L37.84 8.73384ZM44.6 39.1638C44.17 39.7338 43.34 39.7638 42.84 39.2538L41.23 37.6138C40.81 37.1838 40.77 36.5138 41.11 36.0138C41.9 34.8538 42.55 33.6338 43.06 32.3438C43.57 31.0538 43.96 29.7338 44.22 28.3638C44.33 27.7738 44.84 27.3238 45.45 27.3238H47.77C48.51 27.3238 49.08 27.9738 48.94 28.7038C48.59 30.5738 48.07 32.3938 47.37 34.1638C46.66 35.9738 45.74 37.6338 44.6 39.1638ZM45.45 22.5138C44.85 22.5138 44.34 22.0638 44.23 21.4738C43.97 20.0738 43.58 18.7338 43.07 17.4438C42.56 16.1538 41.91 14.9438 41.12 13.7838C40.78 13.2838 40.82 12.6038 41.25 12.1738L42.84 10.5738C43.34 10.0738 44.17 10.1038 44.6 10.6738C45.75 12.2038 46.69 13.8638 47.43 15.6438C48.17 17.4238 48.69 19.2638 48.99 21.1838C49.1 21.8938 48.54 22.5138 47.82 22.5138H45.45V22.5138Z" fill="#FCFCFC"/>
<path d="M33.3167 25.7384L26.8072 19.639C25.9033 18.7921 24.4172 18.7921 23.5046 19.639L23.2004 19.924C23.1483 19.9729 23.0961 20.0218 23.0527 20.0788L16.6649 26.0641C15.7784 26.8947 15.7784 28.2465 16.6649 29.0771L16.8821 29.2807C17.7686 30.1113 19.2113 30.1113 20.0978 29.2807L22.0185 27.481L22.0185 36.7726C22.0185 38.0022 23.0961 39.0038 24.3998 39.0038L25.5209 39.0038C26.8332 39.0038 27.9022 37.9941 27.9022 36.7726L27.9022 27.4159L29.7012 29.1016C30.6051 29.9485 32.0913 29.9485 33.0038 29.1016L33.308 28.8165C34.2292 27.9778 34.2292 26.5853 33.3167 25.7384Z" fill="#FCFCFC"/>
<path d="M17 14.2456L17 13.7621C17 12.7951 17.796 12.0038 18.7689 12.0038L31.2311 12.0038C32.204 12.0038 33 12.7951 33 13.7621L33 14.2456C33 15.2126 32.204 16.0038 31.2311 16.0038L18.7689 16.0038C17.796 16.0038 17 15.2126 17 14.2456Z" fill="#FCFCFC"/>
</svg>
