<svg width="50" height="50" viewBox="0 0 50 50" fill="none" xmlns="http://www.w3.org/2000/svg">
<path d="M25 49C11.76 49 1 38.23 1 25C1 11.77 11.76 1 25 1C38.24 1 49 11.77 49 25C49 38.23 38.23 49 25 49ZM25 4.5C13.69 4.5 4.5 13.7 4.5 25C4.5 36.3 13.69 45.5 25 45.5C36.31 45.5 45.5 36.3 45.5 25C45.49 13.7 36.3 4.5 25 4.5Z" fill="white"/>
<path d="M14.47 36.07C12.83 34.43 12 32.46 12 30.16C12 27.86 12.82 25.89 14.47 24.25L25.94 12.78C27.13 11.59 28.57 11 30.24 11C31.91 11.01 33.34 11.61 34.54 12.8C35.73 13.99 36.33 15.42 36.33 17.08C36.33 18.74 35.73 20.17 34.54 21.36L24.17 31.74C23.41 32.5 22.52 32.88 21.49 32.88C20.46 32.88 19.57 32.5 18.81 31.74C18.07 31 17.69 30.11 17.68 29.07C17.67 28.03 18.05 27.13 18.81 26.37L29.17 16.01L30.72 17.56L20.35 27.91C20.04 28.22 19.89 28.6 19.89 29.05C19.89 29.5 20.04 29.88 20.35 30.19C20.68 30.52 21.06 30.67 21.5 30.66C21.94 30.65 22.32 30.49 22.63 30.19L32.98 19.84C33.74 19.08 34.12 18.17 34.12 17.1C34.12 16.03 33.74 15.12 32.98 14.36C32.22 13.6 31.31 13.21 30.24 13.19C29.17 13.17 28.25 13.55 27.48 14.33L16.01 25.8C14.82 26.99 14.22 28.45 14.22 30.17C14.22 31.89 14.82 33.34 16.01 34.53C17.22 35.74 18.68 36.34 20.39 36.33C22.1 36.32 23.55 35.72 24.74 34.53L36.21 23.06L37.76 24.61L26.28 36.07C24.64 37.71 22.67 38.54 20.37 38.54C18.08 38.54 16.11 37.72 14.47 36.07Z" fill="#FCFCFC"/>
</svg>
