<svg width="50" height="50" viewBox="0 0 50 50" fill="none" xmlns="http://www.w3.org/2000/svg">
<path d="M25 49C11.76 49 1 38.23 1 25C1 11.77 11.76 1 25 1C38.24 1 49 11.77 49 25C49 38.23 38.23 49 25 49ZM25 4.5C13.69 4.5 4.5 13.7 4.5 25C4.5 36.3 13.69 45.5 25 45.5C36.31 45.5 45.5 36.3 45.5 25C45.49 13.7 36.3 4.5 25 4.5Z" fill="white"/>
<path d="M26.5766 38.8494C19.6066 38.9394 13.9766 34.4894 12.3966 28.1394C10.5766 20.8094 15.1966 13.2594 22.6566 11.3994C28.2066 10.0094 34.2466 12.3294 37.4666 17.0894C38.0766 17.9894 37.9066 19.1194 37.0566 19.7694C36.2266 20.4094 35.1066 20.3194 34.4166 19.4494C33.4366 18.2094 32.3866 17.0894 31.0266 16.2594C25.5466 12.9294 17.9866 15.9294 16.3166 22.1294C14.7766 27.8194 17.9866 33.2894 23.7066 34.7294C27.3866 35.6494 31.6466 34.1294 33.9066 31.0794C34.1266 30.7894 34.3266 30.4794 34.5666 30.1994C35.2366 29.3694 36.3566 29.2194 37.2066 29.8294C38.0366 30.4194 38.2766 31.5794 37.7066 32.4594C36.7266 33.9594 35.5266 35.2694 34.0566 36.2994C31.6266 37.9794 28.9366 38.8494 26.5766 38.8494Z" fill="#FCFCFC" stroke="white" stroke-width="0.75" stroke-miterlimit="10"/>
</svg>
