<svg width="50" height="50" viewBox="0 0 50 50" fill="none" xmlns="http://www.w3.org/2000/svg">
<path d="M48.91 23C47.9 10.7 37.56 1 25 1C11.77 1 1 11.77 1 25C1 38.23 11.77 49 25 49C38.23 49 49 38.23 49 25C49 24.33 48.97 23.66 48.91 23ZM25 45.5C13.7 45.5 4.5 36.3 4.5 25C4.5 13.7 13.7 4.5 25 4.5C35.62 4.5 44.39 12.63 45.4 23C45.47 23.66 45.5 24.32 45.5 25C45.5 36.3 36.3 45.5 25 45.5Z" fill="white"/>
<path d="M21.7771 36.0058C21.1589 36.0058 20.5407 35.7882 20.0444 35.3441L11.8774 28.0913C10.7977 27.1335 10.702 25.4792 11.6597 24.3996C12.6175 23.3199 14.2718 23.2242 15.3514 24.1819L23.5184 31.4347C24.5981 32.3925 24.6939 34.0468 23.7361 35.1264C23.2137 35.7011 22.4997 36.0058 21.7771 36.0058Z" fill="#FCFCFC"/>
<path d="M21.7769 36.0058C21.1848 36.0058 20.5928 35.8056 20.1052 35.3964C18.9994 34.4734 18.8514 32.8191 19.783 31.7134L33.8446 14.9353C34.7675 13.8295 36.4218 13.6815 37.5276 14.6131C38.6334 15.536 38.7814 17.1903 37.8497 18.2961L23.7795 35.0655C23.2658 35.6837 22.5257 36.0058 21.7769 36.0058Z" fill="#FCFCFC"/>
</svg>
