<svg width="247" height="247" viewBox="0 0 247 247" fill="none" xmlns="http://www.w3.org/2000/svg">
<path d="M123.5 23.1562C68.171 23.1562 23.1562 68.171 23.1562 123.5C23.1562 178.829 68.171 223.844 123.5 223.844C178.829 223.844 223.844 178.829 223.844 123.5C223.844 68.171 178.829 23.1562 123.5 23.1562ZM175.722 89.8704L110.885 167.058C110.173 167.905 109.288 168.589 108.29 169.065C107.291 169.54 106.202 169.795 105.096 169.812H104.965C103.883 169.812 102.814 169.584 101.826 169.144C100.837 168.703 99.9529 168.06 99.2294 167.256L71.4419 136.381C70.7362 135.632 70.1872 134.75 69.8272 133.786C69.4673 132.823 69.3036 131.797 69.3458 130.769C69.388 129.741 69.6352 128.732 70.0729 127.801C70.5106 126.87 71.13 126.036 71.8947 125.348C72.6594 124.66 73.5539 124.132 74.5257 123.794C75.4975 123.457 76.5269 123.317 77.5535 123.383C78.5801 123.449 79.5831 123.719 80.5037 124.179C81.4242 124.638 82.2436 125.276 82.9138 126.057L104.763 150.332L163.903 79.9421C165.229 78.4084 167.106 77.4583 169.128 77.2972C171.149 77.1362 173.153 77.777 174.705 79.0813C176.258 80.3856 177.235 82.2485 177.426 84.2674C177.616 86.2863 177.004 88.299 175.722 89.8704Z" fill="#FDCE6A"/>
</svg>
