<svg width="50" height="50" viewBox="0 0 50 50" fill="none" xmlns="http://www.w3.org/2000/svg">
<path d="M48.91 23C47.9 10.7 37.56 1 25 1C11.77 1 1 11.77 1 25C1 38.23 11.77 49 25 49C38.23 49 49 38.23 49 25C49 24.33 48.97 23.66 48.91 23ZM25 45.5C13.7 45.5 4.5 36.3 4.5 25C4.5 13.7 13.7 4.5 25 4.5C35.62 4.5 44.39 12.63 45.4 23C45.47 23.66 45.5 24.32 45.5 25C45.5 36.3 36.3 45.5 25 45.5Z" fill="white"/>
<path d="M28.5826 25.5426L35.1426 19.0726C36.2826 17.9526 36.2926 16.1126 35.1726 14.9826C34.0526 13.8426 32.2126 13.8326 31.0826 14.9526L24.5226 21.4226L18.0626 14.8626C16.9426 13.7226 15.1026 13.7126 13.9726 14.8326C12.8326 15.9526 12.8226 17.7926 13.9426 18.9226L20.4126 25.4726L13.8626 31.9426C12.7226 33.0626 12.7126 34.9026 13.8326 36.0326C14.3226 36.5326 14.9526 36.8126 15.6126 36.8726C16.4326 36.9526 17.2826 36.6726 17.9126 36.0426L24.4726 29.5726L30.9426 36.1326C32.0626 37.2726 33.9026 37.2826 35.0326 36.1626C35.5326 35.6726 35.8126 35.0426 35.8726 34.3826C35.9526 33.5626 35.6726 32.7126 35.0426 32.0826L28.5826 25.5426Z" fill="#FDFDFD"/>
</svg>
