<svg width="50" height="50" viewBox="0 0 50 50" fill="none" xmlns="http://www.w3.org/2000/svg">
<path d="M9.94137 50C8.57504 50 7.41418 49.5305 6.44851 48.5914C5.48284 47.6523 5 46.5235 5 45.1948V4.80519C5 3.47652 5.48284 2.34765 6.44851 1.40859C7.41418 0.46953 8.58532 0 9.94137 0H29.7685C30.4054 0 31.0218 0.24975 31.4738 0.689311L45.2809 14.0559C45.7329 14.4955 45.9897 15.0949 45.9897 15.7243V45.1948C45.9897 46.5235 45.5069 47.6523 44.5412 48.5914C43.5756 49.5305 42.4147 50 41.0484 50H9.94137ZM30.7547 17.1828C29.4192 17.1828 28.3302 16.1239 28.3302 14.8252V7.16284C28.3302 5.86414 27.2413 4.80519 25.9058 4.80519H9.94137V42.8372C9.94137 44.1359 11.0303 45.1948 12.3658 45.1948H38.6342C39.9697 45.1948 41.0586 44.1359 41.0586 42.8372V19.5405C41.0586 18.2418 39.9697 17.1828 38.6342 17.1828H30.7547Z" fill="white"/>
</svg>
