<svg width="30" height="30" viewBox="0 0 30 30" fill="none" xmlns="http://www.w3.org/2000/svg">
<path d="M24.5984 2.3999H5.39844C3.74244 2.3999 2.39844 3.7439 2.39844 5.3999V24.5999C2.39844 26.2559 3.74244 27.5999 5.39844 27.5999H24.5984C26.2544 27.5999 27.5984 26.2559 27.5984 24.5999V5.3999C27.5984 3.7439 26.2544 2.3999 24.5984 2.3999ZM10.1984 11.9999V23.3999H6.59844V11.9999H10.1984ZM6.59844 8.6819C6.59844 7.8419 7.31844 7.1999 8.39844 7.1999C9.47844 7.1999 10.1564 7.8419 10.1984 8.6819C10.1984 9.5219 9.52644 10.1999 8.39844 10.1999C7.31844 10.1999 6.59844 9.5219 6.59844 8.6819ZM23.3984 23.3999H19.7984C19.7984 23.3999 19.7984 17.8439 19.7984 17.3999C19.7984 16.1999 19.1984 14.9999 17.6984 14.9759H17.6504C16.1984 14.9759 15.5984 16.2119 15.5984 17.3999C15.5984 17.9459 15.5984 23.3999 15.5984 23.3999H11.9984V11.9999H15.5984V13.5359C15.5984 13.5359 16.7564 11.9999 19.0844 11.9999C21.4664 11.9999 23.3984 13.6379 23.3984 16.9559V23.3999Z" fill="#F8F8F8"/>
</svg>
