<svg width="50" height="49" viewBox="0 0 50 49" fill="none" xmlns="http://www.w3.org/2000/svg">
<mask id="mask0_913_14393" style="mask-type:alpha" maskUnits="userSpaceOnUse" x="0" y="0" width="50" height="49">
<path d="M0 1C0 0.447717 0.447715 0 1 0H49C49.5523 0 50 0.447715 50 1V47.6111C50 48.1634 49.5523 48.6111 49 48.6111H0.999999C0.447714 48.6111 0 48.1634 0 47.6111V1Z" fill="#D9D9D9"/>
</mask>
<g mask="url(#mask0_913_14393)">
<path d="M7.5 41C6.2625 41 5.2035 40.572 4.323 39.7159C3.441 38.8584 3 37.8281 3 36.625V10.375C3 9.17188 3.441 8.14229 4.323 7.28625C5.2035 6.42875 6.2625 6 7.5 6H43.5C44.7375 6 45.7972 6.42875 46.6792 7.28625C47.5597 8.14229 48 9.17188 48 10.375V36.625C48 37.8281 47.5597 38.8584 46.6792 39.7159C45.7972 40.572 44.7375 41 43.5 41H7.5ZM26.0193 25.372C25.7002 25.5658 25.2998 25.5658 24.9807 25.372L7.5 14.75V36.625H42.5C43.0523 36.625 43.5 36.1773 43.5 35.625V16.5278C43.5 15.748 42.6471 15.2682 41.9807 15.6732L26.0193 25.372ZM24.9807 20.997C25.2998 21.1908 25.7002 21.1908 26.0193 20.997L40.4479 12.2296C41.3121 11.7045 40.9399 10.375 39.9286 10.375H7.5L24.9807 20.997ZM7.5 14.75V10.375V36.625V14.75Z" fill="white"/>
</g>
</svg>
