<svg width="50" height="50" viewBox="0 0 50 50" fill="none" xmlns="http://www.w3.org/2000/svg">
<path d="M24.9225 38.4082C27.4425 38.4082 29.5725 37.5282 31.3125 35.7682C33.0525 34.0082 33.9225 31.8882 33.9225 29.4082C33.9225 26.8882 33.0525 24.7582 31.3125 23.0182C29.5725 21.2782 27.4425 20.4082 24.9225 20.4082C22.4425 20.4082 20.3225 21.2782 18.5625 23.0182C16.8025 24.7582 15.9225 26.8882 15.9225 29.4082C15.9225 31.8882 16.8025 34.0082 18.5625 35.7682C20.3225 37.5282 22.4425 38.4082 24.9225 38.4082ZM24.9225 46.5082C19.3825 46.5082 14.3325 44.9482 9.7825 41.8282C5.5125 38.8982 2.3225 35.0782 0.2025 30.3682C-0.0675 29.7582 -0.0675 29.0682 0.2025 28.4682C2.3225 23.7182 5.5125 19.8882 9.7825 16.9782C14.3325 13.8782 19.3725 12.3282 24.9225 12.3282C30.5025 12.3282 35.5725 13.8782 40.1225 16.9782C44.3925 19.8882 47.5725 23.7282 49.6525 28.4882C49.9125 29.0882 49.9125 29.7682 49.6525 30.3582C47.5725 35.0782 44.3925 38.9082 40.1225 41.8382C35.5725 44.9482 30.5025 46.5082 24.9225 46.5082ZM24.9225 42.1182C29.2525 42.1182 33.2425 40.9782 36.9025 38.6982C40.2025 36.6382 42.7925 33.9082 44.6725 30.5182C45.0525 29.8282 45.0525 28.9982 44.6725 28.3082C42.7925 24.9182 40.2025 22.1982 36.9025 20.1282C33.2525 17.8482 29.2625 16.7082 24.9225 16.7082C20.5825 16.7082 16.6025 17.8482 12.9425 20.1282C9.6425 22.1882 7.0525 24.9182 5.1725 28.3082C4.7925 28.9982 4.7925 29.8282 5.1725 30.5182C7.0525 33.9082 9.6425 36.6282 12.9425 38.6982C16.5925 40.9782 20.5825 42.1182 24.9225 42.1182Z" fill="white"/>
<circle cx="25" cy="29" r="5" fill="#1C2A36"/>
</svg>
