<svg width="50" height="50" viewBox="0 0 50 50" fill="none" xmlns="http://www.w3.org/2000/svg">
<g clip-path="url(#clip0_913_14388)">
<path d="M46.0024 26.9338C46.4024 27.3838 46.1824 27.2538 46.0024 26.9338V26.9338Z" fill="white"/>
<path d="M46.9925 33.4238C48.1525 31.7938 49.1325 30.0338 49.9225 28.1638C50.0325 27.9038 50.0325 27.6038 49.9225 27.3338C47.8825 22.4938 44.6825 18.5338 40.3225 15.4438C35.8425 12.2638 30.7325 10.6738 25.0025 10.6738C23.4825 10.6738 22.0325 10.7938 20.6425 11.0238C19.4825 11.2238 18.3525 11.4838 17.2325 11.8138C16.8325 11.9338 16.3925 11.8338 16.1025 11.5438L7.8325 3.32376C7.4025 2.89376 6.7025 2.89376 6.2625 3.31376L4.7525 4.80376C4.3125 5.23376 4.3125 5.94376 4.7425 6.38376L45.2625 46.9038C45.7025 47.3438 46.4125 47.3438 46.8425 46.9038L48.3225 45.4238C48.7525 44.9938 48.7625 44.3038 48.3325 43.8638L43.5925 38.9438C43.1525 38.4838 43.1825 37.7538 43.6425 37.3138C44.8625 36.1438 45.9825 34.8438 46.9925 33.4238ZM21.9725 17.4438L21.5825 17.0338C20.9825 16.4038 21.3125 15.3638 22.1725 15.2538C22.2925 15.2338 22.4025 15.2238 22.5225 15.2038C23.3125 15.1138 24.1425 15.0638 25.0025 15.0638C29.4125 15.0638 33.4125 16.2138 37.0225 18.5138C40.4725 20.7138 43.1525 23.6338 45.0525 27.2738C45.2125 27.5738 45.2125 27.9338 45.0625 28.2338C44.4425 29.4638 43.7025 30.6238 42.8425 31.7238C42.0825 32.6938 41.2925 33.5738 40.4425 34.3738C40.0225 34.7738 39.3625 34.7438 38.9525 34.3338L35.2925 30.7238L21.9725 17.4438ZM25.7925 17.6038L35.0925 26.2838C34.8025 24.0638 33.8425 22.1438 32.2225 20.5338C30.4325 18.7438 28.3025 17.7638 25.7925 17.6038ZM33.8625 41.7038L32.0825 39.9238C31.7925 39.6338 31.3625 39.5238 30.9625 39.6338C30.1425 39.8538 29.2725 40.0438 28.3625 40.1738C27.2125 40.3538 26.0925 40.4438 25.0025 40.4438C20.5625 40.4438 16.5425 39.3038 12.9525 37.0238C9.5225 34.8338 6.8525 31.9038 4.9525 28.2338C4.7925 27.9338 4.7925 27.5738 4.9525 27.2638C5.7225 25.7438 6.6325 24.3638 7.6925 23.1338C8.5825 22.0938 9.5525 21.1338 10.6025 20.2538C11.1225 19.8138 11.1725 19.0238 10.6925 18.5438L9.1925 17.0738C8.8025 16.6938 8.1825 16.6438 7.7525 16.9938C6.0925 18.3338 4.6325 19.8438 3.3925 21.5238C2.0625 23.3338 0.9625 25.2738 0.0825 27.3338C-0.0275 27.6038 -0.0275 27.9038 0.0825 28.1638C2.1225 33.0038 5.3225 36.9738 9.6825 40.0638C14.1625 43.2438 19.2725 44.8238 25.0025 44.8238C26.7525 44.8238 28.4825 44.6638 30.1725 44.3338C31.3025 44.1138 32.4025 43.8238 33.4725 43.4738C34.2325 43.2238 34.4325 42.2638 33.8625 41.7038ZM28.0925 35.9238L26.4025 34.2438C26.1525 33.9838 25.7825 33.8738 25.4225 33.9138C23.4525 34.1138 21.8125 33.5038 20.5025 32.0738C19.2025 30.6738 18.6425 29.0938 18.8325 27.3438C18.8725 26.9738 18.7625 26.6038 18.5025 26.3338L16.8225 24.6638C16.2825 24.1138 15.3625 24.2838 15.1625 25.0338C15.1125 25.2138 15.0625 25.4038 15.0325 25.5838C14.8925 26.2938 14.8225 27.0138 14.8225 27.7538C14.8225 30.5938 15.8125 33.0038 17.7825 34.9738C19.7525 36.9438 22.1525 37.9238 25.0025 37.9238C25.7425 37.9238 26.4625 37.8638 27.1625 37.7238C27.3525 37.6838 27.5425 37.6438 27.7225 37.5938C28.4725 37.3938 28.6325 36.4738 28.0925 35.9238Z" fill="white"/>
</g>
<defs>
<clipPath id="clip0_913_14388">
<rect width="50" height="50" fill="white"/>
</clipPath>
</defs>
</svg>
