<svg width="50" height="50" viewBox="0 0 50 50" fill="none" xmlns="http://www.w3.org/2000/svg">
<path d="M48.91 23C47.9 10.7 37.56 1 25 1C11.77 1 1 11.77 1 25C1 38.23 11.77 49 25 49C38.23 49 49 38.23 49 25C49 24.33 48.97 23.66 48.91 23ZM25 45.5C13.7 45.5 4.5 36.3 4.5 25C4.5 13.7 13.7 4.5 25 4.5C35.62 4.5 44.39 12.63 45.4 23C45.47 23.66 45.5 24.32 45.5 25C45.5 36.3 36.3 45.5 25 45.5Z" fill="white"/>
<path d="M30.62 13.41C31.05 13.54 31.43 13.82 31.69 14.23C32.28 15.16 32.01 16.42 31.08 17.03L17.05 26.33C16.13 26.94 14.89 26.68 14.3 25.75C13.71 24.82 13.98 23.56 14.91 22.95L28.94 13.66C29.46 13.32 30.07 13.25 30.62 13.41Z" fill="#FDFDFD" stroke="#FDFDFD" stroke-miterlimit="10"/>
<path d="M28.9497 36.34L14.9197 27.05C13.9897 26.44 13.7197 25.18 14.3097 24.25C14.8997 23.31 16.1297 23.05 17.0597 23.67L31.0897 32.97C32.0197 33.58 32.2897 34.84 31.6997 35.77C31.4397 36.18 31.0597 36.46 30.6297 36.59C30.0697 36.75 29.4597 36.68 28.9497 36.34Z" fill="#FDFDFD" stroke="#FDFDFD" stroke-miterlimit="10"/>
</svg>
