<svg width="50" height="50" viewBox="0 0 50 50" fill="none" xmlns="http://www.w3.org/2000/svg">
<path d="M23 1.09C10.7 2.1 0.999998 12.44 0.999999 25C1 38.23 11.77 49 25 49C38.23 49 49 38.23 49 25C49 11.77 38.23 0.999998 25 0.999999C24.33 0.999999 23.66 1.03 23 1.09ZM45.5 25C45.5 36.3 36.3 45.5 25 45.5C13.7 45.5 4.5 36.3 4.5 25C4.5 14.38 12.63 5.61 23 4.6C23.66 4.53 24.32 4.5 25 4.5C36.3 4.5 45.5 13.7 45.5 25Z" fill="white"/>
<path d="M13.086 21.0742C13.2225 20.74 13.5165 20.4447 13.9471 20.2426C14.9237 19.7841 16.2468 19.9939 16.8874 20.7167L26.6535 31.6202C27.2941 32.3352 27.021 33.2989 26.0444 33.7574C25.0678 34.2159 23.7447 34.0061 23.1041 33.2833L13.3485 22.3798C12.9915 21.9757 12.918 21.5016 13.086 21.0742Z" fill="#FDFDFD" stroke="#FDFDFD" stroke-miterlimit="10"/>
<path d="M36.3399 22.3684L27.0499 33.2753C26.4399 33.9983 25.1799 34.2082 24.2499 33.7496C23.3099 33.2909 23.0499 32.3347 23.6699 31.6117L32.9699 20.7047C33.5799 19.9817 34.8399 19.7718 35.7699 20.2305C36.1799 20.4326 36.4599 20.728 36.5899 21.0623C36.7499 21.4977 36.6799 21.9719 36.3399 22.3684Z" fill="#FDFDFD" stroke="#FDFDFD" stroke-miterlimit="10"/>
</svg>
