<svg width="50" height="50" viewBox="0 0 50 50" fill="none" xmlns="http://www.w3.org/2000/svg">
<path d="M1.09 27C2.1 39.3 12.44 49 25 49C38.23 49 49 38.23 49 25C49 11.77 38.23 0.999999 25 0.999998C11.77 0.999997 1 11.77 1 25C1 25.67 1.03 26.34 1.09 27ZM25 4.5C36.3 4.5 45.5 13.7 45.5 25C45.5 36.3 36.3 45.5 25 45.5C14.38 45.5 5.61 37.37 4.6 27C4.53 26.34 4.5 25.68 4.5 25C4.5 13.7 13.7 4.5 25 4.5Z" fill="white"/>
<path d="M19.38 36.59C18.95 36.46 18.57 36.18 18.31 35.77C17.72 34.84 17.99 33.58 18.92 32.97L32.95 23.67C33.87 23.06 35.11 23.32 35.7 24.25C36.29 25.18 36.02 26.44 35.09 27.05L21.06 36.34C20.54 36.68 19.93 36.75 19.38 36.59Z" fill="#FDFDFD" stroke="#FDFDFD" stroke-miterlimit="10"/>
<path d="M21.05 13.66L35.08 22.95C36.01 23.56 36.28 24.82 35.69 25.75C35.1 26.69 33.87 26.95 32.94 26.33L18.91 17.03C17.98 16.42 17.71 15.16 18.3 14.23C18.56 13.82 18.94 13.54 19.37 13.41C19.93 13.25 20.54 13.32 21.05 13.66Z" fill="#FDFDFD" stroke="#FDFDFD" stroke-miterlimit="10"/>
</svg>
