<svg width="50" height="50" viewBox="0 0 50 50" fill="none" xmlns="http://www.w3.org/2000/svg">
<path d="M15.59 49.6075H6.26C3.36 49.6075 1.01 47.2475 1.01 44.3575L1 21.1175C1 19.0775 1.92 17.1875 3.51 15.9175L20.43 2.44754C22.85 0.527539 26.23 0.517539 28.67 2.41754L45.52 15.6075C47.14 16.8775 48.07 18.7775 48.07 20.8375L48.08 44.1775C48.08 47.0275 45.76 49.3875 42.92 49.4275L33.29 49.5875C32.82 49.5875 32.37 49.4175 32.03 49.0875C31.7 48.7575 31.51 48.3075 31.51 47.8375V28.0775C31.51 27.6875 31.2 27.3775 30.81 27.3775H18.04C17.65 27.3775 17.34 27.6875 17.34 28.0775V47.8575C17.34 48.8275 16.56 49.6075 15.59 49.6075ZM24.56 4.49754C23.87 4.49754 23.18 4.72754 22.61 5.18754L5.69 18.6575C4.93 19.2575 4.5 20.1575 4.5 21.1175L4.51 44.3575C4.51 45.3275 5.3 46.1075 6.26 46.1075H13.84V28.0775C13.84 25.7575 15.72 23.8775 18.04 23.8775H30.81C33.13 23.8775 35.01 25.7575 35.01 28.0775V46.0575L42.86 45.9275C43.81 45.9175 44.58 45.1275 44.58 44.1775L44.57 20.8375C44.57 19.8675 44.13 18.9675 43.36 18.3675L26.51 5.17754C25.94 4.72754 25.25 4.49754 24.56 4.49754Z" fill="white"/>
</svg>
