<svg width="50" height="50" viewBox="0 0 50 50" fill="none" xmlns="http://www.w3.org/2000/svg">
<path d="M44.4832 11.0246L5.75565 11.0952C3.18754 11.1053 1.06051 10.1975 1.0017 9.08798C0.933084 7.96838 2.95229 7.0606 5.5204 7.0606L44.2675 7.00008C46.8259 6.99 48.9529 7.89778 49.0117 9.00729C49.0411 9.50152 48.6686 9.94533 48.0119 10.2984C47.1493 10.7422 45.8947 11.0246 44.4832 11.0246Z" fill="#FEFEFE" stroke="#FEFEFE" stroke-miterlimit="10"/>
<path d="M44.4832 27.0246L5.75565 27.0952C3.18754 27.1053 1.06051 26.1975 1.0017 25.088C0.933084 23.9684 2.95229 23.0606 5.5204 23.0606L44.2675 23.0001C46.8259 22.99 48.9529 23.8978 49.0117 25.0073C49.0411 25.5015 48.6686 25.9453 48.0119 26.2984C47.1493 26.7422 45.8947 27.0246 44.4832 27.0246Z" fill="#FEFEFE" stroke="#FEFEFE" stroke-miterlimit="10"/>
<path d="M44.4739 43.0246L5.74636 43.0952C3.18805 43.1053 1.06102 42.1975 1.00221 41.088C0.923793 39.9684 2.943 39.0606 5.51111 39.0606L44.2583 39.0001C46.8166 38.99 48.9436 39.8978 49.0024 41.0073C49.0318 41.5015 48.6593 41.9453 48.0026 42.2984C47.14 42.7422 45.8854 43.0246 44.4739 43.0246Z" fill="#FEFEFE" stroke="#FEFEFE" stroke-miterlimit="10"/>
</svg>
