<svg width="50" height="50" viewBox="0 0 50 50" fill="none" xmlns="http://www.w3.org/2000/svg">
<g clip-path="url(#clip0_913_14378)">
<path d="M49.5723 33.5717C48.6998 34.7488 48.039 36.0465 47.2691 37.2829C46.6233 38.321 46.0031 39.3734 45.3637 40.4136C44.8141 41.3107 44.38 41.4456 43.3557 41.0492C42.419 40.6854 41.4781 40.338 40.5564 39.9416C40.2207 39.7965 40.0239 39.8455 39.7652 40.0785C37.3081 42.2774 34.4746 43.8652 31.2412 44.7848C30.884 44.887 30.7279 45.0423 30.6894 45.4224C30.5868 46.4319 30.4178 47.4374 30.2681 48.4428C30.1548 49.201 29.7549 49.579 28.9637 49.5831C26.2777 49.5974 23.5918 49.5995 20.908 49.5811C20.121 49.577 19.7382 49.1969 19.6249 48.4224C19.4773 47.4169 19.3148 46.4115 19.1993 45.402C19.1608 45.0668 19.0518 44.887 18.7075 44.793C15.442 43.8856 12.5871 42.2855 10.1172 40.0621C9.84131 39.8128 9.63173 39.8292 9.31951 39.9579C8.3465 40.3605 7.36494 40.7426 6.37909 41.1166C5.54722 41.4313 5.04895 41.2719 4.59345 40.526C3.28256 38.3762 1.98022 36.2223 0.686436 34.0642C0.250184 33.3347 0.369939 32.8177 1.06923 32.2945C1.88613 31.6835 2.70517 31.0745 3.53918 30.4819C3.82788 30.2775 3.96046 30.114 3.86423 29.7176C3.09224 26.5827 3.09224 23.4336 3.86209 20.2988C3.95832 19.9084 3.84071 19.7388 3.54559 19.5304C2.71158 18.9418 1.89254 18.3308 1.07564 17.7198C0.372078 17.1925 0.248046 16.6817 0.684297 15.9521C1.97594 13.792 3.28042 11.6381 4.59132 9.49033C5.05964 8.72195 5.56219 8.57481 6.44539 8.91405C7.42909 9.29211 8.41493 9.66608 9.38367 10.0768C9.69375 10.2076 9.87338 10.1627 10.1108 9.95014C12.5828 7.72878 15.4335 6.12662 18.7011 5.21927C19.0368 5.12527 19.163 4.95974 19.2015 4.61642C19.3127 3.6069 19.4773 2.60146 19.6249 1.59603C19.7425 0.79086 20.1317 0.427105 20.9764 0.423018C23.6367 0.410756 26.297 0.410756 28.9573 0.425061C29.7549 0.429149 30.1569 0.801078 30.2703 1.5572C30.4221 2.56263 30.5868 3.56807 30.6916 4.57759C30.7301 4.94952 30.8691 5.11914 31.2347 5.22336C34.4681 6.13684 37.3038 7.72265 39.7588 9.92561C40.0539 10.1892 40.2806 10.1933 40.6227 10.0482C41.5444 9.65586 42.4832 9.29415 43.4177 8.93244C44.3715 8.56255 44.8355 8.71582 45.3616 9.58434C46.7709 11.914 48.1716 14.2478 49.5766 16.5815C49.5766 16.6776 49.5766 16.7757 49.5766 16.8717C49.2066 17.4541 48.6613 17.8628 48.101 18.2613C47.5535 18.6517 47.036 19.0788 46.4715 19.4446C46.0673 19.7061 45.9411 19.9555 46.0609 20.4439C46.7324 23.1843 46.8778 25.9676 46.2084 28.706C45.9176 29.9015 46.2405 30.5227 47.2328 31.1583C48.1224 31.7284 49.1382 32.2393 49.5766 33.2897C49.5723 33.3776 49.5723 33.4757 49.5723 33.5717ZM46.557 16.2627C46.5207 16.1953 46.4864 16.1299 46.4501 16.0686C45.5669 14.6033 44.6773 13.1442 43.8048 11.6729C43.6209 11.3622 43.4241 11.4603 43.1825 11.5584C42.2501 11.9304 41.3113 12.2839 40.3832 12.6599C39.8272 12.8847 39.3268 12.8132 38.9205 12.4065C36.2837 9.76417 33.1038 8.02714 29.4021 7.14636C28.8204 7.0074 28.5103 6.6416 28.4312 6.07553C28.2986 5.1171 28.1361 4.16071 28.0227 3.20023C27.9842 2.87326 27.8966 2.7486 27.5287 2.75064C25.8073 2.76904 24.0836 2.77108 22.3622 2.75064C21.9815 2.74656 21.9131 2.88961 21.8746 3.20636C21.7591 4.16684 21.5987 5.12323 21.464 6.08166C21.3849 6.64773 21.0684 7.00944 20.4867 7.1484C16.8128 8.02509 13.65 9.74578 11.026 12.3636C10.5962 12.7927 10.0936 12.897 9.50556 12.6579C8.60098 12.29 7.67716 11.959 6.77899 11.5727C6.40262 11.4113 6.21657 11.4481 6.00913 11.8057C5.19651 13.1974 4.36677 14.5809 3.50496 15.9439C3.27187 16.3138 3.38521 16.4773 3.69743 16.696C4.45445 17.2232 5.17726 17.7954 5.93215 18.3226C6.52451 18.7354 6.69559 19.2545 6.49671 19.9105C5.48093 23.2967 5.48307 26.6849 6.48816 30.0732C6.69345 30.7659 6.50954 31.2891 5.89152 31.7141C5.1516 32.2209 4.45659 32.787 3.71454 33.2938C3.36169 33.535 3.28256 33.7209 3.52635 34.1051C4.37533 35.4477 5.19437 36.8088 5.99203 38.182C6.22084 38.5744 6.43469 38.5805 6.82176 38.415C7.6964 38.039 8.5967 37.7202 9.47776 37.3585C10.0936 37.1051 10.609 37.2256 11.0602 37.6752C13.6457 40.2563 16.7679 41.9565 20.3841 42.8312C21.0662 42.9967 21.3998 43.3829 21.479 44.043C21.588 44.9565 21.7634 45.8618 21.866 46.7752C21.9067 47.1329 22.005 47.2637 22.4049 47.2596C24.1029 47.2371 25.7987 47.2371 27.4967 47.2596C27.9115 47.2657 27.9842 47.1063 28.0249 46.763C28.1318 45.8495 28.305 44.9442 28.4141 44.0328C28.4932 43.3686 28.8375 42.9926 29.5175 42.8291C33.138 41.9565 36.2538 40.2501 38.8413 37.6691C39.2968 37.2134 39.8122 37.1112 40.426 37.3605C41.3305 37.7304 42.2522 38.0615 43.1525 38.4416C43.4926 38.5846 43.6658 38.5703 43.8625 38.2311C44.688 36.819 45.5348 35.4171 46.4052 34.0316C46.6212 33.6882 46.5057 33.537 46.2256 33.3367C45.4536 32.7891 44.7094 32.2046 43.9331 31.661C43.3664 31.2646 43.1974 30.7598 43.3835 30.1345C44.4057 26.7238 44.41 23.313 43.3899 19.9003C43.1932 19.2443 43.3728 18.7314 43.9694 18.3206C44.7286 17.7974 45.46 17.2375 46.1956 16.6837C46.341 16.5713 46.5741 16.51 46.557 16.2627Z" fill="#FBFBFB"/>
<path d="M25.0184 50.0001C23.6219 50.0001 22.249 49.9961 20.9039 49.9879C19.9202 49.9818 19.3471 49.4729 19.1995 48.4777L19.099 47.8013C18.9836 47.0308 18.8638 46.2338 18.774 45.443C18.7505 45.2264 18.7227 45.2182 18.5901 45.1814C15.3246 44.2741 12.3756 42.6515 9.82655 40.3565C9.71321 40.2544 9.70038 40.2421 9.49295 40.33C8.61831 40.6917 7.67951 41.0616 6.5397 41.4928C5.50253 41.8851 4.79041 41.6481 4.22799 40.7285C2.89785 38.5459 1.58268 36.3716 0.318832 34.2626C-0.217929 33.3675 -0.057542 32.6155 0.808546 31.9677C1.58482 31.3853 2.4231 30.762 3.28705 30.1489C3.49663 29.9997 3.49449 29.9854 3.44958 29.8056C2.66475 26.6197 2.66475 23.3888 3.44744 20.1988C3.49449 20.0046 3.48807 19.9883 3.29347 19.8534C2.44235 19.2526 1.60193 18.6252 0.812823 18.0346C-0.0682343 17.3746 -0.226482 16.645 0.314555 15.7418C1.54419 13.6839 2.823 11.5708 4.22157 9.27999C4.79041 8.34812 5.52605 8.11515 6.60385 8.53L6.83695 8.61992C7.73083 8.96324 8.6568 9.31882 9.55496 9.69892C9.69183 9.75818 9.69397 9.75818 9.81372 9.64783C12.3714 7.35086 15.3182 5.72827 18.5772 4.82092C18.7184 4.78209 18.7483 4.77392 18.7719 4.56956C18.8574 3.79709 18.975 3.02054 19.0883 2.2685C19.1247 2.02532 19.1611 1.78009 19.1974 1.53691C19.3471 0.515122 19.9266 0.016491 20.9702 0.0124039C23.6925 0.000142438 26.3785 0.000142438 28.9553 0.0144474C29.9455 0.0205781 30.5442 0.533514 30.6896 1.49603L30.7795 2.08867C30.9014 2.88771 31.0275 3.71331 31.1131 4.53278C31.1366 4.75144 31.1644 4.77392 31.3504 4.82705C34.5945 5.74461 37.52 7.35699 40.0455 9.62331C40.1888 9.75001 40.223 9.76431 40.4433 9.67031C41.335 9.29225 42.2525 8.93667 43.1378 8.59335L43.2511 8.54839C44.4016 8.10289 45.0966 8.33382 45.7275 9.37604C46.7411 11.0538 47.7526 12.7316 48.762 14.4114L50.0002 16.4693V16.9842L49.9382 17.0823C49.5361 17.7158 48.9588 18.1552 48.3514 18.5884C48.1483 18.7335 47.9473 18.8848 47.7484 19.036C47.4148 19.2873 47.0683 19.5489 46.7048 19.7839C46.4311 19.9597 46.3968 20.0455 46.4717 20.352C47.2052 23.35 47.2565 26.1926 46.6192 28.8002C46.3797 29.779 46.5786 30.2511 47.4661 30.8192C47.5816 30.8928 47.697 30.9643 47.8147 31.0379C48.6209 31.5385 49.5361 32.1046 49.9681 33.1387L49.9981 33.2122V33.7109L49.9189 33.8171C49.3587 34.5753 48.8732 35.407 48.4049 36.2101C48.1568 36.6352 47.9002 37.0746 47.635 37.5017C47.2544 38.1107 46.878 38.736 46.5123 39.3409C46.2536 39.7721 45.9927 40.2012 45.7296 40.6304C45.0753 41.6992 44.4102 41.9097 43.1913 41.4376C42.9774 41.3538 42.7636 41.2721 42.5497 41.1903C41.8355 40.9165 41.0955 40.6324 40.3791 40.3238C40.2188 40.2544 40.2038 40.2523 40.0541 40.3852C37.5221 42.6494 34.5967 44.2659 31.3611 45.1835C31.1644 45.2386 31.1345 45.2611 31.1131 45.4675C31.0318 46.2686 30.9078 47.0738 30.788 47.8544C30.7538 48.071 30.7217 48.2897 30.6896 48.5063C30.5057 49.7324 29.6503 49.994 28.9639 49.9981C27.638 49.9981 26.3186 50.0001 25.0184 50.0001ZM9.68755 39.4553C9.91423 39.4553 10.1559 39.533 10.4104 39.7619C12.8589 41.9669 15.6924 43.5261 18.8253 44.3967C19.4562 44.5704 19.5823 44.9995 19.623 45.3551C19.7106 46.1317 19.8304 46.9205 19.9437 47.6848L20.0443 48.3632C20.1426 49.0356 20.4356 49.1684 20.9082 49.1705C23.5 49.1868 26.2095 49.1868 28.9596 49.1725C29.5178 49.1684 29.7573 48.9559 29.8428 48.3837C29.8749 48.165 29.9091 47.9464 29.9412 47.7297C30.0588 46.9593 30.1807 46.1644 30.2619 45.3817C30.3154 44.8504 30.5806 44.5459 31.1173 44.3926C34.2246 43.5098 37.0345 41.9587 39.4703 39.7803C39.8638 39.4288 40.2508 39.3634 40.7299 39.5698C41.4313 39.8722 42.1626 40.1522 42.8705 40.4219C43.0865 40.5037 43.3003 40.5875 43.5142 40.6692C44.3439 40.9921 44.5513 40.9267 44.994 40.2074C45.2549 39.7803 45.5136 39.3511 45.7724 38.924C46.1381 38.3171 46.5187 37.6876 46.9015 37.0746C47.1603 36.6577 47.4148 36.2244 47.6586 35.8035C48.1162 35.0167 48.5909 34.2054 49.1448 33.4431V33.3634C48.8005 32.6135 48.0948 32.1782 47.3506 31.7163C47.2287 31.6407 47.109 31.5672 46.9913 31.4915C45.8045 30.7313 45.4666 29.9241 45.7874 28.6081C46.3926 26.1251 46.3434 23.4072 45.6398 20.5319C45.4837 19.8943 45.6591 19.4672 46.2279 19.1014C46.5658 18.8827 46.8844 18.6436 47.2202 18.3902C47.4255 18.2349 47.6329 18.0796 47.8425 17.9304C48.3643 17.5585 48.824 17.2111 49.1469 16.7492V16.6859L48.0221 14.8181C47.0127 13.1382 46.0034 11.4605 44.9876 9.78475C44.5684 9.09402 44.3311 9.01228 43.574 9.30656L43.4607 9.35151C42.5818 9.69279 41.6708 10.0443 40.7919 10.4183C40.4198 10.5756 39.9685 10.6757 39.4617 10.22C37.0345 8.04159 34.2246 6.49256 31.1109 5.61178C30.5827 5.4626 30.3218 5.15607 30.2641 4.61656C30.1807 3.81549 30.0545 2.99806 29.9348 2.20924L29.8449 1.61456C29.7594 1.04236 29.5263 0.838006 28.9532 0.833919C26.3785 0.819614 23.6968 0.819614 20.9766 0.831875C20.3629 0.833919 20.1383 1.03419 20.0464 1.65339C20.01 1.89862 19.9737 2.14385 19.9373 2.38907C19.824 3.13293 19.7085 3.90336 19.6251 4.65948C19.5695 5.17242 19.3129 5.47486 18.8189 5.61178C15.6924 6.4803 12.8611 8.04159 10.4039 10.2486C10.034 10.5817 9.66617 10.643 9.21067 10.451C8.32533 10.077 7.40792 9.72344 6.52045 9.38421L6.28522 9.29429C5.59021 9.02863 5.31862 9.11037 4.95935 9.69688C3.56292 11.9857 2.28624 14.0987 1.05447 16.1566C0.727283 16.7022 0.793577 16.9924 1.33889 17.4011C2.12158 17.9876 2.95773 18.6109 3.80029 19.2056C4.14031 19.4467 4.43542 19.7574 4.27931 20.395C3.52656 23.4603 3.5287 26.5665 4.28145 29.6278C4.43542 30.2572 4.14031 30.5699 3.79601 30.8151C2.94062 31.4221 2.10661 32.0413 1.33461 32.6196C0.795715 33.0242 0.73156 33.3144 1.06089 33.8641C2.3226 35.971 3.63563 38.1434 4.96577 40.3238C5.3122 40.894 5.58379 40.9839 6.22534 40.7407C7.3566 40.3116 8.28684 39.9458 9.15293 39.5882C9.31545 39.5125 9.49509 39.4553 9.68755 39.4553ZM27.5161 47.6643C27.5076 47.6643 27.499 47.6643 27.4905 47.6643C25.8502 47.6419 24.1437 47.6419 22.4116 47.6643C21.6353 47.6705 21.4813 47.1841 21.4407 46.8142C21.3872 46.3483 21.3145 45.8721 21.2439 45.4103C21.1776 44.9771 21.1071 44.5295 21.0558 44.0861C20.9959 43.5854 20.7799 43.3442 20.2816 43.2237C16.5607 42.3225 13.3551 40.5507 10.7547 37.9533C10.4168 37.6161 10.0853 37.5487 9.64906 37.7285C9.27268 37.8838 8.88989 38.031 8.50924 38.1781C8.01098 38.3702 7.49346 38.5705 6.99947 38.783C6.60813 38.9526 6.03715 39.0936 5.61801 38.3763C4.79683 36.9622 3.97137 35.595 3.16088 34.3117C2.70752 33.5944 3.11811 33.1938 3.46669 32.9568C3.83451 32.7054 4.20233 32.4316 4.55732 32.1659C4.90803 31.9043 5.27157 31.6325 5.64367 31.3771C6.10986 31.0563 6.23603 30.7109 6.07992 30.1816C5.05345 26.728 5.05558 23.2335 6.08847 19.7942C6.23817 19.2955 6.11627 18.9522 5.68216 18.6498C5.29723 18.38 4.91444 18.098 4.54662 17.8242C4.18736 17.5585 3.8174 17.2826 3.44744 17.0231C3.23359 16.8739 2.66903 16.4795 3.14164 15.7315C3.93288 14.4768 4.74978 13.128 5.63725 11.6035C5.94733 11.0722 6.36648 10.9435 6.9567 11.1969C7.48063 11.4216 8.02595 11.6321 8.55415 11.8365C8.92839 11.9816 9.30262 12.1267 9.67472 12.2779C10.0939 12.4496 10.4061 12.3883 10.7183 12.0756C13.3593 9.44143 16.6098 7.64922 20.3843 6.74801C20.7863 6.65196 20.983 6.43534 21.0408 6.02458C21.09 5.67309 21.1434 5.32364 21.1948 4.97419C21.2846 4.37951 21.3765 3.76235 21.4492 3.15746C21.4792 2.91223 21.5476 2.33799 22.3474 2.33799C22.3538 2.33799 22.3602 2.33799 22.3688 2.33799C24.0218 2.35842 25.7091 2.35842 27.5268 2.33799C28.2646 2.33799 28.41 2.79779 28.4506 3.14928C28.5191 3.73579 28.611 4.33455 28.6966 4.91493C28.7522 5.28277 28.8078 5.64857 28.857 6.01641C28.9147 6.4333 29.1093 6.64992 29.5071 6.74392C33.2986 7.64718 36.5705 9.45369 39.2308 12.1185C39.5066 12.3944 39.8103 12.4434 40.2166 12.2779C40.747 12.0633 41.2816 11.8549 41.8141 11.6485C42.2161 11.4932 42.6181 11.3358 43.018 11.1764L43.0523 11.1621C43.2618 11.0783 43.8178 10.8556 44.1792 11.4666C44.8122 12.5354 45.4666 13.6164 46.0996 14.6628L46.8224 15.8603C46.8523 15.9093 46.878 15.9584 46.9058 16.0095L46.9785 16.1443L46.9849 16.2281C47.0191 16.6654 46.6813 16.8657 46.5358 16.9515C46.5123 16.9659 46.4867 16.9802 46.4653 16.9965L46.1958 17.2009C45.5586 17.6831 44.8978 18.1818 44.2241 18.6457C43.7772 18.9522 43.6574 19.2812 43.8071 19.7819C44.8443 23.2478 44.8422 26.7668 43.8007 30.2409C43.6596 30.7089 43.7772 31.0338 44.1921 31.324C44.6091 31.6162 45.0197 31.9227 45.4174 32.2191C45.766 32.4786 46.1253 32.7463 46.4845 33.0017C46.6855 33.1448 47.2223 33.5249 46.7775 34.234C45.9307 35.5828 45.0774 36.9928 44.2413 38.4233C43.8563 39.0814 43.3388 38.9567 42.9838 38.8075C42.4813 38.595 41.9595 38.3947 41.4569 38.1985C41.057 38.0432 40.6593 37.89 40.2637 37.7285C39.8189 37.5466 39.4895 37.612 39.1559 37.9431C36.5448 40.5486 33.3392 42.3225 29.629 43.2155C29.1243 43.3361 28.904 43.5772 28.8463 44.0697C28.7928 44.5254 28.7222 44.9852 28.6517 45.4287C28.5832 45.8783 28.5105 46.3442 28.4571 46.7999C28.4207 47.0635 28.3523 47.6643 27.5161 47.6643ZM24.9692 46.8285C25.8289 46.8285 26.6757 46.8347 27.5054 46.8469C27.5397 46.8469 27.5632 46.8469 27.5824 46.8449C27.5888 46.8183 27.5953 46.7774 27.6038 46.7141C27.6594 46.2441 27.7321 45.772 27.8027 45.3142C27.8711 44.8769 27.9395 44.4253 27.993 43.9818C28.0914 43.1542 28.5704 42.631 29.4172 42.4267C32.9693 41.5704 36.038 39.8743 38.5358 37.3811C39.1132 36.8048 39.8253 36.6659 40.5973 36.9806C40.9886 37.14 41.3821 37.2932 41.7777 37.4445C42.2888 37.6427 42.8149 37.845 43.3303 38.0637C43.3837 38.0861 43.4201 38.0984 43.4436 38.1066C43.4564 38.0902 43.4735 38.0657 43.4949 38.0289C44.3353 36.5923 45.1929 35.1741 46.0461 33.8171C46.0654 33.7865 46.0782 33.7619 46.0868 33.7456C46.0675 33.7272 46.0354 33.7006 45.9777 33.6618C45.612 33.4023 45.2463 33.1305 44.8956 32.8689C44.5021 32.5767 44.0958 32.2722 43.6895 31.9881C42.9881 31.4956 42.7443 30.8172 42.9817 30.0202C43.9782 26.6953 43.9804 23.3275 42.9881 20.0108C42.7379 19.177 42.9881 18.4965 43.728 17.9876C44.3867 17.534 45.0389 17.0415 45.6698 16.5653L45.9392 16.361C45.982 16.3283 46.0312 16.2976 46.0803 16.269L45.3618 15.0796C44.7331 14.0395 44.0809 12.9625 43.4521 11.8978C43.4308 11.906 43.4094 11.9141 43.3901 11.9223L43.3538 11.9366C42.9517 12.096 42.5476 12.2534 42.1434 12.4107C41.613 12.6171 41.0827 12.8235 40.5566 13.0361C39.8253 13.3324 39.1367 13.2077 38.617 12.6887C36.0615 10.1362 32.9286 8.40534 29.2975 7.54091C28.5554 7.36517 28.1106 6.87471 28.0058 6.12676C27.9567 5.76301 27.9011 5.39925 27.8455 5.03345C27.7578 4.44899 27.6658 3.8441 27.5953 3.24329C27.591 3.2065 27.5867 3.17994 27.5824 3.1595C27.5675 3.1595 27.5525 3.1595 27.5311 3.1595C25.707 3.17789 24.0133 3.17789 22.3538 3.1595C22.3367 3.1595 22.3217 3.1595 22.311 3.1595C22.3068 3.18198 22.3025 3.21263 22.2982 3.2535C22.2255 3.87066 22.1314 4.49191 22.0395 5.09272C21.986 5.44012 21.9347 5.78753 21.8855 6.13698C21.7807 6.88084 21.3338 7.36721 20.5896 7.545C16.9755 8.40738 13.8619 10.124 11.3342 12.6437C10.7739 13.2016 10.0832 13.3365 9.33684 13.032C8.97116 12.8828 8.6012 12.7398 8.23124 12.5967C7.69662 12.3903 7.14275 12.1757 6.60385 11.9448C6.529 11.9121 6.48409 11.8978 6.45843 11.8937C6.44346 11.9121 6.4178 11.9448 6.38359 12.0041C5.4897 13.5347 4.66852 14.8937 3.873 16.1546C3.84092 16.2056 3.82595 16.2383 3.8174 16.2588C3.83665 16.2772 3.87514 16.3099 3.95212 16.365C4.33277 16.6307 4.70915 16.9107 5.07269 17.1804C5.43624 17.4502 5.81261 17.7301 6.18684 17.9917C6.91821 18.5026 7.162 19.1852 6.91179 20.021C5.92381 23.3111 5.92167 26.6544 6.90538 29.9589C7.162 30.8192 6.90538 31.5222 6.14621 32.0433C5.78909 32.2885 5.43196 32.5542 5.08766 32.8117C4.72626 33.0814 4.35202 33.3614 3.96923 33.623C3.87728 33.6863 3.83878 33.7231 3.82168 33.7415C3.82809 33.7619 3.8452 33.8089 3.89652 33.8907C4.71129 35.1822 5.54316 36.5575 6.36862 37.9799C6.41139 38.0534 6.44132 38.0882 6.45629 38.1045C6.48196 38.1004 6.53756 38.0861 6.64876 38.0391C7.15772 37.8205 7.68165 37.6182 8.18847 37.422C8.56271 37.2769 8.93908 37.1318 9.31118 36.9785C10.0746 36.6638 10.7889 36.8069 11.3727 37.3893C13.8619 39.8722 16.9306 41.5684 20.4933 42.4308C21.3338 42.6331 21.8085 43.1603 21.9069 43.9941C21.9582 44.4253 22.0266 44.8667 22.0929 45.2918C22.1656 45.7597 22.2405 46.2461 22.2939 46.7284C22.3004 46.7836 22.3068 46.8204 22.3132 46.8449C22.3346 46.8469 22.3624 46.849 22.403 46.8469C23.2648 46.8347 24.1223 46.8285 24.9692 46.8285Z" fill="#FBFBFB"/>
<path d="M18.2779 36.3878C19.4006 35.3149 20.5361 34.2441 21.6503 33.1569C21.9711 32.8442 22.2576 33.069 22.557 33.1344C25.9594 33.8783 28.9083 33.1038 31.22 30.584C33.4462 28.1563 34.1947 25.6386 33.0912 22.5998C32.9672 22.2585 32.9864 22.0521 32.7127 21.7906C32.2187 21.3165 31.4702 21.3573 30.8864 21.907C29.7295 22.9922 28.7287 23.9384 27.6039 25.0521C27.2574 25.3954 26.4448 25.469 26.0492 25.0848C24.7832 23.8566 23.7567 23.3907 25.4461 21.7763C26.3058 20.9547 27.1719 20.1394 28.023 19.3097C28.8784 18.4779 29.3232 18.1612 28.1984 17.7198C25.0804 16.4916 22.1058 16.8002 19.4776 18.811C16.6227 20.9977 15.6711 23.9077 16.5137 27.3102C16.642 27.8293 16.5842 28.1399 16.18 28.5016C15.2541 29.3272 14.3645 30.1896 13.492 31.0663C13.137 31.4219 12.9616 31.4566 12.7221 30.9641C10.5687 26.5316 10.7419 22.1788 13.5647 18.1183C17.8887 11.8976 26.3315 10.5019 32.7255 14.7954C38.9464 18.9725 40.1204 27.7619 35.2062 33.3633C31.1495 37.9879 24.6442 39.3836 18.9964 36.8394C18.7526 36.7331 18.4682 36.6677 18.2779 36.3878Z" fill="#FBFBFB"/>
</g>
<defs>
<clipPath id="clip0_913_14378">
<rect width="50" height="50" fill="white"/>
</clipPath>
</defs>
</svg>
