<svg width="427" height="444" viewBox="0 0 427 444" fill="none" xmlns="http://www.w3.org/2000/svg">
<g clip-path="url(#clip0_1329_25069)">
<path d="M379.341 337.92V338.087L389.357 444H316.243L306.728 378.951L302.555 442.332L227.438 441.498L235.45 358.352L242.211 319.74L243.212 313.902H377.338L377.505 316.071L379.341 337.92Z" fill="#0B1A27"/>
<path d="M186.042 399.3C193.804 400.717 201.9 391.961 204.07 379.868C205.071 374.531 204.738 369.444 203.402 365.274L204.571 358.269L224.518 263.948C224.518 263.948 261.242 190.56 261.242 177.883C261.242 165.124 250.643 158.869 250.643 158.869L236.287 159.036L191.216 268.952L183.12 350.179L181.785 361.354C179.114 364.774 177.028 369.444 176.026 374.781C173.773 386.874 178.28 397.882 186.042 399.3Z" fill="#FFB6B6"/>
<path d="M332.184 113.335L318.83 82.4785L275.429 89.9842L272.508 126.345L332.184 113.335Z" fill="#FFB6B6"/>
<path opacity="0.1" d="M332.184 113.335L318.83 82.4785L275.429 89.9842L272.508 126.345L332.184 113.335Z" fill="black"/>
<path d="M426.498 177.55C426.498 177.55 395.616 120.007 389.774 114.169C387.186 111.584 383.097 111.5 379.341 112.251L336.357 97.4897L321.751 89.3169L320.749 104.912L272.925 113.502C273.175 103.995 274.511 100.409 274.511 100.409L256.983 120.924L222.763 137.603V137.77C220.259 138.687 217.839 140.105 216.086 142.607C209.409 151.78 191.047 263.531 191.047 263.531L230.275 271.871L235.616 238.429L239.456 268.535L242.377 324.827C242.377 324.827 295.794 370.695 321.667 354.016C347.541 337.336 379.257 338.17 379.257 338.17L380.009 312.067C380.593 311.15 380.927 310.65 380.927 310.65L380.092 218.08V193.478C386.435 202.318 394.114 209.907 403.045 213.493C432.34 225.085 426.498 177.55 426.498 177.55Z" fill="#0B938E"/>
<path d="M292.622 95.4047C314.656 95.4047 332.518 77.5574 332.518 55.5415C332.518 33.5256 314.656 15.6782 292.622 15.6782C270.588 15.6782 252.727 33.5256 252.727 55.5415C252.727 77.5574 270.588 95.4047 292.622 95.4047Z" fill="#FFB6B6"/>
<path d="M321.25 66.8003C321.25 66.8003 324.756 54.6245 332.518 55.5418C340.364 56.3758 342.033 49.4539 340.364 46.0347C338.694 42.6154 335.189 25.1857 335.189 25.1857C335.189 25.1857 336.942 13.0099 326.509 11.342C316.076 9.59065 312.654 7.83934 310.901 4.4201C309.148 0.917475 283.107 -2.50176 274.427 2.66879C265.747 7.83934 258.82 17.8468 252.727 20.6823C246.634 23.5178 241.459 28.6883 244.881 37.3615C248.387 46.0347 253.394 62.9641 253.394 62.9641C253.394 62.9641 262.242 59.8784 263.994 65.049C265.747 70.2195 258.82 63.2976 267.5 49.4539C276.18 35.6102 276.18 21.6831 290.035 26.937C303.89 32.1076 319.581 30.4396 317.828 40.7807C315.992 51.2052 321.25 66.8003 321.25 66.8003Z" fill="#0B1A27"/>
<path d="M318.748 383.121H15.5242C7.01095 383.121 0 376.116 0 367.609V206.655C0 198.065 7.01095 191.144 15.5242 191.144H318.748C327.344 191.144 334.272 198.149 334.272 206.655V367.609C334.355 376.116 327.344 383.121 318.748 383.121Z" fill="white"/>
<path d="M318.748 383.121H15.5242C7.01095 383.121 0 376.116 0 367.609V206.655C0 198.065 7.01095 191.144 15.5242 191.144H318.748C327.344 191.144 334.272 198.149 334.272 206.655V367.609C334.355 376.116 327.344 383.121 318.748 383.121ZM15.5242 193.645C8.34636 193.645 2.58737 199.483 2.58737 206.572V367.526C2.58737 374.698 8.42983 380.452 15.5242 380.452H318.748C325.926 380.452 331.685 374.615 331.685 367.526V206.572C331.685 199.4 325.842 193.645 318.748 193.645H15.5242Z" fill="#0B1A27"/>
<path d="M295.376 210.575C297.542 210.575 299.299 208.82 299.299 206.655C299.299 204.49 297.542 202.735 295.376 202.735C293.209 202.735 291.453 204.49 291.453 206.655C291.453 208.82 293.209 210.575 295.376 210.575Z" fill="#3F3D56"/>
<path d="M305.809 210.575C307.976 210.575 309.732 208.82 309.732 206.655C309.732 204.49 307.976 202.735 305.809 202.735C303.643 202.735 301.887 204.49 301.887 206.655C301.887 208.82 303.643 210.575 305.809 210.575Z" fill="#3F3D56"/>
<path d="M316.161 210.575C318.328 210.575 320.084 208.82 320.084 206.655C320.084 204.49 318.328 202.735 316.161 202.735C313.995 202.735 312.238 204.49 312.238 206.655C312.238 208.82 313.995 210.575 316.161 210.575Z" fill="#3F3D56"/>
<path d="M22.0329 269.619C20.9479 269.619 20.1133 270.453 20.1133 271.537C20.1133 272.038 20.2802 272.538 20.6975 272.872C21.0314 273.289 21.5322 273.455 22.1164 273.455H313.571C314.656 273.455 315.491 272.621 315.491 271.537C315.491 271.037 315.324 270.537 314.907 270.203C314.573 269.786 314.072 269.619 313.488 269.619H22.0329Z" fill="#E6E6E6"/>
<path d="M277.181 268.952V274.123H22.0327C21.2815 274.123 20.6973 273.872 20.1965 273.372C19.6957 272.872 19.4453 272.288 19.4453 271.537C19.4453 270.12 20.6138 268.952 22.0327 268.952H277.181Z" fill="#FCB51F"/>
<path d="M310.319 259.195H284.362C281.524 259.195 279.188 256.86 279.188 254.024C279.188 251.189 281.524 248.854 284.362 248.854H310.319C313.157 248.854 315.494 251.189 315.494 254.024C315.494 256.86 313.157 259.195 310.319 259.195Z" fill="#E6E6E6"/>
<path d="M140.219 231.924H24.038C21.2003 231.924 18.8633 229.589 18.8633 226.754C18.8633 223.918 21.2003 221.583 24.038 221.583H140.219C143.057 221.583 145.394 223.918 145.394 226.754C145.394 229.589 143.057 231.924 140.219 231.924Z" fill="#E6E6E6"/>
<path d="M22.0329 327.996C20.9479 327.996 20.1133 328.83 20.1133 329.914C20.1133 330.415 20.2802 330.915 20.6975 331.249C21.0314 331.666 21.5322 331.832 22.1164 331.832H313.571C314.656 331.832 315.491 330.998 315.491 329.914C315.491 329.414 315.324 328.913 314.907 328.58C314.573 328.163 314.072 327.996 313.488 327.996H22.0329Z" fill="#E6E6E6"/>
<path d="M177.192 327.329V332.5H22.0327C21.2815 332.5 20.6973 332.249 20.1965 331.749C19.6957 331.249 19.4453 330.665 19.4453 329.914C19.4453 328.497 20.6138 327.329 22.0327 327.329H177.192Z" fill="#FCB51F"/>
<path d="M310.319 317.572H284.362C281.524 317.572 279.188 315.236 279.188 312.401C279.188 309.566 281.524 307.23 284.362 307.23H310.319C313.157 307.23 315.494 309.566 315.494 312.401C315.494 315.236 313.157 317.572 310.319 317.572Z" fill="#E6E6E6"/>
<path d="M355.807 98.4904C378.256 98.4904 396.454 80.6803 396.454 58.7105C396.454 36.7407 378.256 18.9307 355.807 18.9307C333.358 18.9307 315.16 36.7407 315.16 58.7105C315.16 80.6803 333.358 98.4904 355.807 98.4904Z" fill="#FCB51F"/>
<path d="M369.578 38.6959C364.153 48.5366 358.728 58.3773 353.303 68.218C349.881 62.1301 346.459 56.0422 342.954 49.9543C341.785 47.8694 338.53 49.7041 339.698 51.8724C343.705 58.9611 347.711 66.0497 351.717 73.055C352.385 74.2225 354.305 74.3059 354.972 73.055C360.898 62.2135 366.908 51.372 372.834 40.614C374.002 38.4457 370.747 36.5276 369.578 38.6959Z" fill="white"/>
<path d="M411.891 163.623L371.411 144.191C371.411 144.191 369.826 131.265 362.147 126.595C360.895 123.509 359.393 120.173 358.057 117.421C354.719 110.833 359.727 98.3237 355.553 98.3237C351.38 98.3237 345.204 111.5 345.538 115.003C345.788 117.672 348.042 122.425 348.459 126.595C343.368 128.513 339.278 131.765 336.607 134.434C334.27 136.686 333.435 140.105 334.354 143.191C337.024 152.198 343.618 170.878 353.133 170.878C365.652 170.878 368.991 168.376 368.991 168.376C368.991 168.376 394.865 200.901 414.061 203.403C433.258 205.904 411.891 163.623 411.891 163.623Z" fill="#FFB6B6"/>
</g>
<defs>
<clipPath id="clip0_1329_25069">
<rect width="427" height="444" fill="white"/>
</clipPath>
</defs>
</svg>
