<svg width="425" height="415" viewBox="0 0 425 415" fill="none" xmlns="http://www.w3.org/2000/svg">
<path d="M130.962 303.817H77.8094C76.4872 303.817 75.3633 302.76 75.3633 301.371C75.3633 299.983 76.4211 298.925 77.8094 298.925H130.962C132.285 298.925 133.409 299.983 133.409 301.371C133.409 302.76 132.285 303.817 130.962 303.817Z" fill="#53E0DC"/>
<path d="M36.0938 316.841C36.0938 317.304 36.4243 317.635 36.8871 317.635H171.951C172.414 317.635 172.745 317.304 172.745 316.841C172.745 316.378 172.414 316.048 171.951 316.048H36.8871C36.4243 316.048 36.0938 316.378 36.0938 316.841Z" fill="#53E0DC"/>
<path d="M321.035 158.307C344.767 158.307 364.006 139.068 364.006 115.335C364.006 91.6025 344.767 72.3633 321.035 72.3633C297.302 72.3633 278.062 91.6025 278.062 115.335C278.062 139.068 297.302 158.307 321.035 158.307Z" fill="#53E0DC"/>
<path d="M5.02623 317.965L3.90234 316.775L111.729 218.402L150.536 235.789L192.45 163.861L226.894 147.267L258.826 200.486C276.08 155.861 319.317 109.187 371.082 61.7856L372.338 62.8434C323.746 109.385 282.163 156.06 258.627 203.329L229.076 153.944C227.687 151.63 224.778 150.705 222.266 151.829C203.425 160.621 187.69 174.901 177.245 192.817L150.999 237.773L144.983 235.062C124.951 226.071 101.416 229.839 85.2186 244.648L5.02623 317.965Z" fill="#F15B40"/>
<path d="M373.528 70.7771L371.941 70.9093L369.297 65.1577L363.347 63.9677L363.148 62.3149L372.867 60.9927L373.528 70.7771Z" fill="#F15B40"/>
<path d="M205.406 105.815L211.158 83.536L233.768 82.4121L240.511 113.154L205.406 105.815Z" fill="#FFB6B6"/>
<path opacity="0.1" d="M205.406 105.815L211.158 83.536L233.768 82.4121L240.511 113.154L205.406 105.815Z" fill="black"/>
<path d="M220.281 95.965C235.324 95.965 247.518 83.7703 247.518 68.7274C247.518 53.6845 235.324 41.4897 220.281 41.4897C205.238 41.4897 193.043 53.6845 193.043 68.7274C193.043 83.7703 205.238 95.965 220.281 95.965Z" fill="#FFB6B6"/>
<path d="M235.287 74.479C235.287 74.479 224.908 53.9847 212.81 55.1747C200.711 56.3647 194.299 57.8191 194.299 57.8191C194.299 57.8191 190.729 41.8203 207.653 35.672C207.653 35.672 186.101 14.4504 211.752 4.00493C237.403 -6.44057 251.749 6.84769 251.749 6.84769C251.749 6.84769 270.723 25.8215 246.791 39.9692C246.791 39.9692 264.574 63.8352 243.022 83.5362C243.022 83.5362 247.848 67.6035 242.824 70.5124C237.866 73.5535 235.287 74.479 235.287 74.479Z" fill="#253847"/>
<path d="M190.202 218.468L186.566 221.972L160.386 278.1L157.543 370.986H201.507L222.133 324.973L236.016 370.523H275.617L284.806 287.818L260.147 229.377L190.202 218.468Z" fill="#253847"/>
<path d="M0 371.118C0 371.581 0.330554 371.911 0.793329 371.911H346.09C346.553 371.911 346.883 371.581 346.883 371.118C346.883 370.655 346.553 370.325 346.09 370.325H0.793329C0.330554 370.325 0 370.655 0 371.118Z" fill="#F8F8F8"/>
<path d="M235.753 103.568H206.4L174.469 120.757L181.939 154.01C181.939 154.01 180.22 174.042 184.253 188.983C188.286 203.858 186.567 223.361 186.567 223.361L260.214 229.377L262.528 161.745L261.404 116.459L235.753 103.568Z" fill="#0B938E"/>
<path d="M179.291 121.021C179.291 121.021 161.507 121.616 158.664 133.053C155.822 144.49 153.508 203.593 153.508 203.593C153.508 203.593 155.227 238.632 174.399 221.972C193.571 205.312 191.852 154.87 191.852 154.87L179.291 121.021Z" fill="#0B938E"/>
<path d="M351.644 413.496H246.924C243.354 413.496 240.512 410.587 240.512 407.083V298.794C240.512 295.224 243.421 292.381 246.924 292.381H351.644C355.214 292.381 358.057 295.29 358.057 298.794V407.083C358.123 410.587 355.214 413.496 351.644 413.496Z" fill="white"/>
<path d="M351.641 414.157H246.922C243.021 414.157 239.848 410.984 239.848 407.083V298.794C239.848 294.893 243.021 291.72 246.922 291.72H351.641C355.542 291.72 358.715 294.893 358.715 298.794V407.083C358.781 410.984 355.542 414.157 351.641 414.157ZM246.922 293.042C243.748 293.042 241.17 295.62 241.17 298.794V407.083C241.17 410.256 243.748 412.835 246.922 412.835H351.641C354.814 412.835 357.393 410.256 357.393 407.083V298.794C357.393 295.62 354.814 293.042 351.641 293.042H246.922Z" fill="#3F3D56"/>
<path d="M303.445 385.067H294.784C293.727 385.067 292.867 384.405 292.867 383.612V346.458C292.867 345.665 293.727 345.003 294.784 345.003H303.445C304.503 345.003 305.362 345.665 305.362 346.458V383.612C305.362 384.405 304.503 385.067 303.445 385.067Z" fill="#0B938E"/>
<path d="M274.888 363.118C274.028 363.118 273.367 363.647 273.367 364.308V383.48C273.367 384.141 274.028 384.67 274.888 384.67H283.548C284.408 384.67 285.069 384.141 285.069 383.48V364.308C285.069 363.647 284.408 363.118 283.548 363.118H274.888Z" fill="#0B938E"/>
<path d="M323.347 385.067H314.687C313.629 385.067 312.77 384.406 312.77 383.613V322.659C312.77 321.865 313.629 321.204 314.687 321.204H323.347C324.405 321.204 325.264 321.865 325.264 322.659V383.547C325.264 384.406 324.405 385.067 323.347 385.067Z" fill="#0B938E"/>
<path d="M137.575 118.112H127.725C126.535 118.112 125.543 117.385 125.543 116.459V74.0161C125.543 73.0905 126.535 72.3633 127.725 72.3633H137.575C138.765 72.3633 139.757 73.0905 139.757 74.0161V116.393C139.757 117.319 138.765 118.112 137.575 118.112Z" fill="#0B938E"/>
<path d="M104.984 93.0557C103.993 93.0557 103.199 93.6507 103.199 94.444V116.393C103.199 117.12 103.993 117.781 104.984 117.781H114.835C115.826 117.781 116.62 117.186 116.62 116.393V94.444C116.62 93.7168 115.826 93.0557 114.835 93.0557H104.984Z" fill="#0B938E"/>
<path d="M160.317 118.112H150.467C149.277 118.112 148.285 117.385 148.285 116.459V46.8447C148.285 45.9191 149.277 45.1919 150.467 45.1919H160.317C161.507 45.1919 162.499 45.9191 162.499 46.8447V116.393C162.499 117.319 161.507 118.112 160.317 118.112Z" fill="#0B938E"/>
<path d="M283.22 308.115C288.31 307.652 291.814 300.71 291.087 292.711C290.822 289.471 289.764 286.43 288.112 283.654L287.12 274.596L287.252 274.53L289.698 231.426C290.293 221.377 286.327 211.593 278.658 205.048C274.096 201.147 269.27 199.23 266.163 204.122C261.006 212.254 267.683 245.64 272.113 264.68L273.832 284.976C272.642 287.951 272.245 291.256 272.576 294.43C273.369 302.495 278.129 308.577 283.22 308.115Z" fill="#FFB6B6"/>
<path d="M254.988 117.583C254.988 117.583 269.863 111.832 276.805 129.02C283.746 146.209 291.151 231.029 291.151 231.029L256.178 224.749L254.988 117.583Z" fill="#0B938E"/>
<path d="M50.3094 109.188H30.2117C28.8895 109.188 27.7656 108.13 27.7656 106.742C27.7656 105.354 28.8234 104.296 30.2117 104.296H50.3094C51.6316 104.296 52.7555 105.354 52.7555 106.742C52.7555 108.13 51.6316 109.188 50.3094 109.188Z" fill="#F8F8F8"/>
<path d="M50.3094 74.7442H30.2117C28.8895 74.7442 27.7656 73.6865 27.7656 72.2982C27.7656 70.9098 28.8234 69.8521 30.2117 69.8521H50.3094C51.6316 69.8521 52.7555 70.9098 52.7555 72.2982C52.7555 73.6865 51.6316 74.7442 50.3094 74.7442Z" fill="#F8F8F8"/>
<path d="M50.3094 49.8868H30.2117C28.8895 49.8868 27.7656 48.8291 27.7656 47.4407C27.7656 46.0524 28.8234 44.9946 30.2117 44.9946H50.3094C51.6316 44.9946 52.7555 46.0524 52.7555 47.4407C52.7555 48.8291 51.6316 49.8868 50.3094 49.8868Z" fill="#F8F8F8"/>
<path d="M26.9727 118.245C26.9727 118.708 27.3032 119.039 27.766 119.039H162.83C163.293 119.039 163.624 118.708 163.624 118.245C163.624 117.783 163.293 117.452 162.83 117.452H27.766C27.3693 117.452 26.9727 117.783 26.9727 118.245Z" fill="#253847"/>
<path d="M287.453 321.865C287.453 322.328 287.784 322.658 288.246 322.658H423.311C423.774 322.658 424.104 322.328 424.104 321.865C424.104 321.402 423.774 321.072 423.311 321.072H288.246C287.85 321.072 287.453 321.402 287.453 321.865Z" fill="#3F3D56"/>
<path d="M247.785 385.993C247.785 386.456 248.116 386.786 248.578 386.786H383.643C384.106 386.786 384.436 386.456 384.436 385.993C384.436 385.53 384.106 385.2 383.643 385.2H248.578C248.182 385.2 247.785 385.53 247.785 385.993Z" fill="#3F3D56"/>
<path d="M157.013 114.212C151.923 114.675 148.419 121.616 149.146 129.616C149.411 132.855 150.468 135.896 152.121 138.673L153.113 147.73L152.981 147.796L150.535 190.9C149.94 200.949 153.906 210.733 161.575 217.278C166.137 221.179 170.963 223.096 174.07 218.204C179.227 210.072 172.549 176.686 168.12 157.647L166.401 137.351C167.591 134.376 167.988 131.07 167.657 127.897C166.864 119.831 162.104 113.749 157.013 114.212Z" fill="#FFB6B6"/>
</svg>
