<?xml version="1.0" encoding="utf-8"?>
<!-- Generator: Adobe Illustrator 26.5.0, SVG Export Plug-In . SVG Version: 6.00 Build 0)  -->
<svg version="1.1" id="Layer_1" xmlns="http://www.w3.org/2000/svg" xmlns:xlink="http://www.w3.org/1999/xlink" x="0px" y="0px"
	 viewBox="0 0 596.9 505.6" enable-background="new 0 0 596.9 505.6" xml:space="preserve">
<path fill="#5B4A27" d="M21.5,413.7h553.9c11.8,0,21.5-9.6,21.5-21.5v-66.7H0v66.7C0,404.1,9.6,413.7,21.5,413.7z"/>
<rect x="226.8" y="402.5" fill="#5B4A27" width="141.3" height="100.9"/>
<path fill="#5B4A27" d="M222.6,490.7h149.7c2.4,0,4.3,1.9,4.3,4.3v4.1c0,2.4-1.9,4.3-4.3,4.3H222.6c-2.4,0-4.3-1.9-4.3-4.3V495
	C218.3,492.6,220.2,490.7,222.6,490.7z"/>
<path fill="#7D6634" d="M0.5,353.7h596.4v-339c0-8.1-6.6-14.7-14.7-14.7H15.3C7.1,0,0.5,6.6,0.5,14.7V353.7L0.5,353.7z"/>
<rect x="14.9" y="15.4" fill="#FFFFFF" width="568.2" height="319.7"/>
<path id="uuid-25324785-d0f2-4f1c-ad19-f4bb5410ff47-286" fill="#F6BB9B" d="M474.3,203c-0.2-0.2-0.4-0.4-0.6-0.6
	c-3.3-2.9-9.8-2.4-12.6,1c-2.5,3-2.8,7.7-0.4,10.8c1.1,1.5,2.7,2.5,4.5,3c1.9,0.5,3.9-0.2,5.6,0.6c0.4,0.2,0.8,0.7,1.1,0.9
	c2.2,1.8,4.5,3.6,6.7,5.4c0.7,0.6,10.8,8.6,10.7,8.7c0,0,6.8-8.9,6.8-8.9c-6.1-4.4-12.2-8.9-18.4-13.3c-1.3-0.9-1.4-2.5-1.7-3.9
	C475.9,205.4,475.3,204.1,474.3,203z"/>
<path fill="#FCB51F" d="M580.7,239.8c0-0.7,0-6.4-4.3-10.1c-4.9-4.2-11.9-2.5-14.3-1.9c-5.6,1.4-6.1,3.8-11.4,6.3
	c-9.9,4.6,2.5,2.3-3.4,0.8c-2-0.5-31.3-2.5-38.6-7c-9.5-5.8-17-10.2-20.9-12.4c-1.6-0.9-3.6-0.3-4.4,1.3l-3.9,7.8
	c-0.5,1.1-0.4,2.4,0.3,3.4c2.9,3.7,10.7,13.1,20.8,20.5c13.2,9.6,19.8,14.5,29.8,16.3c0.9,0.2,22.1,3.8,39.2-9
	C573.4,252.9,580.6,247.6,580.7,239.8L580.7,239.8z"/>
<polygon fill="#F6BB9B" points="556.4,202.7 569.3,203.3 571.2,223 555.3,223 "/>
<polygon opacity="0.1" points="556.4,202.7 569.3,203.3 571.2,223 555.3,223 "/>
<circle fill="#F6BB9B" cx="561.1" cy="185.7" r="22"/>
<polygon fill="#F6BB9B" points="388.9,333.4 411.5,310.2 423.2,322.4 406.3,344.7 389.6,346.6 "/>
<path fill="#314A5B" d="M518.2,290c-1.3,0.1-5.5,1-9.6-1.3c-2.7-1.5-4.2-3.8-4.6-4.5c-5.9-8.9-28.6-22.7-48.9-23.5
	c-4.6-0.2-7.6,0.3-10.4,1.8c-3.9,2-5.5,5-10.4,11.8c-2.7,3.7-5.7,7.3-8.5,11c-16.1,21.7-22.2,23.4-21.5,30.4
	c0.7,7.7,9,15.1,14.6,14.2c2.3-0.3,3.1-1.9,6.2-5.1c8.9-9.4,12.6-7.6,18.9-14.8c7.4-8.4,6.4-15.3,10.3-15.6
	c3.6-0.2,5.1,5.7,12.7,13.5c3.5,3.6,6,5.3,13.6,10.5c29.5,20.5,30,21.9,35.9,23.5c2.6,0.7,21.1,5.8,27.7-2.3
	C554.5,327,530.1,289,518.2,290L518.2,290z"/>
<path fill="#314A5B" d="M395.8,338.7c-1.7-0.7-3.6-1.6-4.2-3.6c-0.2-0.7-0.2-1.4-0.1-2.1c0.2-1.5,1.1-2.9,2.1-4c0-0.1,0.8-1,0.7-1
	c-0.5-0.2-3.1,1-7,2.4c-0.7,0.3-4.1,1.5-8.3,4.8c-3.4,2.6-2.9,3.2-5.1,4.7c-6.5,4.7-12.6,1-16.2,5.4c-1.4,1.7-1.9,4.1-1.4,6
	c1.2,3.9,6.7,5.2,9.8,5.9c7.4,1.7,12.9,0.3,18.8-0.7c19.8-3.3,30.9-0.3,32.4-4.9c0.3-0.9-0.2-0.8-1.7-7.2c-1.5-6.3-1.5-8-2.7-8.5
	c-1.9-0.8-3.2,2.7-8.1,3.9C400.4,340.8,396.9,339.2,395.8,338.7z"/>
<polygon fill="#F6BB9B" points="429.1,409.3 434.8,377.4 451.4,380.9 449.9,408.8 437.1,419.8 "/>
<path fill="#314A5B" d="M511.7,300.7c-1,0.8-4,3.9-8.6,4.3c-3.1,0.3-5.5-0.8-6.3-1.1c-9.9-4-36.4-2.7-53.7,8
	c-3.9,2.4-6.1,4.6-7.6,7.3c-2.1,3.9-1.7,7.2-2,15.6c-0.1,4.6-0.7,9.2-0.8,13.8c-1.1,27-5.2,31.8-0.7,37.3c4.9,6,15.9,7.4,20,3.6
	c1.7-1.6,1.5-3.4,2.2-7.7c2.1-12.7,6.1-13.4,7.3-22.9c1.4-11.1-3.3-16.3-0.2-18.7c2.8-2.2,7.4,1.8,18.1,4.1c4.9,1,7.9,1,17.1,1.1
	c35.9,0.4,37.1,1.3,43-0.7c2.6-0.9,20.7-7.1,21.6-17.4C562.6,311,521,293.2,511.7,300.7L511.7,300.7z"/>
<path fill="#314A5B" d="M437.8,409.7c-1.8,0.3-3.9,0.7-5.5-0.6c-1-0.8-1.9-2-2.1-3.3c-0.1-0.5-0.1-1,0-1.5c0-0.4,0.1-0.7,0.1-1.1
	c0-0.4,0.1-0.7,0.1-1.1c0,0,0,0,0-0.1c0,0-0.2,0.1-0.2,0.1c-0.2,0.1-0.3,0.2-0.5,0.3c-0.3,0.3-0.5,0.7-0.7,1
	c-0.9,1.1-1.7,2.2-2.5,3.3c-0.2,0.2-0.4,0.5-0.6,0.7c-0.5,0.6-2.5,3.5-4.2,8.6c-1.3,4.1-0.6,4.3-1.5,6.7c-2.8,7.5-9.9,7.9-10.3,13.5
	c-0.2,2.2,0.7,4.5,2.3,5.8c3.1,2.6,8.5,0.6,11.4-0.6c7-2.8,10.9-7,15.1-11.1c14.5-13.9,25.4-17.6,24.1-22.2c-0.3-0.9-0.6-0.6-5.4-5
	s-5.7-5.8-7-5.5c-2,0.5-1.2,4-4.5,7.7C442.8,408.8,439,409.5,437.8,409.7z"/>
<path fill="#2A1D19" d="M558.1,189.9c-0.9-3.1,0.2-4.2-0.9-5.6c-2.5-1.1-4-3.7-3.8-6.4c0.2-2.9-0.3-3.5-0.3-3.5
	c-1-1.3-3-1.6-4.4-1.5c-2.9,0.4-3.4,3-5.3,2.9c-2.6-0.1-5.6-5.2-4.7-9.6c0.5-2.2,2-4.6,4-5.7c0.9-0.5,1.7,0.3,2.7,0.2
	c0,0,0.1,0,0.1,0c1-0.1,1.6-0.7,2.3-1.3c0.2-0.1,0.4-0.3,0.6-0.3c0.3,0,0.6,0.2,0.8,0.4c0.3,0.2,0.6,0.3,1,0.4
	c0.6,0.1,1.2,0.1,1.8-0.1c0.7-0.2,1.4-0.4,2.1-0.4c0.2,0,0.4,0,0.6-0.1c1.2-0.1,2.1,0.5,3,1.2c0,0,0.1,0,0.1,0c0,0,0.1,0,0.1-0.1
	c0.8-0.7,1.5-1.5,2.5-2c1.8-0.9,3.7,0.7,7,2.3c6.8,3.3,8.8,1.3,12,4.1c1.6,1.4,2.4,4.1,4.1,9.4c2.3,7.4,3.4,11.1,2.3,14.6
	c-1.1,3.6-2.8,2.8-5.3,7.9c-2.7,5.7-1.8,8.9-4.4,10.2c-2,1-5.2,0.4-6.4-1.5c-2.1-3.1,3.3-7.4,1.5-12.3c-1.1-3-4.6-5.3-6.7-4.7
	c-2.4,0.7-2.6,5-4.1,5C559.1,193.6,558.2,190.4,558.1,189.9z"/>
<path fill="#FCB51F" d="M574.8,210.9c-4.5-5-22.8,0.2-24.6,8.2c-0.7,3.3,1.9,4.7,1.2,8.5c-1.1,5.5-7.2,5.2-11.7,10.8
	c-6.4,8,0.2,15.9-7,29.2c-1.5,2.9-2.8,5.3-5.6,7.6c-6.2,5.4-12,3.5-15.2,8.5c-2.4,3.7-1.4,8.3-1.2,9.4c0.9,4.4,3.5,5.5,5.3,9.1
	c3,6-0.4,10.4-0.6,17.5c-0.2,9,4.5,21.4,14,25.4c10.7,4.6,23.6-3,29.8-10.5c3.7-4.5,4.8-8.6,6.4-13.7c7.3-22.8,11.4-20.8,17-38.9
	c6.4-20.7,7.6-44.9,0-52.6c-1-1-3.8-3.4-5.6-7.6C574.7,216,576.8,213.2,574.8,210.9L574.8,210.9z"/>
<path id="uuid-91308677-eda7-42a2-9f2e-a07e84038198-287" fill="#F6BB9B" d="M505.6,327.2c-2.5,2.6-3.1,6.9-1.8,10.1
	c1.8,4.5,7.1,5.4,11.1,3.6c3.3-1.5,4.8-3.9,5.1-7.5c0.1-1.2,0.1-2.4,0.6-3.5c0.4-0.8,1.2-1.5,1.8-2.3c1.2-1.5,2.3-3,3.5-4.6
	c2.4-3.2,4.8-6.4,7.3-9.5c0.6-0.7,1.1-1.5,1.7-2.2c0,0-7.5-5.7-7.5-5.7c-3.6,4.5-7.2,8.9-10.8,13.4c-1.1,1.3-2.1,2.7-3.2,4
	c-1,1.2-2.2,1.5-3.7,1.8C508.2,325.2,506.8,326,505.6,327.2z"/>
<path fill="#FCB51F" d="M561.5,230.2c-0.6-0.1-6.3-1.3-10.8,2.1c-5.1,4-4.9,11.1-4.8,13.6c0.2,5.8,2.5,6.7,3.8,12.4
	c2.5,10.6-2.3,20.5-4.9,25.9c-0.9,1.9-3.9,7.7-9.8,13.9c-6.4,6.8-12.5,11.8-16.5,14.9c-2.5,1.9-2.7,5.7-0.3,7.8l4.9,4.3
	c0.8,0.7,1.9,0.9,2.9,0.6c4.6-1.6,18-6.7,27.6-15.5c12.1-10.9,30.8-49.6,34.7-59c0.3-0.8-4.4,12.4-13.4-6.9
	C572.9,239.9,569.2,231.9,561.5,230.2L561.5,230.2z"/>
<g>
	<path fill="#FCB51F" d="M283.6,219.9l7.5-3.5c0.8-0.4,1.7,0.5,1.2,1.3c-4.2,6.7-7.7,15.7-10,23.4c-0.2,0.8-1.3,0.9-1.7,0.2
		c-3.7-7.2-8.9-15.4-14.3-21.2c-0.6-0.7,0-1.7,0.9-1.5l8.1,2.1c1.2,0.3,2.3-0.8,2-2c-9.3-40.4-40.8-69.1-76.7-69.1l-0.5-1.5
		c37.5-0.1,70.9,28.2,80.4,70.2C280.8,219.8,282.4,220.5,283.6,219.9z"/>
	<path fill="#FCB51F" d="M220.9,284.7h82.7c3.5,0,6.4-2.9,6.4-6.4s-2.9-6.4-6.4-6.4h-82.7c-3.5,0-6.4,2.9-6.4,6.4
		S217.3,284.7,220.9,284.7L220.9,284.7z"/>
	<path fill="#FCB51F" d="M110.9,284.7h82.7c3.5,0,6.4-2.9,6.4-6.4s-2.9-6.4-6.4-6.4h-82.7c-3.5,0-6.4,2.9-6.4,6.4
		S107.3,284.7,110.9,284.7L110.9,284.7z"/>
</g>
<g>
	<path fill="#3F3D56" d="M159.8,111.7h80.4c2,0,3.7-1.6,3.7-3.7s-1.6-3.7-3.7-3.7h-80.4c-2,0-3.7,1.6-3.7,3.7
		S157.8,111.7,159.8,111.7z"/>
	<path fill="#3F3D56" d="M116.7,150.9h166.6c2,0,3.7-1.6,3.7-3.7s-1.6-3.7-3.7-3.7H116.7c-2,0-3.7,1.6-3.7,3.7
		C113,149.3,114.6,150.9,116.7,150.9z"/>
</g>
<path fill="#3F3D56" d="M432.5,222.3c0.1,0,0.3,0,0.4,0c8.4-0.5,37-4.6,54.1-34.1c1.4-2.4,1.1-5.5-0.7-7.7l-31.7-37.7
	c-1.3-1.5-3.3-2.4-5.3-2.4c-1.4,0-4.7,0.4-5.4,2.9c-3.8,15.1-19.9,32.8-39.2,35.2c-2,0.2-3.5,2-4.2,4.7c-0.5,2.1,0,4.2,1.3,5.9
	l25.4,30.8C428.6,221.4,430.5,222.3,432.5,222.3L432.5,222.3z M449.5,141.8c1.5,0,3.1,0.7,4,1.9l31.7,37.7c1.4,1.7,1.6,4.1,0.5,6
	c-16.7,28.9-44.7,32.9-52.9,33.4c-1.7,0.1-3.3-0.6-4.3-1.9l-25.4-30.8c-1.1-1.3-1.4-3-1-4.6s1.4-3.3,2.9-3.5
	c20-2.4,36.5-20.8,40.5-36.3C445.8,142.4,447.7,141.9,449.5,141.8L449.5,141.8L449.5,141.8z"/>
<path fill="#FCB51F" d="M468.3,185.2l-19.2-19.6c-1.3-1.3,0.7-3.4,2.1-2.1l19.2,19.6C471.7,184.5,469.7,186.6,468.3,185.2
	L468.3,185.2z"/>
<path fill="#FCB51F" d="M454.1,195.9c-6.3-5.6-11.8-12.2-16.3-19.4c-1.2-1.9,1.8-3.6,3-1.7c4.3,6.9,9.6,13.2,15.7,18.7
	C458.2,195,455.8,197.4,454.1,195.9L454.1,195.9L454.1,195.9z"/>
<path fill="#FCB51F" d="M441.7,203.8c-5.7-6.4-10.6-13.4-14.5-21.1c-1-2,2-3.7,3-1.7c3.7,7.4,8.4,14.3,13.9,20.4
	C445.6,203,443.2,205.4,441.7,203.8L441.7,203.8z"/>
<g>
	<ellipse fill="#253847" cx="451.5" cy="139.4" rx="23" ry="22.5"/>
	<path fill="#253847" d="M439.5,150c3.5-8.7,7.1-17.4,10.6-26.1c0.5-1.2,2-1.2,2.5,0c3.5,9.1,5.8,18.6,6.9,28.3
		c0.2,1.7-2.4,1.6-2.6,0c-0.4-3.8-1.1-7.6-1.9-11.3c-2.9,0.2-5.9-0.2-8.7-1c-1.5,3.6-2.9,7.1-4.4,10.7
		C441.4,152.3,438.9,151.6,439.5,150z M454.4,138.4c-0.9-3.6-1.9-7.1-3.1-10.6l-4,9.8C449.7,138.2,452,138.5,454.4,138.4z"/>
</g>
<path fill="#6DC6AA" d="M446.6,149.9c-0.3,0-0.5,0-0.8-0.1c-0.1,0-0.2,0-0.3-0.1c-1.1-0.3-2.1-1.1-2.6-2.2c-0.5-1.2-0.5-2.5,0-3.7
	l5.8-12.1l1.5,0.7l-5.8,12c-0.3,0.7-0.3,1.5,0,2.2c0.3,0.7,0.8,1.1,1.5,1.3c0.1,0,0.1,0,0.2,0c1.1,0.2,2.3-0.4,2.8-1.5l2.9-6.4
	l1.5,0.7l-2.9,6.4C449.8,148.9,448.2,149.9,446.6,149.9L446.6,149.9z"/>
<path fill="#FAB41A" d="M444.1,134.6l-1-0.5c-1.7-0.8-2.7-2.7-2.2-4.5c0-0.1,0-0.1,0.1-0.2l0-0.1c0.3-1.1,1.1-2,2.2-2.4
	c1.1-0.5,2.3-0.5,3.4,0l9.5,4.3l-0.7,1.5l-9.5-4.3c-0.6-0.3-1.3-0.3-2,0c-0.6,0.3-1,0.8-1.2,1.4l0,0c0,0.1,0,0.1,0,0.2
	c-0.2,1,0.3,2.1,1.3,2.6l0,0l1,0.5L444.1,134.6L444.1,134.6z"/>
<path fill="#FAB419" d="M462.6,142.5c-0.6,0-1.2-0.1-1.8-0.4l-10.6-4.8l0.8-1.7l10.6,4.8c0.9,0.4,2.1,0.2,2.8-0.4l0,0
	c0,0,0.1-0.1,0.1-0.1l0,0c0.5-0.6,0.7-1.3,0.6-2c-0.2-0.8-0.7-1.5-1.4-1.8l-1.7-0.8l0.8-1.7l1.7,0.8c1.3,0.6,2.2,1.7,2.5,3.1
	c0.3,1.3-0.1,2.7-1.1,3.7c-0.1,0.1-0.1,0.1-0.2,0.2C464.8,142.1,463.7,142.5,462.6,142.5L462.6,142.5z"/>
<circle fill="#6CC5A9" cx="458.7" cy="133.5" r="1.6"/>
</svg>
