<?xml version="1.0" encoding="utf-8"?>
<!-- Generator: Adobe Illustrator 27.0.1, SVG Export Plug-In . SVG Version: 6.00 Build 0)  -->
<svg version="1.1" id="Layer_1" xmlns="http://www.w3.org/2000/svg" xmlns:xlink="http://www.w3.org/1999/xlink" x="0px" y="0px"
	 viewBox="0 0 774 475.1" enable-background="new 0 0 774 475.1" xml:space="preserve">
<path fill="#065452" d="M647.8,389.5H126.2c-11.2,0-20.2-9.1-20.2-20.2v-62.8h562v62.8C668,380.4,658.9,389.5,647.8,389.5z"/>
<rect x="321.5" y="379" fill="#065452" width="133" height="95"/>
<path fill="#065452" d="M318.1,462h139.7c2.6,0,4.6,2.1,4.6,4.6v2.7c0,2.6-2.1,4.6-4.6,4.6H318.1c-2.6,0-4.6-2.1-4.6-4.6v-2.7
	C313.5,464.1,315.6,462,318.1,462z"/>
<path fill="#07615E" d="M667.5,333H106V13.9C106,6.2,112.2,0,119.9,0h533.7c7.7,0,13.9,6.2,13.9,13.9L667.5,333L667.5,333z"/>
<circle fill="#FFFFFF" cx="388" cy="7.5" r="4"/>
<rect x="119" y="14.5" fill="#FFFFFF" width="535" height="301"/>
<ellipse transform="matrix(0.1602 -0.9871 0.9871 0.1602 267.6855 676.8267)" fill="#314A5B" cx="531.6" cy="181.1" rx="45.6" ry="45.6"/>
<polygon fill="#965E45" points="131,189.7 125.2,209.8 148.2,211.3 146.8,187.5 "/>
<polygon opacity="0.1" enable-background="new    " points="131,189.7 125.2,209.8 148.2,211.3 146.8,187.5 "/>
<path id="uuid-a6c07e27-609a-42c1-9803-308006772003-290" fill="#965E45" d="M227.6,275.4c2.9,1,6.3,0.8,8.7-0.8
	c2.6-1.7,3.7-4.9,3.3-7.9c-0.3-1.8-1.1-3.5-2.3-4.8c-1.1-1.3-3.6-3.4-5.4-3.4c-4.9,0-26.1-5.4-31.1-7.3l-3.3,11
	c6.4,1.7,12.8,3.5,19.3,5.2c1.3,0.4,3.2,0.5,4.2,1.4c0.4,0.3,0.6,0.7,0.9,1.1c0.8,1.3,1.4,2.6,2.4,3.7
	C225.3,274.3,226.4,274.9,227.6,275.4z"/>
<path fill="#42B2AA" d="M149.5,205.4c0,0-14.4,17.4-6.1,24.5c5.5,4.8,24,18.3,35.7,26.7c6.5,4.7,14,7.8,21.8,9h0.2
	c1.3,0.2,2.6-0.6,3-1.9l2.6-9.9c0.3-1.1-0.1-2.2-1-2.8C190.2,239.9,162.2,217.8,149.5,205.4L149.5,205.4z"/>
<polygon fill="#965E45" points="187.7,390.2 195.7,419.9 208.5,417.5 205.6,386.9 "/>
<path fill="#314A5B" d="M197.6,417c-1.7,0.3-2.8,1.8-3.8,3c-1.7,2.2-3.4,4.7-3.3,7.6c0.1,2.7,1.8,4.3,3.2,6.4
	c1.2,1.9,1.3,4.4,2.2,6.5c0.9,2.3,2.6,3.7,5,4.3c4,0.9,8.1,0.4,12.1,0c2.7-0.2,4.4-0.4,4.4-3.5s-1.4-6.4-2.3-9.2
	c-0.9-2.8-1.8-5.6-2.7-8.4c-0.4-1.3-0.9-2.5-1.3-3.8c-0.2-0.6-0.8-1.6-0.8-2.2C211,406.4,199.3,410.1,197.6,417z"/>
<polygon fill="#965E45" points="144.6,389.7 145.1,420.5 158.1,421.3 162.8,390.9 "/>
<path fill="#314A5B" d="M147.2,418.8c-0.7,0.4-1.4,0.7-2.3,1.2c-1.5,0.8-2.8,1.7-4,2.9c-1.4,1.3-2.5,3-2.8,4.9
	c-0.5,3.6,1.8,7.1,1.9,10.7c0.1,2.3-0.2,4.7,1.3,6.5c1.4,1.8,3.8,2.7,5.9,3.3c3.2,0.8,6.6,1.6,9.9,1.9c2.2,0.2,3.3-0.9,3.6-3.1
	c0.6-5.1-0.1-10.4-0.4-15.5c-0.2-3.2-1-6.7-0.3-9.9c0.6-2.6,0.2-5.6-2.5-6.8c-1.5-0.7-3.3-0.6-4.8,0c-1.6,0.5-3.1,1.5-4.2,2.8
	C148,418.2,147.6,418.5,147.2,418.8z"/>
<path fill="#314A5B" d="M121.2,285c0,0-6,22.3-3.4,31.7c1.9,6.8,15.4,32.7,21.3,42.7c1.5,2.6,2.3,5.7,2,8.7v32.7
	c-0.2,2.7,2.1,5,4.8,4.8l13.6-1.1c2.2-0.2,3.9-2,4.1-4.2c2.2-38.3-5.2-70-8.2-81c-0.3-0.9,0.9-1.5,1.6-0.8l14.8,23.2
	c2.3,2.8,3.8,6.1,4.4,9.7l10,45.3c0.4,2.4,2.6,4,4.9,3.7l13.8-1.7c2.5-0.3,4.2-2.6,3.8-5.1l-9.9-62.8c-1.4-8.5-4.1-16.7-8-24.3
	l-8.4-16.7L121.2,285z"/>
<path fill="#42B2AA" d="M129.3,202.5c-1.8-0.1-3.6,0.6-4.7,2l-4.6,4.8c0,0-2.7,50.7-0.7,55.8c1.3,3.3-0.7,16.1-2.2,24.7
	c-0.7,4.1,2.6,7.9,6.9,7.6l54.3-3c5.3-0.4,8.6-5.7,6.6-10.4l-8-18.9c-2.1-5-3.1-10.3-3-15.7l0.1-3.9c0.1-5.8-1.5-11.4-4.8-16.3
	l-8.6-12.7c-1.4-2.1-2.7-4.2-4-6.3c-1.2-2-2.5-4.7-4.7-5.8c-2.1-1-5.1-0.7-7.4-0.9c-2.2-0.2-4.5-0.3-6.7-0.5
	C135,202.9,132.2,202.7,129.3,202.5z"/>
<path fill="#EDC798" d="M119,159.3c11.3-0.2,11.3,17.7,0,17.5C107.6,177,107.6,159.2,119,159.3z"/>
<path fill="#965E45" d="M139.2,162.4c25,0.4,25,37.7,0,38.1C114.1,200.1,114.1,162.8,139.2,162.4z"/>
<path fill="#EDC798" d="M133.1,202.3c-2,1.1-7.7-2.9-9.8-8.1c-1.3-3.4-4.5-2.8-6.5-7.1c-1.2-2.5,2.4-4.9,1.8-7
	c-1.1-3.9,0.3-7.3,0.4-7.7c1.5-3.7,3.6-3.6,5.3-7.8c1-2.6,0.4-2.9,1.3-4.2c2.5-3.8,9.9-3.9,15.1-2.1c1.8,0.6,6.1-2.7,9.6-0.3
	c4.1,2.8,6.9,11,6.2,12.5c-0.4,0.9-2.5,0-7,0.7c-4.1,0.6,1.3,3.7-3.3,4.8c-5.5,1.2-7.1,0.1-8.6,1.8c-1.6,1.8-1.9,5.5-0.4,7.7
	c0.7,1.1,1.7,1.5,1.5,2.2c-0.2,1.4-1.4,0.6-1.9,2.1c-0.5,1.7,1.6,2.8,1.3,3.3c0,0.4-0.7,0.6-2.6-0.2c-1.3-0.5-2.9,0.4-2.9,1.8
	c0,0.7,0.1,1.5,0.7,1.9c2.4,2,0.7,2.8,1.8,4.4C136.4,202.8,134.4,201.7,133.1,202.3L133.1,202.3z"/>
<path id="uuid-cdcc4a7b-c7e9-4136-bdd1-e7c84b73eb6c-291" fill="#965E45" d="M134.5,311.8c0.2,0.6,0.6,1.3,1.1,1.9
	c2,2.6,5.8,3.9,9,3c5.4-1.4,8.3-8.4,5.5-13.2c-1.5-2.6-4-2.9-6.4-4.3c-2.8-1.6-4.5-5.7-6.2-8.4c-2.1-3.3-4.2-6.7-6.4-10
	c-0.6-0.9-1.2-1.8-1.7-2.7l-9.6,6.4c4.1,5.7,8,11.6,12.1,17.2c0.9,1.2,1.8,2.1,1.9,3.7C134.1,307.7,133.8,309.7,134.5,311.8z"/>
<path fill="#42B2AA" d="M121.9,207.4c0,0-14,2.8-17.3,16.8c-2,8.7,4.2,36.9,8,51.4c1.5,5.8,4.2,11.2,7.8,15.9l6.6,8.6
	c1.1,1.5,3.2,1.8,4.7,0.7l8.1-6c1.2-0.9,1.7-2.3,1.3-3.7C135.2,270.3,123.9,226.6,121.9,207.4L121.9,207.4z"/>
<path fill="#FFFFFF" d="M444.4,268.7H241.3c-8.2,0-14.8-6.7-14.8-14.8V100.3c0-8.2,6.7-14.8,14.8-14.8h203.1
	c8.2,0,14.8,6.7,14.8,14.8v153.6C459.2,262.1,452.6,268.7,444.4,268.7L444.4,268.7z"/>
<path fill="#3F3D56" d="M444.4,268.7H241.3c-8.2,0-14.8-6.7-14.8-14.8V100.3c0-8.2,6.7-14.8,14.8-14.8h203.1
	c8.2,0,14.8,6.7,14.8,14.8v153.6C459.2,262.1,452.6,268.7,444.4,268.7L444.4,268.7z M241.3,88c-6.8,0-12.3,5.5-12.3,12.3v153.6
	c0,6.8,5.5,12.3,12.3,12.3h203.1c6.8,0,12.3-5.5,12.3-12.3V100.3c0-6.8-5.5-12.3-12.3-12.3H241.3z"/>
<circle fill="#3F3D56" cx="422.1" cy="100.4" r="3.7"/>
<circle fill="#3F3D56" cx="432" cy="100.4" r="3.7"/>
<circle fill="#3F3D56" cx="441.9" cy="100.4" r="3.7"/>
<path fill="#908D8D" d="M247.5,160.4c-1,0-1.9,0.8-1.9,1.9c0,0.5,0.2,1,0.5,1.3c0.4,0.4,0.8,0.6,1.3,0.6h191.9c1,0,1.9-0.8,1.9-1.9
	c0-0.5-0.2-1-0.5-1.3c-0.4-0.4-0.8-0.6-1.3-0.6H247.5z"/>
<path fill="#53E0DC" d="M404.7,159.8v5H247.5c-0.7,0-1.3-0.3-1.7-0.7c-0.5-0.4-0.7-1.1-0.7-1.7c0-1.4,1.1-2.5,2.5-2.5L404.7,159.8
	L404.7,159.8z"/>
<path fill="#908D8D" d="M436.3,150.5h-24.8c-2.7,0-5-2.2-5-5s2.2-5,5-5h24.8c2.7,0,5,2.2,5,5S439,150.5,436.3,150.5z"/>
<path fill="#908D8D" d="M274.1,124.5h-24.8c-2.7,0-5-2.2-5-5s2.2-5,5-5h24.8c2.7,0,5,2.2,5,5S276.9,124.5,274.1,124.5z"/>
<path fill="#908D8D" d="M247.5,196.1c-1,0-1.9,0.8-1.9,1.9c0,0.5,0.2,1,0.5,1.3c0.4,0.4,0.8,0.6,1.3,0.6h191.9c1,0,1.9-0.8,1.9-1.9
	c0-0.5-0.2-1-0.5-1.3c-0.4-0.4-0.8-0.6-1.3-0.6H247.5z"/>
<path fill="#53E0DC" d="M309.4,195.5v5h-61.9c-0.7,0-1.3-0.3-1.7-0.7c-0.5-0.4-0.7-1.1-0.7-1.7c0-1.4,1.1-2.5,2.5-2.5L309.4,195.5
	L309.4,195.5z"/>
<path fill="#908D8D" d="M436.3,186.2h-24.8c-2.7,0-5-2.2-5-5s2.2-5,5-5h24.8c2.7,0,5,2.2,5,5S439,186.2,436.3,186.2z"/>
<path fill="#53E0DC" d="M520.6,209.6c-0.6,0-1.2-0.1-1.9-0.2c-0.2,0-0.4-0.1-0.6-0.1c-2.6-0.7-4.7-2.5-5.9-5c-1.2-2.6-1.2-5.6,0-8.3
	l13-27.2l3.4,1.6l-13,27.2c-0.7,1.6-0.7,3.4,0,5c0.7,1.5,1.9,2.5,3.4,3c0.1,0,0.2,0.1,0.4,0.1c2.6,0.5,5.2-0.9,6.4-3.4l6.6-14.4
	l3.5,1.6l-6.6,14.4C527.8,207.4,524.3,209.6,520.6,209.6L520.6,209.6z"/>
<path fill="#FAB41A" d="M514.9,175l-2.3-1.2c-3.9-1.8-6-6.1-5-10.2c0-0.2,0.1-0.3,0.1-0.5V163c0.7-2.4,2.5-4.4,4.9-5.5
	c2.4-1.1,5.2-1.1,7.6,0l21.5,9.8l-1.6,3.5l-21.5-9.8c-1.4-0.6-3-0.7-4.4,0c-1.4,0.6-2.4,1.7-2.8,3.1v0.1c0,0.1-0.1,0.3-0.1,0.4
	c-0.6,2.3,0.7,4.8,3,5.8h0.1l2.3,1.2L514.9,175L514.9,175z"/>
<path fill="#FAB419" d="M555.9,192.8c-1.3,0-2.6-0.3-3.8-0.8l-21.7-9.7l1.6-3.5l21.7,9.7c1.9,0.9,4.3,0.5,5.7-0.9l0,0
	c0.1-0.1,0.2-0.1,0.2-0.2l0,0c1.1-1.1,1.5-2.7,1.2-4.2c-0.3-1.6-1.4-3-3-3.7l-3.5-1.6l1.6-3.5l3.5,1.6c2.7,1.2,4.6,3.6,5.1,6.4
	c0.5,2.7-0.2,5.5-2.2,7.5c-0.1,0.2-0.3,0.3-0.4,0.4C560.4,192,558.2,192.8,555.9,192.8L555.9,192.8z"/>
<circle fill="#53E0DC" cx="548" cy="172.6" r="3.7"/>
<path fill="#908D8D" d="M247.5,233.1c-1,0-1.9,0.8-1.9,1.9c0,0.5,0.2,1,0.5,1.3c0.4,0.4,0.8,0.6,1.3,0.6h191.9c1,0,1.9-0.8,1.9-1.9
	c0-0.5-0.2-1-0.5-1.3c-0.4-0.4-0.8-0.6-1.3-0.6H247.5z"/>
<path fill="#53E0DC" d="M428.3,232.5v5H251.9c-2,0-3.7-0.3-4.8-0.7c-1.4-0.4-2-1.1-2-1.7c0-1.4,3.1-2.5,7.1-2.5L428.3,232.5
	L428.3,232.5z"/>
<path fill="#908D8D" d="M436.3,223.2h-24.8c-2.7,0-5-2.2-5-5s2.2-5,5-5h24.8c2.7,0,5,2.2,5,5S439,223.2,436.3,223.2z"/>
<path fill="none" stroke="#065452" stroke-width="0.75" stroke-linecap="round" stroke-miterlimit="10" d="M125,162"/>
<path fill="none" stroke="#065452" stroke-width="0.75" stroke-linecap="round" stroke-miterlimit="10" d="M118.2,176.4"/>
</svg>
