<svg width="380" height="437" viewBox="0 0 380 437" fill="none" xmlns="http://www.w3.org/2000/svg">
<g clip-path="url(#clip0_1329_25092)">
<path d="M213.131 124.477C219.157 121.463 222.436 115.966 220.575 112.154C218.626 108.341 212.245 107.632 206.219 110.647C203.826 111.799 201.699 113.572 200.104 115.7L174.848 128.733L181.228 140.436L205.51 126.339C208.08 126.339 210.739 125.719 213.131 124.477Z" fill="#FFB6B6"/>
<path d="M69.832 428.134H81.8843L87.5559 381.677H69.832V428.134Z" fill="#FFB6B6"/>
<path d="M111.041 427.868C111.395 428.489 111.572 430.528 111.572 431.237C111.572 433.454 109.711 435.315 107.496 435.315H70.2758C68.7693 435.315 67.5286 434.074 67.5286 432.567V430.971C67.5286 430.971 65.6676 426.272 69.4782 420.509C69.4782 420.509 74.175 425.031 81.2646 417.938L83.3028 414.126L98.3681 425.12L106.698 426.184C108.559 426.538 110.155 426.272 111.041 427.868Z" fill="#253847"/>
<path d="M88.707 377.067L99.43 382.563L125.839 343.908L110.064 335.751L88.707 377.067Z" fill="#FFB6B6"/>
<path d="M125.485 395.774C125.485 396.483 124.776 398.433 124.422 399.054C123.358 401.093 120.877 401.802 118.927 400.827L85.7835 383.716C84.4542 383.007 83.9225 381.322 84.6315 379.992L85.3404 378.574C85.3404 378.574 85.8721 373.609 91.8982 370.24C91.8982 370.24 94.0251 376.446 103.507 373.431L107.052 371.038L115.382 387.706L122.295 392.493C123.801 393.38 125.396 393.912 125.485 395.774Z" fill="#253847"/>
<path d="M59.5524 67.6466L88.7081 66.8486L89.3285 77.3104L110.509 138.662L114.408 179.534L74.7949 185.474L56.2734 109.76L60.2613 74.9166L59.5524 67.6466Z" fill="#53E0DC"/>
<path d="M59.5528 67.647L26.0547 84.4035L46.6144 153.912L42.7151 224.751C42.7151 224.751 95.4437 241.507 92.8737 193.809C90.3038 146.11 90.3038 138.485 90.3038 138.485L59.5528 67.647Z" fill="#253847"/>
<path d="M112.902 76.3356C112.902 76.3356 121.233 70.2181 125.132 79.2613C129.031 88.3045 154.11 133.964 154.11 133.964L193.369 116.587L199.838 130.772C199.838 130.772 167.669 161.714 148.35 157.813C129.031 153.912 113.611 120.488 113.611 120.488L112.902 76.3356Z" fill="#253847"/>
<path d="M46.6136 211.895C46.6136 211.895 45.2843 232.464 47.9429 249.22C50.6014 265.977 67.8822 408.274 67.8822 408.274L89.7712 406.944L91.7209 240.177L122.649 289.117L95.6201 362.526L114.319 370.86L153.577 290.358L126.548 198.951L118.838 175.811L60.8813 182.283L46.6136 211.895Z" fill="#253847"/>
<path d="M132.928 217.037C132.928 217.037 98.1893 227.321 90.4794 138.485L88.707 66.8486L121.319 75.3599L117.42 139.726L132.928 217.037Z" fill="#253847"/>
<path d="M73.6414 50.8903C86.4155 50.8903 96.771 40.5302 96.771 27.7503C96.771 14.9705 86.4155 4.61035 73.6414 4.61035C60.8672 4.61035 50.5117 14.9705 50.5117 27.7503C50.5117 40.5302 60.8672 50.8903 73.6414 50.8903Z" fill="#FFB6B6"/>
<path d="M58.8444 50.2699C58.8444 50.2699 48.5645 38.6555 47.2352 33.5133C45.906 28.3711 45.906 14.1857 47.2352 12.9444C48.5645 11.7032 62.655 -1.24098 67.795 0.0888995C72.9349 1.41878 83.1261 7.80223 92.2539 7.80223C94.8239 7.80223 96.1532 20.6578 96.1532 20.6578L85.8733 21.9877C85.8733 21.9877 73.0235 15.5156 74.2642 21.9877C75.5048 28.4598 65.225 28.4598 65.225 28.4598L66.5543 33.602L62.655 34.9319L60.0851 29.7896C60.0851 29.7896 61.4144 41.404 65.225 46.5462C69.0356 51.6884 58.8444 50.2699 58.8444 50.2699Z" fill="#253847"/>
<path d="M48.6506 235.656C52.1954 241.33 57.9556 244.167 61.589 241.95C65.2224 239.734 65.311 233.262 61.7663 227.499C60.3484 225.194 58.4873 223.243 56.1832 221.825L40.9407 197.798L29.8633 205.246L46.0806 228.208C46.2579 230.868 47.1441 233.439 48.6506 235.656Z" fill="#FFB6B6"/>
<path d="M31.1956 84.4033H24.815C24.815 84.4033 -0.884654 142.386 0.356018 153.912C0.356018 153.912 0.356017 164.196 6.82523 171.91C13.2945 179.623 40.3234 223.421 40.3234 223.421L51.9325 214.377L28.8028 160.295L42.9819 103.642C42.8047 103.731 31.1956 84.4033 31.1956 84.4033Z" fill="#253847"/>
<path d="M379.291 435.316C379.291 435.759 378.937 436.025 378.582 436.025H0.708955C0.265858 436.025 0 435.67 0 435.316C0 434.872 0.354478 434.606 0.708955 434.606H378.582C379.025 434.606 379.291 434.961 379.291 435.316Z" fill="#E6E6E6"/>
<path d="M240.07 164.994C237.057 164.994 234.132 163.753 232.005 161.537C218.624 147.263 211.18 128.644 211.18 109.051C211.18 92.7374 216.231 77.1334 225.802 64.0119C227.663 61.4408 230.587 59.7563 233.866 59.579C237.145 59.313 240.335 60.5542 242.64 62.8594L281.544 102.224C285.443 106.125 285.797 112.42 282.43 116.853L248.843 160.739C246.805 163.31 243.792 164.906 240.513 165.083C240.424 164.994 240.247 164.994 240.07 164.994Z" fill="#FCB51F"/>
<path d="M302.014 187.957C290.05 187.957 278.53 185.297 267.807 180.066C263.907 178.204 261.16 174.658 260.097 170.402C259.122 166.147 260.008 161.802 262.667 158.345L290.67 121.729C295.81 115.079 295.19 105.593 289.252 99.5638L260.54 70.5723C256.375 66.4053 254.514 60.6425 255.4 54.791C256.286 48.9395 259.742 43.9746 264.971 41.1375C276.757 34.7541 290.139 31.5624 303.609 31.8283C344.197 32.7149 377.695 65.0755 379.822 105.593C380.974 127.225 373.352 147.794 358.553 163.487C343.753 179.357 323.637 187.957 302.014 187.957ZM302.102 34.5768C289.607 34.5768 292.62 46.4571 281.72 52.3086C277.2 54.7024 258.945 50.2694 258.236 55.2343C257.527 60.1992 259.122 65.1641 262.667 68.7105L291.379 97.702C298.203 104.617 298.912 115.611 292.975 123.324L264.971 159.941C262.844 162.778 262.046 166.324 262.844 169.782C263.641 173.239 265.946 176.076 269.136 177.672C279.504 182.726 290.582 164.905 302.191 164.905C323.016 164.905 342.424 176.963 356.869 161.802C371.225 146.642 378.581 126.782 377.429 105.859C375.391 66.6713 343.044 35.3747 303.786 34.5768C303.166 34.5768 302.634 34.5768 302.102 34.5768Z" fill="#F8F8F8"/>
<path d="M307.156 110.292C305.649 108.519 304.852 105.947 304.852 102.49C304.852 99.1208 305.649 96.5496 307.156 94.7765C308.662 93.0033 310.789 92.1167 313.448 92.1167C316.195 92.1167 318.322 93.0033 319.828 94.7765C321.335 96.5496 322.132 99.1208 322.132 102.49C322.132 105.947 321.335 108.519 319.828 110.292C318.322 112.065 316.195 112.952 313.448 112.952C310.789 112.952 308.662 112.065 307.156 110.292ZM316.195 107.543C316.727 106.479 317.081 104.884 317.081 102.49C317.081 100.185 316.815 98.5888 316.195 97.5249C315.575 96.461 314.688 95.929 313.448 95.929C312.296 95.929 311.409 96.461 310.789 97.5249C310.257 98.5888 309.903 100.185 309.903 102.49C309.903 104.795 310.169 106.479 310.789 107.455C311.321 108.519 312.207 109.051 313.448 109.051C314.688 109.051 315.575 108.519 316.195 107.543ZM315.752 122.083L332.855 92.56C335.248 92.56 336.666 95.1311 335.514 97.1703L318.41 126.694C316.018 126.694 314.6 124.123 315.752 122.083ZM331.437 124.3C329.931 122.527 329.133 119.956 329.133 116.498C329.133 113.129 329.931 110.558 331.437 108.785C332.944 107.011 335.071 106.125 337.818 106.125C340.565 106.125 342.603 107.011 344.199 108.785C345.705 110.558 346.503 113.129 346.503 116.498C346.503 119.956 345.705 122.527 344.199 124.3C342.692 126.073 340.565 126.96 337.818 126.96C335.071 126.96 332.944 126.073 331.437 124.3ZM340.477 121.551C341.008 120.488 341.363 118.803 341.363 116.587C341.363 114.281 341.097 112.686 340.477 111.622C339.856 110.558 338.97 110.026 337.818 110.026C336.577 110.026 335.691 110.558 335.159 111.622C334.628 112.686 334.273 114.281 334.273 116.587C334.273 118.892 334.539 120.576 335.159 121.551C335.691 122.615 336.666 123.147 337.818 123.147C338.97 123.147 339.856 122.615 340.477 121.551Z" fill="#0B1A27"/>
</g>
<defs>
<clipPath id="clip0_1329_25092">
<rect width="380" height="437" fill="white"/>
</clipPath>
</defs>
</svg>
