<svg width="438" height="359" viewBox="0 0 438 359" fill="none" xmlns="http://www.w3.org/2000/svg">
<g clip-path="url(#clip0_1329_25111)">
<path d="M385.838 267.69H380.859V282.461H385.838V267.69Z" fill="#F2F2F2"/>
<path d="M411.131 279.064H355.571C351.461 279.064 348.062 275.747 348.062 271.56C348.062 267.453 351.382 264.057 355.571 264.057H411.131C415.24 264.057 418.639 267.374 418.639 271.56C418.56 275.747 415.24 279.064 411.131 279.064Z" fill="white"/>
<path d="M415.396 279.064C418.716 279.064 421.482 276.379 421.482 272.982V201.103C421.482 197.786 418.795 195.021 415.396 195.021C412.077 195.021 409.311 197.707 409.311 201.103C390.896 215.163 398.404 243.125 409.311 272.982C409.311 276.379 411.998 279.064 415.396 279.064Z" fill="white"/>
<path d="M407.966 247.469C407.176 251.181 405.595 254.025 403.62 256.316C399.668 260.976 394.057 263.109 389.631 264.056C385.679 264.925 382.597 264.846 382.597 264.846L363.945 266.347L349.166 267.532L334.308 268.717C335.177 272.271 335.968 276.379 336.758 280.723C336.837 281.276 336.916 281.75 336.995 282.303H306.883L306.409 280.723L303.327 271.086L297.004 257.343C295.819 255.131 295.266 252.682 295.266 250.234C295.266 248.575 295.503 246.995 296.056 245.415V245.336C297.241 241.703 300.245 238.859 303.959 237.754L308.464 236.411C321.109 233.488 338.892 228.828 352.406 225.273C363.708 222.272 372.086 219.981 372.086 219.981V219.823L374.457 203.868L397.771 201.814L405.358 201.182C405.358 201.182 405.2 201.972 405.279 204.816C405.279 204.974 405.279 205.211 405.279 205.368C405.279 205.921 405.279 206.553 405.358 207.264C405.358 207.501 405.358 207.738 405.358 207.975C405.358 208.449 405.437 209.002 405.437 209.555C405.437 209.634 405.437 209.634 405.437 209.713C405.516 210.424 405.516 211.214 405.595 212.003C405.595 212.319 405.674 212.714 405.674 213.03C405.833 214.847 405.991 216.901 406.228 219.191C406.228 219.428 406.228 219.665 406.307 219.902C406.307 220.297 406.386 220.613 406.386 221.008C406.465 221.64 406.544 222.351 406.623 223.062C406.623 223.141 406.623 223.22 406.623 223.299C406.702 223.931 406.781 224.563 406.86 225.194C406.939 225.905 407.018 226.616 407.097 227.406C407.176 227.88 407.176 228.433 407.255 228.986C407.255 229.223 407.334 229.539 407.334 229.776C407.334 230.092 407.413 230.329 407.413 230.645C407.492 231.119 407.571 231.671 407.571 232.224C407.729 233.409 407.887 234.594 408.045 235.858C408.836 240.439 408.678 244.231 407.966 247.469Z" fill="#747373"/>
<path d="M407.967 247.469L401.882 250.076L369.399 264.056L364.025 266.426L350.747 272.192C351.143 274.167 351.538 276.142 351.933 278.116C352.17 279.064 352.328 280.012 352.565 280.881C352.723 281.434 352.802 281.908 352.96 282.461H326.089L325.852 280.881L325.062 274.72C323.481 273.298 322.612 270.691 322.058 267.848C321.505 265.004 321.347 262.003 321.189 259.949V259.87C320.952 256 328.46 253.472 331.542 251.023L335.257 249.839C342.923 244.546 354.225 236.49 365.21 228.749C369.399 225.826 373.509 222.904 377.302 220.139C389.236 211.687 398.483 205.053 398.483 205.053L397.772 202.13L405.359 201.498C405.359 201.498 405.201 202.288 405.28 205.131C405.28 205.289 405.28 205.526 405.28 205.684C405.28 206.237 405.28 206.869 405.359 207.58C405.359 207.817 405.359 208.054 405.359 208.291C405.359 208.765 405.438 209.318 405.438 209.871C405.438 209.95 405.438 209.95 405.438 210.029C405.517 210.74 405.517 211.529 405.596 212.319C405.596 212.635 405.675 213.03 405.675 213.346C405.833 215.163 405.991 217.217 406.228 219.507C406.228 219.744 406.228 219.981 406.307 220.218C406.307 220.613 406.387 220.929 406.387 221.324C406.466 221.956 406.545 222.667 406.624 223.378C406.624 223.457 406.624 223.536 406.624 223.615C406.703 224.247 406.782 224.878 406.861 225.51C406.94 226.221 407.019 226.932 407.098 227.722C407.177 228.196 407.256 228.749 407.256 229.302C407.256 229.539 407.335 229.855 407.335 230.092C407.335 230.408 407.414 230.645 407.414 230.961C407.493 231.434 407.572 231.987 407.572 232.54C407.73 233.725 407.888 234.91 408.046 236.174C408.837 240.439 408.678 244.23 407.967 247.469Z" fill="#747373"/>
<path d="M412.788 209.476C414.053 214.768 413.5 218.402 413.025 223.615C412.867 225.511 413.5 228.275 411.603 229.539C410.022 230.645 352.881 230.092 352.328 225.669C351.696 220.692 352.881 215.4 355.331 210.898C359.757 202.762 362.286 192.731 363.551 185.622C366.317 170.693 360.152 162.557 362.444 147.708C362.84 145.18 362.919 142.81 362.84 140.441C362.523 132.463 360.073 125.67 360.864 118.798C361.18 115.954 362.049 113.111 363.867 110.188C364.42 109.319 364.973 108.451 365.685 107.503C369.794 102.289 370.822 98.4191 377.935 98.4191C379.041 98.4191 380.148 98.3401 381.333 98.2611C383.23 98.1821 385.127 98.1031 386.786 98.4191C390.817 99.1299 389.948 101.658 392.556 104.501L393.583 105.528C396.112 107.503 398.325 109.082 400.538 111.452C404.964 116.27 410.259 121.72 412.867 127.724C414.606 131.831 413.579 138.071 413.5 142.494C413.421 148.181 411.682 153 410.18 158.45C408.916 163.189 408.52 168.165 407.651 172.984C406.545 179.224 405.517 185.464 404.964 191.704C404.569 196.68 411.524 188.465 411.524 193.441C411.682 198.734 411.603 204.5 412.788 209.476Z" fill="#0B938E"/>
<path d="M313.838 114.058L331.462 117.218L331.067 127.486L312.574 123.458C312.099 123.774 311.546 123.932 310.914 124.09C307.674 124.801 304.512 122.747 303.801 119.509C303.09 116.27 305.144 113.111 308.385 112.4C310.361 112.005 312.415 112.716 313.838 114.058Z" fill="#FFB6B6"/>
<path d="M384.336 138.229C383.546 139.809 382.361 141.151 380.78 142.178C378.488 143.679 375.801 144.074 373.351 143.521C373.035 143.442 372.007 143.205 370.506 142.731C370.269 142.652 369.952 142.573 369.636 142.494C367.898 142.02 365.527 141.309 362.919 140.52C360.31 139.73 357.307 138.861 354.225 137.992C353.277 137.676 352.328 137.439 351.38 137.123C344.267 135.069 336.759 133.016 331.305 131.673C331.068 131.594 329.725 132.858 329.488 132.779C329.092 132.7 329.013 131.199 328.697 131.12C327.907 130.962 326.959 132.147 326.326 131.989C324.034 131.436 323.086 126.539 323.086 126.539L323.165 125.749L324.35 115.875V115.717L330.831 113.664L332.965 115.717L335.968 114.454L338.734 116.507L344.425 117.06L346.875 117.297H347.033L360.864 118.719L364.894 119.114C364.578 117.455 364.341 115.875 364.104 114.217C364.025 113.743 364.025 113.348 363.946 112.874C363.867 111.926 363.788 110.978 363.788 110.03C364.341 109.161 364.894 108.292 365.606 107.345C369.715 102.131 370.743 98.261 377.856 98.261C378.962 98.261 380.069 98.182 381.254 98.103L383.072 114.296L385.048 132.068L385.127 132.621C385.443 134.753 385.127 136.649 384.336 138.229Z" fill="#0B938E"/>
<path d="M350.114 108.924C349.245 108.292 348.06 108.134 347.032 108.608L316.288 122.115C313.522 123.379 310.361 123.537 307.358 122.747L306.884 122.589C308.148 111.215 304.908 99.0508 298.506 86.1758C297.716 86.0968 296.846 86.2548 296.214 86.8077C295.424 87.4396 294.95 88.3875 295.029 89.3353L295.977 124.959L296.293 136.807C289.259 145.18 286.73 152.921 296.925 158.924C296.925 160.029 297.558 161.056 298.585 161.53C299.533 162.083 300.719 162.083 301.667 161.53L302.3 161.135L310.756 172.984C311.309 172.747 311.942 172.668 312.495 172.668C313.285 172.668 314.155 172.905 314.866 173.299L330.198 182.146L340.631 188.149C341.579 188.702 342.685 188.702 343.634 188.228C344.582 187.754 345.214 186.806 345.293 185.701L345.61 182.146L346.558 170.456L348.139 151.183L348.929 141.941L349.087 140.598L351.458 111.768C351.537 110.662 351.063 109.635 350.114 108.924Z" fill="#F2F2F2"/>
<path d="M352.486 112.874C351.616 112.242 350.431 112.084 349.403 112.558C338.26 121.088 327.511 127.96 318.66 126.065C315.893 127.328 312.732 127.486 309.729 126.696L309.255 126.538C310.519 115.164 307.279 103 300.877 90.125C300.087 90.046 299.217 90.204 298.585 90.7569C297.795 91.3888 297.321 92.3367 297.4 93.2845L298.348 128.908L298.664 140.756C291.63 149.129 289.101 156.87 299.296 162.873C299.296 163.979 299.929 165.006 300.956 165.479C301.905 166.032 303.09 166.032 304.038 165.479L304.671 165.085L313.127 176.933C313.68 176.696 314.313 176.617 314.866 176.617C315.656 176.617 316.526 176.854 317.237 177.249L332.569 186.095L343.002 192.098C343.95 192.651 345.056 192.651 346.005 192.177C346.953 191.703 347.586 190.756 347.665 189.65L347.981 186.095L348.929 174.405L350.51 155.132L351.3 145.89L351.458 144.548L353.829 115.717C353.908 114.611 353.434 113.584 352.486 112.874Z" fill="#253847"/>
<path d="M346.838 128.907L323.262 134.637L323.598 136.018L347.174 130.288L346.838 128.907Z" fill="white"/>
<path d="M346.834 139.57L323.258 145.3L323.594 146.682L347.17 140.952L346.834 139.57Z" fill="white"/>
<path d="M323.065 153.586L323.035 155.007L347.293 155.518L347.323 154.097L323.065 153.586Z" fill="white"/>
<path d="M323.09 163.827L323.008 165.247L347.23 166.654L347.312 165.234L323.09 163.827Z" fill="white"/>
<path d="M321.948 173.998L321.723 175.402L345.68 179.245L345.906 177.841L321.948 173.998Z" fill="white"/>
<path d="M249.427 186.096H432.072C433.653 186.096 434.917 189.729 434.917 194.152V212.004C434.917 216.427 433.653 220.061 432.072 220.061H276.298C274.718 220.061 273.453 216.427 273.453 212.004L246.582 194.152C246.582 189.729 247.847 186.096 249.427 186.096Z" fill="white"/>
<path d="M380.621 72.0372C380.463 71.8002 380.384 71.6422 380.226 71.4053C380.068 71.1683 379.91 71.0103 379.831 70.7734C379.752 70.6944 379.673 70.6154 379.594 70.4574C378.883 69.5096 378.092 68.7987 377.302 68.4037C377.223 68.4037 377.223 68.3247 377.144 68.3247C376.986 68.2458 376.907 68.1668 376.749 68.1668C376.512 68.0878 376.275 68.0088 376.037 68.0088C375.879 68.0088 375.8 68.0088 375.642 68.0088C375.563 68.0088 375.484 68.0088 375.405 68.0088C375.326 68.0088 375.326 68.0088 375.247 68.0088C375.168 68.0088 375.089 68.0088 375.089 68.0088C375.01 68.0088 374.931 68.0878 374.852 68.0878C374.773 68.0878 374.694 68.1668 374.694 68.1668C374.615 68.1668 374.536 68.2458 374.457 68.2458C374.378 68.2458 374.299 68.3247 374.299 68.3247C374.22 68.4037 374.141 68.4037 374.141 68.4827C376.591 69.8255 378.962 71.3263 381.254 72.827C380.937 72.5901 380.779 72.2741 380.621 72.0372Z" fill="#3F3D56"/>
<path d="M380.621 72.0372C380.463 71.8002 380.384 71.6422 380.226 71.4053C380.068 71.1683 379.91 71.0103 379.831 70.7734C379.752 70.6944 379.673 70.6154 379.594 70.4574C378.883 69.5096 378.092 68.7987 377.302 68.4037C377.223 68.4037 377.223 68.3247 377.144 68.3247C376.986 68.2458 376.907 68.1668 376.749 68.1668C376.512 68.0878 376.275 68.0088 376.037 68.0088C375.879 68.0088 375.8 68.0088 375.642 68.0088C375.563 68.0088 375.484 68.0088 375.405 68.0088C375.326 68.0088 375.326 68.0088 375.247 68.0088C375.168 68.0088 375.089 68.0088 375.089 68.0088C375.01 68.0088 374.931 68.0878 374.852 68.0878C374.773 68.0878 374.694 68.1668 374.694 68.1668C374.615 68.1668 374.536 68.2458 374.457 68.2458C374.378 68.2458 374.299 68.3247 374.299 68.3247C374.22 68.4037 374.141 68.4037 374.141 68.4827C376.591 69.8255 378.962 71.3263 381.254 72.827C380.937 72.5901 380.779 72.2741 380.621 72.0372Z" fill="#3F3D56"/>
<path d="M420.061 51.0264H164.152V52.6061H313.366C328.541 52.6061 343.004 55.3707 356.439 60.3469C358.257 61.0578 360.075 61.7687 361.893 62.5586C366.002 64.2963 370.033 66.35 373.906 68.5617C376.356 69.9045 378.727 71.4052 381.018 72.906C385.919 76.1445 390.66 79.778 395.007 83.6484C395.165 83.8063 395.402 83.9643 395.56 84.2013C420.614 106.713 436.341 139.335 436.341 175.669V264.61C436.341 273.456 429.307 280.644 421.325 272.35C421.167 272.192 420.93 271.956 420.772 271.798H267.685V282.619H420.061C429.94 282.619 438.001 274.562 438.001 264.689V68.9566C438.001 59.0831 429.94 51.0264 420.061 51.0264Z" fill="#53E0DC"/>
<path d="M380.621 72.0372C380.463 71.8002 380.384 71.6422 380.226 71.4053C380.068 71.1683 379.91 71.0103 379.831 70.7734C379.752 70.6944 379.673 70.6154 379.594 70.4574C378.883 69.5096 378.092 68.7987 377.302 68.4037C377.223 68.4037 377.223 68.3247 377.144 68.3247C376.986 68.2458 376.907 68.1668 376.749 68.1668C376.512 68.0878 376.275 68.0088 376.037 68.0088C375.879 68.0088 375.8 68.0088 375.642 68.0088C375.563 68.0088 375.484 68.0088 375.405 68.0088C375.326 68.0088 375.326 68.0088 375.247 68.0088C375.168 68.0088 375.089 68.0088 375.089 68.0088C375.01 68.0088 374.931 68.0878 374.852 68.0878C374.773 68.0878 374.694 68.1668 374.694 68.1668C374.615 68.1668 374.536 68.2458 374.457 68.2458C374.378 68.2458 374.299 68.3247 374.299 68.3247C374.22 68.4037 374.141 68.4037 374.141 68.4827C376.591 69.8255 378.962 71.3263 381.254 72.827C380.937 72.5901 380.779 72.2741 380.621 72.0372Z" fill="#3F3D56"/>
<path d="M380.621 72.0372C380.463 71.8002 380.384 71.6422 380.226 71.4053C380.068 71.1683 379.91 71.0103 379.831 70.7734C379.752 70.6944 379.673 70.6154 379.594 70.4574C378.883 69.5096 378.092 68.7987 377.302 68.4037C377.223 68.4037 377.223 68.3247 377.144 68.3247C376.986 68.2458 376.907 68.1668 376.749 68.1668C376.512 68.0878 376.275 68.0088 376.037 68.0088C375.879 68.0088 375.8 68.0088 375.642 68.0088C375.563 68.0088 375.484 68.0088 375.405 68.0088C375.326 68.0088 375.326 68.0088 375.247 68.0088C375.168 68.0088 375.089 68.0088 375.089 68.0088C375.01 68.0088 374.931 68.0878 374.852 68.0878C374.773 68.0878 374.694 68.1668 374.694 68.1668C374.615 68.1668 374.536 68.2458 374.457 68.2458C374.378 68.2458 374.299 68.3247 374.299 68.3247C374.22 68.4037 374.141 68.4037 374.141 68.4827C376.591 69.8255 378.962 71.3263 381.254 72.827C380.937 72.5901 380.779 72.2741 380.621 72.0372Z" fill="#3F3D56"/>
<path d="M380.621 72.0372C380.463 71.8002 380.384 71.6422 380.226 71.4053C380.068 71.1683 379.91 71.0103 379.831 70.7734C379.752 70.6944 379.673 70.6154 379.594 70.4574C378.883 69.5096 378.092 68.7987 377.302 68.4037C377.223 68.4037 377.223 68.3247 377.144 68.3247C376.986 68.2458 376.907 68.1668 376.749 68.1668C376.512 68.0878 376.275 68.0088 376.037 68.0088C375.879 68.0088 375.8 68.0088 375.642 68.0088C375.563 68.0088 375.484 68.0088 375.405 68.0088C375.326 68.0088 375.326 68.0088 375.247 68.0088C375.168 68.0088 375.089 68.0088 375.089 68.0088C375.01 68.0088 374.931 68.0878 374.852 68.0878C374.773 68.0878 374.694 68.1668 374.694 68.1668C374.615 68.1668 374.536 68.2458 374.457 68.2458C374.378 68.2458 374.299 68.3247 374.299 68.3247C374.22 68.4037 374.141 68.4037 374.141 68.4827C376.591 69.8255 378.962 71.3263 381.254 72.827C380.937 72.5901 380.779 72.2741 380.621 72.0372Z" fill="#3F3D56"/>
<path d="M374.851 94.7064C375.325 94.7854 375.799 94.7854 376.194 94.7854C377.617 94.8644 379.04 94.7854 380.383 94.5484C384.493 93.9165 388.286 91.9418 391.132 89.0983C394.214 86.0967 396.269 82.0683 396.822 77.4871C398.166 66.6657 390.42 56.7922 379.593 55.4494C368.923 54.1066 359.202 61.6105 357.622 72.1949C357.622 72.3528 357.543 72.5108 357.543 72.6688C356.278 83.4901 363.944 93.3636 374.851 94.7064Z" fill="#FFB6B6"/>
<path d="M353.197 71.4049C356.043 72.8267 360.627 68.4034 362.365 70.931C362.681 70.3781 362.998 69.8252 363.314 69.3513C363.63 68.8773 364.025 67.9295 364.499 67.7715C363.946 69.1933 364.025 71.089 364.657 72.7477C367.423 73.7746 371.059 71.4839 373.588 68.7983C377.619 64.533 384.178 75.4333 382.598 81.0415C384.574 78.5928 388.841 80.0146 390.343 82.7792C391.765 85.5438 389.315 87.7554 388.841 90.836L392.793 90.362C395.322 87.9134 395.085 83.806 397.14 81.0415C400.617 76.3022 401.882 71.4839 399.353 66.6657C397.061 62.3213 396.824 56.7922 392.635 54.2646C394.453 53.3957 387.972 54.7385 389.711 51.8159C391.449 48.8934 382.123 48.5774 381.491 50.0782C378.804 46.9187 376.117 44.786 372.798 47.3136C369.557 49.8413 369.873 52.4479 366.08 52.2109C364.262 52.1319 364.499 55.4494 363.472 56.8712C362.444 58.293 358.335 59.2408 358.098 59.0828C356.991 58.214 353.356 65.4019 353.356 65.4019C353.356 65.4019 350.352 70.0622 353.197 71.4049Z" fill="#0B1A27"/>
<path d="M303.565 2.76465H262.864C259.307 2.76465 256.383 5.6872 256.383 9.32064V49.9994C256.383 50.3943 256.383 50.7103 256.462 51.1052C256.541 51.6582 256.699 52.2111 256.936 52.685C257.963 54.9756 260.255 56.5554 262.864 56.5554H303.565C306.253 56.5554 308.465 54.9756 309.493 52.685C309.73 52.2111 309.888 51.6582 309.967 51.1052C310.046 50.7893 310.046 50.3943 310.046 49.9994V9.32064C310.125 5.6872 307.201 2.76465 303.565 2.76465ZM308.703 52.606C307.754 54.4227 305.857 55.6865 303.565 55.6865H262.864C260.651 55.6865 258.754 54.4227 257.726 52.606C257.489 52.1321 257.252 51.5792 257.173 51.0263C257.094 50.7103 257.094 50.3154 257.094 49.9204V9.32064C257.094 9.24166 257.094 9.16267 257.094 9.08368C257.252 6.00315 259.781 3.55453 262.864 3.55453H283.412C290.92 3.55453 297.717 6.79303 302.459 11.9272L302.538 12.0062C305.778 15.5607 307.991 19.984 308.861 24.9602C308.861 25.1182 308.94 25.3552 308.94 25.5132C308.94 25.5921 308.94 25.5922 308.94 25.5922C309.098 26.856 309.256 28.1198 309.256 29.4626V49.9994C309.256 50.3943 309.256 50.7103 309.177 51.1052C309.177 51.5792 308.94 52.1321 308.703 52.606Z" fill="#E6E6E6"/>
<path d="M309.412 29.6204C309.412 15.1657 296.451 2.52759 282.225 0.315931C264.126 -2.52763 247.53 13.4279 249.98 29.6994C252.034 43.9962 276.614 64.6911 283.331 51.895C290.919 37.2823 309.412 44.0752 309.412 29.6204Z" fill="#F15B40"/>
<path d="M288.709 18.167H275.589C275.273 18.167 274.957 18.404 274.957 18.7989C274.957 19.1938 275.194 19.4308 275.589 19.4308H288.709C289.025 19.4308 289.341 19.1938 289.341 18.7989C289.341 18.404 289.025 18.167 288.709 18.167Z" fill="white"/>
<path d="M288.709 30.9629H275.589C275.273 30.9629 274.957 31.1999 274.957 31.5948C274.957 31.9107 275.194 32.2267 275.589 32.2267H288.709C289.025 32.2267 289.341 31.9897 289.341 31.5948C289.262 31.2788 289.025 30.9629 288.709 30.9629Z" fill="white"/>
<path d="M295.742 24.5649H268.476C268.16 24.5649 267.844 24.8019 267.844 25.1968C267.844 25.5128 268.081 25.8287 268.476 25.8287H295.742C296.058 25.8287 296.375 25.5918 296.375 25.1968C296.296 24.8809 296.058 24.5649 295.742 24.5649Z" fill="white"/>
<path d="M345.214 141.546L361.336 149.366L358.175 159.161L341.42 150.314C340.867 150.472 340.235 150.472 339.681 150.472C336.362 150.314 333.833 147.47 334.07 144.153C334.228 140.835 337.073 138.308 340.393 138.545C342.448 138.624 344.186 139.808 345.214 141.546Z" fill="#FFB6B6"/>
<path d="M413.817 131.91C412.315 129.54 409.865 127.802 406.862 127.17L404.649 126.775C399.117 137.123 393.98 147.628 393.031 160.424L369.559 151.183L368.531 150.788L366.397 148.023L363.157 148.418L362.604 147.47L361.655 145.89L354.859 146.127L354.78 146.285L351.46 154.342L350.986 155.448L350.67 156.238C350.67 156.238 350.512 158.45 350.986 160.266C351.223 161.214 351.618 162.004 352.329 162.399C352.883 162.715 354.147 161.846 354.859 162.241C355.175 162.399 354.859 163.821 355.175 164.058C355.412 164.216 356.992 163.347 357.23 163.426C359.047 164.453 361.102 165.637 363.315 166.901C364.422 167.533 365.607 168.244 366.713 168.955C378.885 176.301 393.427 185.463 394.612 186.095C394.691 186.174 394.77 186.174 394.849 186.253C397.062 187.359 399.591 187.596 402.12 186.885C402.673 186.727 403.148 186.49 403.622 186.253C404.491 185.858 405.281 185.305 405.914 184.674C407.494 183.252 408.522 181.277 408.917 179.144L415.398 139.492C415.793 136.57 415.161 133.963 413.817 131.91Z" fill="#0B938E"/>
<path d="M16.5952 255.921H199.24C200.821 255.921 202.085 259.554 202.085 263.978L178.375 281.829C178.375 286.252 177.111 289.886 175.53 289.886H16.5952C15.0145 289.886 13.75 286.252 13.75 281.829V263.978C13.75 259.475 15.0145 255.921 16.5952 255.921Z" fill="white"/>
<path d="M92.0736 175.906L95.3139 197.312L83.38 200.866L80.7719 178.118C80.2186 177.644 79.8235 177.091 79.4283 176.459C77.3735 173.062 78.4799 168.56 81.8783 166.506C85.2767 164.453 89.7816 165.558 91.8365 168.955C93.101 171.246 93.101 173.773 92.0736 175.906Z" fill="#FFB6B6"/>
<path d="M98.7109 206.237C99.5803 215.874 93.8109 211.687 89.306 221.087C87.5673 224.641 82.5092 224.167 80.6124 227.406C77.7672 232.382 80.3753 254.736 75.2382 257.5C70.101 260.265 67.73 252.287 63.6203 248.18C59.6687 244.151 55.0058 245.731 51.6073 241.229C48.2089 236.726 44.3363 232.698 40.9379 228.196C40.8589 228.117 40.7798 228.038 40.7798 227.959C39.1992 215.637 34.1411 201.182 36.275 194.626C39.1202 193.599 42.1234 192.888 44.4944 192.967C48.8412 193.046 47.0234 195.416 50.817 197.311C53.9783 198.891 57.8509 207.185 60.9332 209.002C63.1461 210.344 68.4413 220.692 71.2865 219.744C75.8704 218.322 80.3753 197.153 79.3479 193.283C78.3995 190.045 73.8946 186.016 73.8156 182.778C73.8156 182.699 73.8156 182.541 73.8156 182.383C78.3995 184.041 86.856 179.855 91.5189 181.356C94.8383 182.462 98.7899 186.49 99.027 189.966C99.1851 193.441 98.3948 202.683 98.7109 206.237Z" fill="#6C63FF"/>
<path d="M152.454 169.824C151.664 168.876 150.399 168.402 149.135 168.639L112.464 175.195C109.144 175.827 105.667 175.195 102.743 173.537L97.2894 170.456L87.0941 164.769L85.1183 163.663L76.8199 159.003L74.2118 157.581C73.1843 157.028 71.9989 156.949 70.9714 157.423C69.944 157.897 69.2327 158.845 68.9956 159.951L66.4665 171.957L66.3085 172.826L64.8859 179.619L61.2504 196.443L60.6972 199.129L60.4601 200.313L58.6423 209.002L58.3262 210.582L53.4261 233.488L53.031 235.463C52.7939 236.569 53.11 237.675 53.8213 238.544C53.9003 238.623 53.9794 238.702 54.1374 238.86C55.0858 239.728 56.3503 240.044 57.6149 239.649L58.6423 239.333L66.3875 236.964L84.0909 231.593L87.8844 230.408L92.5474 228.986C93.0216 228.828 93.4958 228.749 94.049 228.749C95.3135 228.749 96.6571 229.223 97.6055 230.171L120.525 251.972L121.552 252.919C122.422 253.788 123.686 254.104 124.872 253.788C125.899 253.551 126.69 252.84 127.164 251.972C127.243 251.814 127.322 251.656 127.401 251.498L133.803 232.225L134.909 228.907L138.465 218.165L138.782 217.296C154.43 227.327 151.901 195.732 153.403 173.3C153.561 172.115 153.324 170.772 152.454 169.824Z" fill="#F2F2F2"/>
<path d="M147.712 173.773C146.922 172.825 145.657 172.352 144.393 172.589L107.721 179.145C104.402 179.776 100.925 179.144 98.0004 177.486L92.5472 174.405L82.3519 168.718L80.3761 167.612L72.0777 162.952L69.4696 161.53C68.4422 160.977 67.2567 160.898 66.2292 161.372C65.2018 161.846 64.4905 162.794 64.2534 163.9L61.7244 175.906L61.5663 176.775L60.1437 183.568L56.5082 200.392L55.955 203.078L55.7179 204.263L53.9001 212.951L53.584 214.531L48.6839 237.438L48.2888 239.412C48.0517 240.518 48.3678 241.624 49.0791 242.493C49.1581 242.572 49.2372 242.651 49.3952 242.809C50.3436 243.678 51.6082 243.994 52.8727 243.599L53.9001 243.283L61.6453 240.913L79.3487 235.542L83.1423 234.357L87.8052 232.935C88.2794 232.777 88.7536 232.698 89.3068 232.698C90.5713 232.698 91.9149 233.172 92.8633 234.12L115.783 255.921L116.81 256.869C117.68 257.737 118.944 258.053 120.13 257.737C121.157 257.5 121.947 256.79 122.422 255.921C122.501 255.763 122.58 255.605 122.659 255.447L129.06 236.174L130.167 232.856L133.723 222.114L134.039 221.245C149.688 231.277 147.159 199.681 148.66 177.249C148.819 176.064 148.581 174.721 147.712 173.773Z" fill="#253847"/>
<path d="M44.2578 243.046L44.9691 274.799L90.0178 273.535L80.9291 238.385L44.2578 243.046Z" fill="#FFB6B6"/>
<path d="M97.6072 352.286C98.1604 349.679 96.4217 351.812 95.2362 350.706L95.1572 350.627C93.8927 349.205 92.233 348.573 92.233 346.757C92.233 345.019 89.1507 346.599 87.412 344.861C87.0168 344.466 85.9894 343.755 84.5668 342.886C80.0619 340.122 71.8425 335.54 69.3925 334.198C68.9183 333.961 68.6812 333.803 68.6812 333.803C68.6812 333.803 68.6812 333.961 68.6812 334.198C68.5231 335.856 67.9699 342.57 67.3376 350.785C67.2586 351.338 67.2586 351.812 67.1796 352.365H38.0164C38.0164 351.812 38.0955 351.259 38.0955 350.785C38.1745 348.337 37.9374 346.046 37.3842 344.071C36.3568 340.596 35.4084 337.357 34.6971 334.198C32.089 322.665 32.089 312.634 39.439 301.734C40.7826 299.759 41.0197 293.361 41.0197 293.361C41.0197 293.361 43.5487 295.81 44.181 296.441C44.0229 296.283 43.7068 295.968 43.1536 295.415C40.2294 292.492 40.3084 291.544 41.81 289.964C42.0471 289.649 42.3632 289.333 42.7584 289.017C45.0504 286.726 42.7584 289.017 41.5729 287.674C40.3874 286.331 43.3116 282.698 43.3116 282.698L42.2052 277.168L41.5729 274.009L44.8923 273.456L53.902 271.876L87.7281 265.952L88.3604 267.611L94.1298 282.224C95.5523 283.014 97.054 286.252 98.3185 290.043C100.769 297.152 102.744 306.552 102.744 306.552L140.127 350.864L140.522 351.259C140.838 351.654 141.154 352.049 141.391 352.444H97.6072V352.286Z" fill="#747373"/>
<path d="M48.212 338.068H42.6797V352.286H48.212V338.068Z" fill="#E6E6E6"/>
<path d="M14.6227 334.119H76.2683C80.8522 334.119 84.5667 337.831 84.5667 342.412C84.5667 346.994 80.8522 350.706 76.2683 350.706H14.6227C10.0388 350.706 6.32422 346.994 6.32422 342.412C6.32422 337.831 10.0388 334.119 14.6227 334.119Z" fill="#F2F2F2"/>
<path d="M9.87795 350.706C6.1634 350.706 3.16016 347.705 3.16016 343.992V264.214C3.16016 260.502 6.1634 257.5 9.87795 257.5C13.5925 257.5 16.5957 260.502 16.5957 264.214C36.9862 279.854 28.6878 310.896 16.5957 343.992C16.5957 347.705 13.5925 350.706 9.87795 350.706Z" fill="#F2F2F2"/>
<path d="M90.8867 263.03C89.6221 272.587 80.4543 264.136 71.2865 262.556C62.751 261.055 52.6348 275.984 43.467 277.248C37.5395 278.037 42.2024 273.14 44.2573 251.971C44.4944 249.207 41.175 231.198 40.7798 227.959C39.1992 215.637 34.1411 201.182 36.275 194.626C36.6701 193.52 37.2234 192.573 38.0927 192.02C42.1234 189.176 43.9412 186.885 46.7073 182.857C48.9993 179.382 50.6589 176.696 55.0058 176.459C59.0364 176.222 63.6203 177.091 67.572 177.96C71.8397 178.908 67.0187 178.592 68.0462 180.961C68.5204 182.146 69.3897 186.411 70.4172 188.07C73.4204 187.201 76.6607 188.149 78.7156 190.519C81.0866 193.283 83.2205 195.811 84.7221 199.76C86.935 205.685 81.3237 216.19 83.7737 221.956C85.9866 227.169 80.5334 238.307 82.9834 242.493C86.0657 247.785 93.2576 245.652 90.8867 263.03Z" fill="#FCB51F"/>
<path d="M109.176 185.548L108.977 187.115L135.711 190.519L135.911 188.952L109.176 185.548Z" fill="white"/>
<path d="M107.7 193.274L107.5 194.841L134.235 198.245L134.434 196.678L107.7 193.274Z" fill="white"/>
<path d="M106.911 199.593L106.711 201.16L133.446 204.565L133.645 202.998L106.911 199.593Z" fill="white"/>
<path d="M68.1263 177.091C77.2052 177.091 84.5652 169.735 84.5652 160.661C84.5652 151.588 77.2052 144.232 68.1263 144.232C59.0474 144.232 51.6875 151.588 51.6875 160.661C51.6875 169.735 59.0474 177.091 68.1263 177.091Z" fill="#FFB6B6"/>
<path d="M147.002 177.17L129.141 185.227L132.381 196.048L150.954 186.807C151.586 186.965 152.218 187.044 152.85 187.044C156.486 186.886 159.331 183.884 159.173 180.251C159.015 176.617 156.012 173.774 152.376 173.932C150.084 174.09 148.109 175.353 147.002 177.17Z" fill="#FFB6B6"/>
<path d="M131.746 183.173L124.87 186.57L112.62 189.018L95.944 195.89L93.415 196.917L81.7181 194.705L73.6567 193.126L70.9696 192.652L61.2486 190.835L59.3518 190.677C58.7986 190.519 58.2453 190.361 57.6131 190.282C55.7163 189.887 53.5034 189.571 51.2114 189.492C50.5001 189.492 49.7888 189.413 49.1566 189.413C43.2291 189.413 37.6178 190.835 37.4597 195.021C37.3807 198.497 38.0129 201.735 39.3565 204.737C39.5936 205.211 39.7517 205.606 39.9888 206.08C42.7549 211.372 47.734 215.479 53.6614 217.138C54.926 217.533 56.3486 217.77 57.6921 217.849H58.0082L59.1147 217.77L60.8534 217.612L64.0938 217.296L89.6214 215.005L92.7037 214.768L95.5488 214.531H95.6279C99.2634 212.952 109.222 208.686 119.338 204.263C128.585 200.235 132.457 199.682 135.223 198.655C135.777 198.418 136.251 198.181 136.725 197.944C137.199 197.707 145.181 192.178 145.261 192.099C145.419 191.783 145.261 191.072 144.865 190.124C143.838 187.438 141.151 182.857 139.807 180.645L139.175 179.619L131.746 183.173Z" fill="#FCB51F"/>
<path d="M17.9405 120.852C8.06135 120.852 0 128.829 0 138.703V334.277C0 338.068 1.18549 341.544 3.16131 344.466C4.97907 347.152 7.50812 349.285 10.5114 350.627C12.8033 351.654 15.2533 352.207 17.8614 352.207H152.929V341.386H18.7308C16.2017 350.627 14.542 350.311 12.9614 349.837C11.0646 349.285 9.40491 348.337 7.90328 347.152C5.92746 345.572 4.26777 343.597 3.16131 341.307C2.13389 339.174 1.58066 336.804 1.58066 334.277V205.053C1.58066 159.398 38.6471 122.431 84.328 122.431H240.023V120.852H17.9405Z" fill="#C99118"/>
<path d="M86.8572 151.894C86.8572 153.552 86.8572 156.949 85.3555 157.739L84.9604 157.581C84.7233 157.423 84.4072 157.186 84.012 156.87C82.9846 156.001 81.641 154.816 80.7716 154.658C80.6926 153.237 80.7716 151.815 80.9297 150.393C80.9297 150.077 81.0087 149.682 81.0878 149.366C80.9297 149.603 80.8507 149.84 80.6926 150.077C79.9023 151.499 79.3491 153 78.8749 154.5C77.3732 154.5 75.3974 154.342 74.528 155.527C73.3426 157.344 75.0022 161.214 72.1571 162.952C71.5248 163.347 70.7345 163.584 69.628 163.663C70.7345 163.821 72.2361 164.374 72.9474 165.875C74.449 168.876 75.7135 172.352 75.0813 175.59C75.0022 176.064 74.8442 176.538 74.6071 177.012C73.4216 179.776 70.8135 181.593 68.8377 183.884C68.8377 183.884 68.7586 183.963 68.7586 184.042C67.257 185.859 66.7038 187.28 66.8619 188.702C67.178 191.23 69.628 193.52 72.2361 196.996C73.1845 198.26 70.3393 204.895 71.1296 206.316C71.92 207.659 72.3942 209.397 71.7619 210.898C71.0506 212.477 69.4699 213.188 67.7312 213.425C62.7522 210.029 58.4053 205.605 56.5086 200.471C54.8489 196.048 54.9279 190.993 57.8521 185.464C55.086 190.282 53.9795 196.127 54.9279 201.656C54.9279 201.814 55.0069 202.051 55.0069 202.209C55.165 202.92 55.4021 203.631 55.7182 204.263C57.1408 207.106 60.065 208.923 62.1989 211.53C61.2505 212.477 59.8279 213.82 58.3263 215.163C57.0618 216.269 55.8763 217.296 55.086 217.849C54.5327 217.375 53.9795 216.111 53.4263 214.531C53.1892 213.899 53.0311 213.188 52.794 212.477C51.5295 208.054 50.5811 202.288 50.265 200.55C49.5537 201.893 49.3166 205.684 49.4746 209.634C49.4746 210.187 49.4746 210.819 49.5537 211.372C49.7908 216.348 43.6262 218.717 40.4649 215.005C39.8326 214.215 39.1213 213.346 38.41 212.398C38.331 208.607 38.8842 204.816 40.0697 201.261C40.0697 201.182 40.1488 201.103 40.1488 201.103C39.9907 201.34 38.331 205.448 36.9874 208.607C36.3552 210.266 35.7229 211.609 35.4858 212.083C35.7229 210.661 36.1971 208.844 36.6713 207.027C37.7778 203.078 39.0423 199.365 38.252 200.392C37.4616 201.419 36.7504 202.604 36.1181 203.71C34.8536 206 34.0632 208.528 33.589 211.056C33.51 211.293 33.51 211.53 33.51 211.767C32.7987 211.609 32.0874 211.372 31.4551 210.977C29.3213 209.871 28.2148 207.659 28.1358 205.29C27.9777 201.577 29.5584 198.26 32.9568 198.734C34.2213 198.892 34.7745 198.181 34.8536 196.917C35.0116 194.389 33.2729 189.729 32.2455 187.201C31.7713 186.095 31.3761 184.99 30.981 183.884C33.1939 181.119 34.3003 177.486 34.0632 173.931C33.2729 176.538 32.0084 179.066 30.1906 181.119C29.7955 179.224 29.7955 177.407 30.4277 175.59C32.7197 169.666 37.6197 172.194 41.0972 166.901C45.1278 160.74 43.9423 157.423 46.3133 150.472C47.3407 147.47 49.7117 144.864 52.715 143.679C55.7182 142.494 59.907 134.911 71.1296 143.205C71.2877 143.047 71.5248 142.889 71.6829 142.731C74.8442 140.361 78.7958 141.862 82.9846 142.415C87.4104 142.968 85.9878 142.178 88.3588 145.97C89.2282 147.391 86.8572 150.235 86.8572 151.894Z" fill="#0B1A27"/>
<path d="M183.04 96.7601C182.17 95.8123 180.985 95.1014 179.641 94.7854C179.167 94.7064 178.693 94.6274 178.219 94.6274H137.517C133.96 94.6274 130.957 97.55 130.957 101.183V141.862C130.957 145.417 133.881 148.339 137.517 148.339H178.219C181.775 148.339 184.699 145.417 184.699 141.862V101.183C184.778 99.5247 184.146 97.9449 183.04 96.7601ZM183.988 141.862C183.988 145.022 181.38 147.628 178.219 147.628H137.517C134.355 147.628 131.747 145.022 131.747 141.862V121.325C131.747 121.167 131.747 121.009 131.747 120.772C131.747 119.588 131.905 118.482 132.063 117.376C132.063 117.218 132.143 116.981 132.143 116.823C133.012 111.926 135.225 107.423 138.465 103.869C143.207 98.6558 150.004 95.4173 157.591 95.4173H178.14C181.301 95.4173 183.909 98.0239 183.909 101.183V141.862H183.988Z" fill="#B2B1B1"/>
<path d="M131.746 121.484C131.746 107.029 144.707 94.3907 158.933 92.179C177.032 89.3355 193.629 98.972 191.179 115.243C189.124 129.54 164.545 156.554 157.827 143.758C150.24 129.224 131.746 135.938 131.746 121.484Z" fill="#F15B40"/>
<path d="M165.654 110.109H152.535C152.218 110.109 151.902 110.346 151.902 110.741C151.902 111.136 152.139 111.373 152.535 111.373H165.654C165.97 111.373 166.286 111.136 166.286 110.741C166.286 110.346 165.97 110.109 165.654 110.109Z" fill="white"/>
<path d="M165.654 122.905H152.535C152.218 122.905 151.902 123.142 151.902 123.537C151.902 123.853 152.139 124.169 152.535 124.169H165.654C165.97 124.169 166.286 123.932 166.286 123.537C166.207 123.142 165.97 122.905 165.654 122.905Z" fill="white"/>
<path d="M172.688 116.507H145.421C145.105 116.507 144.789 116.744 144.789 117.139C144.789 117.455 145.026 117.771 145.421 117.771H172.688C173.004 117.771 173.32 117.534 173.32 117.139C173.32 116.744 173.004 116.507 172.688 116.507Z" fill="white"/>
<path d="M40.2291 34.0439C39.3597 34.0439 38.6484 34.7548 38.6484 35.6237V60.11C38.6484 60.9788 39.3597 61.6897 40.2291 61.6897C41.0985 61.6897 41.8098 60.9788 41.8098 60.11V35.6237C41.8098 34.7548 41.0985 34.0439 40.2291 34.0439Z" fill="#3F3D56"/>
<path d="M55.7189 57.6612C61.175 57.6612 65.5981 53.3468 65.5981 48.0247C65.5981 42.7026 61.175 38.3882 55.7189 38.3882C50.2629 38.3882 45.8398 42.7026 45.8398 48.0247C45.8398 53.3468 50.2629 57.6612 55.7189 57.6612Z" fill="#747373"/>
<path d="M134.671 44.7072H81.6397C79.8219 44.7072 78.3203 43.2065 78.3203 41.3898C78.3203 39.573 79.8219 38.0723 81.6397 38.0723H134.671C136.488 38.0723 137.99 39.573 137.99 41.3898C137.99 43.2065 136.488 44.7072 134.671 44.7072Z" fill="#F8F8F8"/>
<path d="M176.005 55.8445H81.6397C79.8219 55.8445 78.3203 54.3437 78.3203 52.527C78.3203 50.7102 79.8219 49.2095 81.6397 49.2095H176.005C177.823 49.2095 179.324 50.7102 179.324 52.527C179.324 54.3437 177.902 55.8445 176.005 55.8445Z" fill="#F8F8F8"/>
<path d="M171.186 331.354C170.317 331.354 169.605 332.065 169.605 332.934V357.42C169.605 358.289 170.317 359 171.186 359C172.055 359 172.767 358.289 172.767 357.42V332.934C172.767 332.065 172.055 331.354 171.186 331.354Z" fill="#3F3D56"/>
<path d="M186.676 354.893C192.132 354.893 196.555 350.578 196.555 345.256C196.555 339.934 192.132 335.62 186.676 335.62C181.22 335.62 176.797 339.934 176.797 345.256C176.797 350.578 181.22 354.893 186.676 354.893Z" fill="#747373"/>
<path d="M265.628 342.018H212.597C210.779 342.018 209.277 340.517 209.277 338.7C209.277 336.884 210.779 335.383 212.597 335.383H265.628C267.446 335.383 268.947 336.884 268.947 338.7C268.947 340.517 267.446 342.018 265.628 342.018Z" fill="#F8F8F8"/>
<path d="M307.041 353.155H212.597C210.779 353.155 209.277 351.654 209.277 349.837C209.277 348.021 210.779 346.52 212.597 346.52H306.962C308.78 346.52 310.281 348.021 310.281 349.837C310.281 351.654 308.859 353.155 307.041 353.155Z" fill="#F8F8F8"/>
<path d="M79.8233 135.859C81.6565 135.859 83.1427 134.339 83.1427 132.463C83.1427 130.587 81.6565 129.066 79.8233 129.066C77.99 129.066 76.5039 130.587 76.5039 132.463C76.5039 134.339 77.99 135.859 79.8233 135.859Z" fill="#3F3D56"/>
<path d="M91.3623 135.859C93.1956 135.859 94.6817 134.339 94.6817 132.463C94.6817 130.587 93.1956 129.066 91.3623 129.066C89.5291 129.066 88.043 130.587 88.043 132.463C88.043 134.339 89.5291 135.859 91.3623 135.859Z" fill="#3F3D56"/>
<path d="M102.901 135.859C104.735 135.859 106.221 134.339 106.221 132.463C106.221 130.587 104.735 129.066 102.901 129.066C101.068 129.066 99.582 130.587 99.582 132.463C99.582 134.339 101.068 135.859 102.901 135.859Z" fill="#3F3D56"/>
<path d="M311.706 68.4824C313.539 68.4824 315.025 66.9618 315.025 65.0859C315.025 63.2101 313.539 61.6895 311.706 61.6895C309.873 61.6895 308.387 63.2101 308.387 65.0859C308.387 66.9618 309.873 68.4824 311.706 68.4824Z" fill="#3F3D56"/>
<path d="M323.245 68.4824C325.078 68.4824 326.565 66.9618 326.565 65.0859C326.565 63.2101 325.078 61.6895 323.245 61.6895C321.412 61.6895 319.926 63.2101 319.926 65.0859C319.926 66.9618 321.412 68.4824 323.245 68.4824Z" fill="#3F3D56"/>
<path d="M334.784 68.4824C336.617 68.4824 338.104 66.9618 338.104 65.0859C338.104 63.2101 336.617 61.6895 334.784 61.6895C332.951 61.6895 331.465 63.2101 331.465 65.0859C331.465 66.9618 332.951 68.4824 334.784 68.4824Z" fill="#3F3D56"/>
</g>
<defs>
<clipPath id="clip0_1329_25111">
<rect width="438" height="359" fill="white"/>
</clipPath>
</defs>
</svg>
