<svg width="658" height="518" viewBox="0 0 658 518" fill="none" xmlns="http://www.w3.org/2000/svg">
<g clip-path="url(#clip0_2722_39085)">
<path d="M172.542 233.734C171.098 233.734 169.895 234.937 169.895 236.381V257.396C169.895 258.84 171.098 260.043 172.542 260.043C173.985 260.043 175.189 258.84 175.189 257.396V236.381C175.189 234.937 173.985 233.734 172.542 233.734Z" fill="#3F3D56"/>
<path d="M472.863 0H236.631C209.84 0 188.102 21.7371 188.102 48.5274V465.943C188.102 492.734 209.84 514.471 236.631 514.471H472.863C499.655 514.471 521.393 492.734 521.393 465.943V48.5274C521.393 21.7371 499.655 0 472.863 0Z" fill="white"/>
<path d="M476.877 518H240.645C213.292 518 190.992 495.701 190.992 468.35V50.9336C190.992 23.5818 213.292 1.2832 240.645 1.2832H476.877C504.23 1.2832 526.53 23.5818 526.53 50.9336V468.35C526.53 495.701 504.31 518 476.877 518ZM240.645 3.5291C214.495 3.5291 193.318 24.7849 193.318 50.8534V468.269C193.318 494.418 214.575 515.594 240.645 515.594H476.877C503.027 515.594 524.203 494.338 524.203 468.269V50.9336C524.203 24.7849 502.947 3.60931 476.877 3.60931C476.877 3.5291 240.645 3.5291 240.645 3.5291Z" fill="#253847"/>
<path d="M488.426 101.707H393.452C389.441 101.707 386.152 98.4186 386.152 94.408C386.152 90.3975 389.441 87.1089 393.452 87.1089H488.426C492.437 87.1089 495.725 90.3975 495.725 94.408C495.725 98.4186 492.437 101.707 488.426 101.707Z" fill="#53E0DC"/>
<path d="M399.307 159.138H307.06C304.734 159.138 302.809 157.213 302.809 154.887C302.809 152.561 304.734 150.636 307.06 150.636H399.387C401.713 150.636 403.638 152.561 403.638 154.887C403.558 157.213 401.633 159.138 399.307 159.138Z" fill="#53E0DC"/>
<path d="M219.306 18.1274H265.91C267.755 18.1274 269.279 19.6514 269.279 21.4963C269.279 23.3411 267.755 24.8651 265.91 24.8651H219.306C217.461 24.8651 215.937 23.3411 215.937 21.4963C215.856 19.6514 217.38 18.1274 219.306 18.1274Z" fill="#53E0DC"/>
<path d="M446.392 24.9453C449.405 24.9453 451.847 22.5033 451.847 19.4909C451.847 16.4786 449.405 14.0366 446.392 14.0366C443.38 14.0366 440.938 16.4786 440.938 19.4909C440.938 22.5033 443.38 24.9453 446.392 24.9453Z" fill="#0B1A27"/>
<path d="M461.396 24.9453C464.408 24.9453 466.851 22.5033 466.851 19.4909C466.851 16.4786 464.408 14.0366 461.396 14.0366C458.383 14.0366 455.941 16.4786 455.941 19.4909C455.941 22.5033 458.383 24.9453 461.396 24.9453Z" fill="#0B1A27"/>
<path d="M476.474 24.9453C479.487 24.9453 481.929 22.5033 481.929 19.4909C481.929 16.4786 479.487 14.0366 476.474 14.0366C473.462 14.0366 471.02 16.4786 471.02 19.4909C471.02 22.5033 473.462 24.9453 476.474 24.9453Z" fill="#0B1A27"/>
<path d="M234.469 181.757C234.469 182.479 235.11 183.121 235.832 183.121H470.46C471.182 183.121 471.824 182.479 471.824 181.757C471.824 181.035 471.182 180.394 470.46 180.394H235.832C235.11 180.394 234.469 180.955 234.469 181.757Z" fill="#0B1A27"/>
<path d="M420.566 375.065C420.566 375.787 421.208 376.428 421.93 376.428H656.558C657.28 376.428 657.921 375.787 657.921 375.065C657.921 374.343 657.28 373.701 656.558 373.701H421.93C421.208 373.701 420.566 374.263 420.566 375.065Z" fill="#0B1A27"/>
<path d="M447.997 289.159H307.22C304.894 289.159 302.969 287.234 302.969 284.908C302.969 282.582 304.894 280.657 307.22 280.657H447.997C450.323 280.657 452.248 282.582 452.248 284.908C452.248 287.234 450.323 289.159 447.997 289.159Z" fill="#53E0DC"/>
<path d="M264.469 294.774C270.184 294.774 274.816 290.141 274.816 284.427C274.816 278.712 270.184 274.08 264.469 274.08C258.754 274.08 254.121 278.712 254.121 284.427C254.121 290.141 258.754 294.774 264.469 294.774Z" fill="#53E0DC"/>
<path d="M263.344 300.469C263.344 299.827 263.825 299.346 264.387 299.346C272.488 298.785 278.825 292.047 278.825 283.865C278.825 275.684 272.408 268.946 264.387 268.385C263.825 268.304 263.344 267.823 263.344 267.262C263.344 266.62 263.905 266.059 264.627 266.059C273.852 266.7 281.151 274.481 281.151 283.785C281.151 293.09 273.772 300.87 264.627 301.512C263.905 301.672 263.344 301.111 263.344 300.469Z" fill="#0B1A27"/>
<path d="M140.216 242.717C144.467 238.466 150.082 237.103 152.81 239.83C155.537 242.557 154.334 248.172 150.082 252.423C148.398 254.187 146.393 255.471 144.066 256.273L125.938 274.24L117.676 265.577L136.366 248.813C137.248 246.487 138.532 244.402 140.216 242.717Z" fill="#FFB6B6"/>
<path d="M82.3012 227.878L101.312 269.989L131.633 253.626L142.462 259.401C142.462 259.401 117.676 300.79 100.751 296.057C83.8252 291.325 53.6646 248.572 59.1192 235.418C64.4935 222.183 82.3012 227.878 82.3012 227.878Z" fill="#FCB51F"/>
<path d="M175.11 310.736C203.862 310.736 227.169 287.932 227.169 259.802C227.169 231.672 203.862 208.868 175.11 208.868C146.359 208.868 123.051 231.672 123.051 259.802C123.051 287.932 146.359 310.736 175.11 310.736Z" fill="#53E0DC"/>
<path d="M74.0391 508.375H87.836L94.4136 455.035H74.0391V508.375Z" fill="#FFB6B6"/>
<path d="M121.284 508.214C122.086 509.177 122.086 510.541 122.086 512.065C122.086 514.631 120.001 516.797 117.354 516.797H74.5191C72.7544 516.797 71.3105 515.353 71.3105 513.589V511.744C71.3105 511.744 69.2249 506.37 73.5565 499.792C73.5565 499.792 77.3266 503.402 83.2625 499.873C85.4283 498.589 87.1128 496.664 88.3962 494.498L88.7973 493.857C89.1983 493.135 90.1609 492.894 90.8026 493.456L103.477 502.76C105.642 504.284 108.049 505.327 110.696 505.728C113.824 506.209 116.872 506.45 119.921 507.412C120.562 507.573 120.963 507.894 121.284 508.214Z" fill="#314A5B"/>
<path d="M84.4677 230.606L84.7886 211.917L73.2377 204.778L60.9648 220.178L84.4677 230.606Z" fill="#FFB6B6"/>
<path opacity="0.1" d="M84.3842 230.285L84.7853 212.077L73.2344 204.617L77.2451 227.156L84.3842 230.285Z" fill="black"/>
<path d="M90.4821 483.67H73.3162C71.2306 483.67 69.5461 481.905 69.6263 479.82L72.6745 409.635L74.359 370.733L69.4659 352.205C69.4659 352.205 67.2199 348.114 65.3749 343.061C63.2894 337.446 61.6049 330.708 64.0915 327.5C64.9739 326.297 67.3803 325.414 70.5889 324.773C72.514 324.371 74.8403 324.051 77.2467 323.81C91.3645 322.446 111.498 323.249 111.498 323.249L111.98 340.093L112.3 349.477L114.226 398.326C114.306 400.491 114.065 402.577 113.584 404.662L94.0918 480.862C93.6907 482.547 92.1666 483.67 90.4821 483.67Z" fill="#314A5B"/>
<path d="M49.6523 502.038L63.2888 504.044L77.567 452.228L57.4332 449.26L49.6523 502.038Z" fill="#FFB6B6"/>
<path d="M96.5772 508.615C96.8981 509.417 96.8179 511.743 96.6574 512.546C96.2564 515.112 93.9302 516.877 91.3633 516.476L48.9298 510.38C47.1651 510.139 45.9618 508.535 46.2025 506.77L46.4431 505.006C46.4431 505.006 45.3201 500.033 49.4913 494.578C49.8924 494.017 50.6945 493.937 51.256 494.338C52.6197 495.38 55.5074 496.824 59.9994 494.979C62.3256 494.017 64.2508 492.413 65.7748 490.407L66.4166 489.605C66.8176 489.044 67.6198 489.044 68.1011 489.445L82.4595 503.562L91.7644 506.129C93.8499 506.69 95.7751 506.69 96.5772 508.615Z" fill="#314A5B"/>
<path d="M110.055 355.012L95.7772 402.417L73.1567 477.815C72.6754 479.339 71.2316 480.301 69.6273 480.06L52.0603 477.494C50.2154 477.253 49.0121 475.488 49.333 473.724L68.5043 373.621C69.4668 368.568 69.7075 363.354 69.146 358.221L68.5043 352.044C68.1834 349.157 67.6219 346.349 66.8198 343.542C66.7396 343.141 66.5791 342.74 66.4989 342.259C64.9748 336.804 62.9695 327.821 65.1353 323.329C65.4561 322.687 65.777 322.206 66.2583 321.725C67.1406 320.923 68.8251 320.441 71.1513 320.121C80.7771 318.998 100.59 322.126 109.414 323.65L112.702 322.286C112.783 322.527 112.783 322.768 112.783 323.008L110.055 355.012Z" fill="#314A5B"/>
<path d="M63.7688 216.328L82.6193 225.392C85.1861 226.595 87.1113 228.841 88.0739 231.568C93.2878 247.209 111.256 300.87 111.256 303.998C111.256 307.688 118.235 310.014 114.063 314.265C109.892 318.516 121.844 321.965 115.427 325.334C109.01 328.703 68.7421 346.991 64.2501 345.307C51.8971 340.735 64.8116 324.051 64.8116 324.051C64.8116 324.051 58.6351 319.399 57.111 313.463C56.3891 308.651 53.1805 272.476 50.4532 251.621C49.3302 242.878 51.4158 233.974 56.3089 226.675L63.7688 216.328Z" fill="#FCB51F"/>
<path d="M130.75 281.459C134.119 278.491 139.092 277.849 143.022 280.015C144.787 280.978 146.151 282.421 146.632 283.945C147.755 287.555 145.91 292.849 140.135 294.533C138.45 295.095 135.643 294.774 133.316 294.453C131.712 294.212 130.108 294.373 128.584 294.774L106.444 300.95L103.477 289.56L125.375 284.507C127.06 284.106 128.584 283.304 129.867 282.181C130.188 282.02 130.509 281.699 130.75 281.459Z" fill="#FFB6B6"/>
<path d="M90.8017 239.428L86.9514 285.469L121.363 285.87L128.021 296.137C128.021 296.137 86.2295 320.281 73.716 307.928C61.2025 295.576 55.5875 243.599 66.7373 234.696C77.8872 225.793 90.8017 239.428 90.8017 239.428Z" fill="#FCB51F"/>
<path d="M83.983 217.371C94.9698 217.371 103.876 208.465 103.876 197.479C103.876 186.492 94.9698 177.586 83.983 177.586C72.9963 177.586 64.0898 186.492 64.0898 197.479C64.0898 208.465 72.9963 217.371 83.983 217.371Z" fill="#FFB6B6"/>
<path d="M73.2345 197.559C73.2345 197.559 76.3629 192.345 78.1276 189.698C79.8923 187.051 79.8923 183.121 79.8923 183.121C79.8923 183.121 95.855 182.8 101.229 187.372C106.604 191.944 110.294 175.18 105.16 169.325C105.16 169.325 102.994 171.811 103.395 172.774L103.876 173.736C103.876 173.736 101.229 163.068 93.5288 161.063C93.5288 161.063 89.2774 163.309 90.4806 164.512C91.6839 165.715 81.3362 156.972 78.2078 162.186C78.2078 162.186 70.5072 162.025 71.4698 164.833L70.9885 166.597C70.9885 166.597 64.4109 164.592 63.9296 169.405C63.9296 169.405 66.2558 169.405 67.5393 170.688C68.8227 171.972 62.967 175.581 62.967 175.581C62.967 175.581 56.229 194.11 65.2933 201.649C65.2933 201.649 65.3735 192.666 68.9831 194.832C72.5928 196.997 73.2345 197.559 73.2345 197.559Z" fill="#23100B"/>
<path d="M91.5245 209.911L91.3641 210.312C91.2036 210.794 91.6047 211.275 92.086 211.275H95.7759C96.1769 211.275 96.4176 211.034 96.4978 210.633L96.578 210.312C96.6582 209.831 96.3374 209.43 95.8561 209.43L92.2464 209.27C92.0058 209.35 91.6849 209.59 91.5245 209.911Z" fill="#23100B"/>
<path d="M98.9848 203.173C97.7014 202.612 96.4179 202.211 94.9741 202.131C92.2468 202.05 87.7548 202.612 84.7066 206.863L83.6638 208.146C83.6638 208.146 73.4766 196.676 74.3589 192.505L72.1931 192.666L70.0273 203.735C70.0273 203.735 76.8456 215.526 86.3109 215.927C86.3109 215.927 95.4554 218.093 97.3805 214.323C99.3057 210.553 102.755 205.018 102.755 205.018L98.9848 203.173ZM90.8029 213.039C89.7601 213.039 87.4339 210.071 86.6318 208.868C86.3911 208.628 86.4713 208.227 86.6318 207.986C88.6371 205.66 93.45 205.499 93.45 205.499H98.7441C99.065 205.499 99.3859 205.74 99.4661 206.061L99.6265 206.943C99.7067 207.104 99.6265 207.344 99.5463 207.505L96.1773 212.959C96.1773 213.039 96.0971 213.039 96.0169 213.039H90.8029Z" fill="#23100B"/>
<path d="M485.779 509.899L477.035 508.054L480.163 473.403L493.078 476.21L485.779 509.899Z" fill="#AE643F"/>
<path d="M455.86 503.241C455.459 503.642 455.058 505.086 454.898 505.647C454.577 507.252 455.62 508.936 457.224 509.257L484.337 515.112C485.46 515.353 486.583 514.631 486.823 513.508L487.064 512.385C487.064 512.385 488.829 509.818 487.706 505.728C487.545 505.086 486.903 504.685 486.342 504.845C485.299 505.086 483.374 505.166 481.369 503.401C480.005 502.278 479.123 500.674 478.641 498.99L478.561 498.669C478.401 498.108 477.839 497.867 477.278 498.108L465.566 503.321L459.31 502.76C457.946 502.68 456.823 502.279 455.86 503.241Z" fill="#314A5B"/>
<path d="M470.139 507.252L462.84 502.118L479.364 471.478L490.113 479.178L470.139 507.252Z" fill="#AE643F"/>
<path d="M445.272 489.445C442.946 490.327 442.144 494.097 444.149 495.461L466.77 511.503C467.732 512.144 469.016 511.984 469.657 511.021L470.299 510.059C470.299 510.059 473.428 508.054 473.588 502.92C473.588 502.92 470.139 503.402 468.374 499.231C467.732 497.787 467.572 496.263 467.732 494.659L467.812 494.258C467.893 493.616 467.411 493.135 466.77 493.135L460.112 493.215C457.625 493.215 455.139 492.894 452.812 492.172C451.77 491.851 450.807 491.53 449.844 491.049C448.882 490.568 447.919 489.926 446.796 489.525C446.315 489.365 445.753 489.284 445.272 489.445Z" fill="#314A5B"/>
<path d="M575.217 336.082C575.217 336.082 588.854 354.611 561.581 375.386L505.992 357.659L525.805 316.27L543.372 306.645L575.217 336.082Z" fill="#314A5B"/>
<path d="M506.072 357.659L486.019 396.802C485.056 398.647 484.414 400.652 484.094 402.738L471.42 483.67C471.179 485.435 472.462 487.039 474.227 487.119L487.944 488.001L504.949 405.224L534.95 360.467L514.014 350.841" fill="#314A5B"/>
<path d="M561.662 362.231V375.386L524.844 415.812C523.721 417.015 523.079 418.619 522.999 420.304C522.678 428.004 520.592 451.185 508.961 463.537C508.56 463.938 508.159 464.419 507.838 464.901L492.999 487.681C492.036 489.124 490.111 489.606 488.587 488.804L476.555 482.306L498.132 406.347L536.716 356.456L561.662 362.231Z" fill="#314A5B"/>
<path d="M534.23 231.568L540.086 259.241L562.386 253.786C562.386 253.786 551.396 230.846 553.562 221.782L534.23 231.568Z" fill="#AE643F"/>
<path opacity="0.1" d="M534.23 231.568L540.086 259.241L562.386 253.786C562.386 253.786 551.396 230.846 553.562 221.782L534.23 231.568Z" fill="black"/>
<path d="M555.406 235.739L541.208 242.396C538.4 243.68 535.833 245.284 533.507 247.289C531.502 248.974 529.657 250.979 529.577 252.583C529.496 254.989 529.496 263.572 529.577 268.866C529.577 271.272 528.935 273.598 527.812 275.764C526.288 278.651 524.683 283.865 526.689 291.405C527.09 292.929 527.25 294.453 527.17 296.057L525.967 316.27L576.983 343.462L572.732 299.426C572.491 297.02 572.411 294.613 572.572 292.207L574.577 252.663C574.577 252.022 574.336 251.38 573.855 250.979L555.406 235.739Z" fill="#FCB51F"/>
<path d="M572.891 366.563C571.848 368.969 569.602 370.814 567.035 371.536C565.351 372.017 563.506 372.017 561.901 371.135C556.928 368.327 557.971 361.028 561.26 357.419C562.383 356.215 564.147 355.413 564.869 353.889C565.11 353.328 565.351 352.847 565.591 352.285C566.554 350.039 567.516 347.713 568.479 345.467C568.72 344.906 572.329 336.644 572.249 336.644L581.313 340.735L574.174 355.333C573.292 357.098 573.773 359.263 573.853 361.188C573.934 363.114 573.613 364.958 572.891 366.563Z" fill="#AE643F"/>
<path d="M561.664 253.706C561.664 253.706 574.097 245.765 578.67 254.829C582.6 262.609 590.702 298.062 592.867 307.848C593.269 309.533 593.188 311.217 592.627 312.821L579.793 351.242C579.231 353.007 577.226 353.889 575.461 353.167L567.6 349.878C566.156 349.237 565.354 347.633 565.755 346.109L576.103 304.64C576.664 302.394 576.584 300.068 575.862 297.902L561.664 253.706Z" fill="#FCB51F"/>
<path d="M498.774 359.584C496.849 361.429 494.041 362.231 491.474 361.91C489.71 361.669 488.025 360.947 486.902 359.584C483.373 355.092 487.143 348.755 491.554 346.67C492.998 345.948 495.004 345.948 496.207 344.825C496.608 344.424 497.009 344.023 497.49 343.622C499.255 341.938 501.02 340.173 502.785 338.489C503.186 338.087 509.683 331.831 509.683 331.831L516.421 339.13L504.148 349.878C502.704 351.162 502.303 353.408 501.662 355.172C501.1 356.777 500.137 358.381 498.774 359.584Z" fill="#AE643F"/>
<path d="M529.978 251.781C529.978 251.781 551.716 250.899 552.598 261.005C553.481 271.112 538.641 316.19 538.641 316.19L510.406 349.558C509.363 350.761 507.598 350.841 506.395 349.718L499.577 343.141C498.614 342.179 498.454 340.735 499.256 339.612L526.449 301.672L529.978 251.781Z" fill="#FCB51F"/>
<path d="M592.705 371.455L453.693 348.996C451.367 348.595 449.843 346.429 450.164 344.183C450.485 341.938 452.731 340.333 454.977 340.654L593.988 363.113C596.315 363.514 597.839 365.68 597.518 367.926C597.197 370.172 595.031 371.856 592.705 371.455Z" fill="#53E0DC"/>
<path d="M422.187 340.805C423.994 335.383 421.064 329.524 415.642 327.717C410.22 325.91 404.36 328.84 402.553 334.261C400.746 339.683 403.676 345.542 409.098 347.349C414.52 349.156 420.38 346.226 422.187 340.805Z" fill="#53E0DC"/>
<path d="M408.691 353.167C408.772 352.606 409.333 352.205 409.895 352.205C417.916 352.927 425.376 347.312 426.66 339.211C427.943 331.109 422.729 323.409 414.868 321.644C414.306 321.484 413.905 320.923 413.986 320.361C414.066 319.719 414.708 319.318 415.349 319.479C424.413 321.564 430.349 330.387 428.906 339.612C427.301 348.916 418.879 355.413 409.574 354.531C409.012 354.451 408.531 353.889 408.691 353.167Z" fill="#0B1A27"/>
<path d="M536.476 237.423C545.912 237.423 553.562 229.774 553.562 220.338C553.562 210.903 545.912 203.253 536.476 203.253C527.04 203.253 519.391 210.903 519.391 220.338C519.391 229.774 527.04 237.423 536.476 237.423Z" fill="#AE643F"/>
<path d="M546.583 220.339C546.583 220.339 535.915 210.633 529.016 214.082C522.118 217.531 518.749 219.777 518.749 219.777C518.749 219.777 513.053 211.194 521.636 203.815C521.636 203.815 504.23 196.195 516.904 184.324C529.578 172.453 541.048 177.025 541.048 177.025C541.048 177.025 556.449 183.843 545.621 197.559C545.621 197.559 561.423 207.585 553.241 223.948C553.241 223.948 552.439 213.521 550.193 216.408C547.947 219.296 546.583 220.339 546.583 220.339Z" fill="#6B4F39"/>
</g>
<defs>
<clipPath id="clip0_2722_39085">
<rect width="658" height="518" fill="white"/>
</clipPath>
</defs>
</svg>
