<svg width="334" height="358" viewBox="0 0 334 358" fill="none" xmlns="http://www.w3.org/2000/svg">
<path d="M110.867 42.4145L51.832 49.3696L58.4306 105.379L117.466 98.4237L110.867 42.4145Z" fill="#253847"/>
<path d="M80.7381 74.676C96.7414 74.676 109.715 61.7028 109.715 45.6996C109.715 29.6963 96.7414 16.7231 80.7381 16.7231C64.7349 16.7231 51.7617 29.6963 51.7617 45.6996C51.7617 61.7028 64.7349 74.676 80.7381 74.676Z" fill="#FFB6B6"/>
<path d="M61.5846 0.743203C43.5521 5.77988 45.231 12.4954 39.759 16.7238C30.121 24.1855 28.1312 42.7155 35.0333 54.0325C36.8987 57.0171 40.443 60.9967 39.5103 65.909C38.7641 69.6399 35.7173 72.1893 35.1576 72.6246C30.4319 76.3555 33.2922 72.2515 31.3024 75.1119C29.1261 78.3453 33.5409 81.9518 31.7377 87.4237C30.121 92.2739 25.7061 92.3982 25.4574 95.3829C25.0843 100.482 37.5827 109.187 49.5215 107.011C60.1545 105.021 67.0566 95.0098 68.7355 86.1801C69.8547 80.2729 69.4816 70.3239 64.3206 66.0334C63.5744 65.4116 61.6468 64.0436 59.657 61.432C58.1025 59.38 55.9883 56.6441 56.7967 54.5299C57.605 52.2914 60.8384 53.0376 62.5173 50.7368C64.818 47.6278 61.1493 43.3373 61.0872 38.5493C60.9628 30.3414 71.2849 19.2732 83.5967 19.3975C97.5875 19.5219 104.365 33.8858 105.111 35.4403C106.604 38.6737 106.977 41.9693 107.661 48.5605C108.718 58.012 109.34 63.9193 107.101 70.3239C103.868 79.5267 98.3337 79.2158 97.5875 85.8692C96.4061 96.2535 108.842 105.083 110.272 106.078C120.843 113.353 135.58 114.162 137.57 110.058C139.373 106.389 129.113 102.223 128.181 91.5277C127.372 82.2627 134.461 78.594 132.16 72.5003C129.549 65.7225 120.284 68.4585 115.309 61.0589C110.708 54.1568 117.112 49.2445 114.252 34.321C113.63 31.1498 111.578 22.1335 104.614 13.8012C101.567 10.1326 98.458 6.40169 93.2348 4.84716C87.3898 3.10609 71.1605 -1.86841 61.5846 0.743203Z" fill="#253847"/>
<path d="M52.3812 27.668C53.8735 33.8861 63.6982 35.8759 67.8643 36.1868C69.6054 36.3111 75.5126 36.7464 80.9845 33.6374C82.9743 32.4559 83.6583 31.5232 85.8347 31.0257C88.7572 30.2796 90.3739 31.2123 95.224 31.9585C100.634 32.7668 103.308 33.2021 104.489 31.8963C106.417 29.7821 104.054 23.8127 101.007 19.8953C95.4105 12.7445 86.5186 11.3765 82.3525 10.7547C77.6267 10.0085 67.9887 8.51617 60.0917 14.4234C59.0346 15.1074 50.8888 21.3255 52.3812 27.668Z" fill="#253847"/>
<path d="M114.626 352.564C100.262 356.046 85.2142 357.912 69.7933 357.912C53.0666 357.912 36.8373 355.735 21.3542 351.694C19.6753 345.476 17.7477 338.573 15.5714 330.925C-3.82916 262.339 35.5937 213.714 35.5937 213.714L45.2939 206.065L132.783 217.818C142.981 267.438 136.389 304.312 114.626 352.564Z" fill="#253847"/>
<path d="M100.388 82.6972L59.4726 78.5933L29.75 104.212L39.015 196.302L34.911 213.713L132.1 217.817L127.001 193.255L134.152 103.155L100.388 82.6972Z" fill="#FCB51F"/>
<path d="M113.692 130.826H48.2148V233.176H113.692V130.826Z" fill="white"/>
<path d="M104.367 144.258H86.0854C85.5879 144.258 85.2148 143.885 85.2148 143.387C85.2148 142.89 85.5879 142.517 86.0854 142.517H104.367C104.864 142.517 105.237 142.89 105.237 143.387C105.237 143.885 104.864 144.258 104.367 144.258Z" fill="#0B938E"/>
<path d="M104.367 151.159H86.0854C85.5879 151.159 85.2148 150.786 85.2148 150.289C85.2148 149.791 85.5879 149.418 86.0854 149.418H104.367C104.864 149.418 105.237 149.791 105.237 150.289C105.237 150.786 104.864 151.159 104.367 151.159Z" fill="#0B938E"/>
<path d="M104.367 158.061H86.0854C85.5879 158.061 85.2148 157.688 85.2148 157.19C85.2148 156.693 85.5879 156.32 86.0854 156.32H104.367C104.864 156.32 105.237 156.693 105.237 157.19C105.237 157.688 104.864 158.061 104.367 158.061Z" fill="#0B938E"/>
<path d="M103.557 182.25H59.0357C57.8543 182.25 56.8594 181.255 56.8594 180.074C56.8594 178.892 57.8543 177.897 59.0357 177.897H103.557C104.739 177.897 105.734 178.892 105.734 180.074C105.734 181.255 104.739 182.25 103.557 182.25Z" fill="#E6E6E6"/>
<path d="M78.5006 221.984C87.3303 224.782 95.9735 222.419 97.7146 216.823C99.4556 211.226 93.735 204.386 84.8431 201.588C81.2987 200.407 77.5679 200.158 73.8992 200.718L36.2174 189.463L12.3398 206.563L68.9869 216.512C71.7229 219.061 74.9563 220.927 78.5006 221.984Z" fill="#FFB6B6"/>
<path d="M33.6653 102.161C33.6653 102.161 19.9232 109.996 16.0058 126.661L0.27399 193.319C0.27399 193.319 -2.64852 203.143 10.5961 207.993C23.8406 212.906 40.0077 191.826 40.0077 191.826L32.6082 184.427L46.8477 122.183L33.6653 102.161Z" fill="#FCB51F"/>
<path d="M68.3031 212.159C59.1003 213.341 51.0167 209.547 50.2705 203.64C49.5244 197.795 56.3643 192.075 65.5671 190.893C69.2358 190.396 72.9666 190.769 76.511 191.95L115.561 187.473L136.081 208.553L78.563 208.304C75.5161 210.418 71.9717 211.724 68.3031 212.159Z" fill="#FFB6B6"/>
<path d="M133.59 102.099C133.59 102.099 145.715 112.234 146.648 129.334L150.316 197.733C150.316 197.733 151.498 207.931 137.569 210.418C123.641 212.905 111.453 189.339 111.453 189.339L120.034 183.369L116.987 119.634L133.59 102.099Z" fill="#FCB51F"/>
<path d="M78.9338 137.978H55.3672V166.643H78.9338V137.978Z" fill="#FCB51F"/>
<path d="M260.006 181.939C219.215 181.939 186.01 148.735 186.01 107.944C186.01 67.153 219.215 33.9482 260.006 33.9482C300.796 33.9482 334.001 67.153 334.001 107.944C334.001 148.735 300.796 181.939 260.006 181.939ZM260.006 35.1919C219.899 35.1919 207.773 86.8022 187.254 107.944C159.334 136.734 219.899 180.696 260.006 180.696C300.112 180.696 332.757 148.051 332.757 107.944C332.757 67.837 300.112 35.1919 260.006 35.1919Z" fill="#FCB51F"/>
<path d="M264.234 124.359C264.234 125.478 263.301 126.411 262.182 126.411C261.062 126.411 260.13 125.478 260.13 124.359V108.627L255.404 113.415C254.595 114.223 253.29 114.223 252.481 113.415C251.673 112.607 251.673 111.301 252.481 110.493L260.751 102.222C261.56 101.414 262.866 101.414 263.674 102.222L271.944 110.493C272.752 111.301 272.752 112.607 271.944 113.415C271.136 114.223 269.83 114.223 269.021 113.415L264.296 108.627V124.359H264.234Z" fill="#0B938E"/>
<path d="M287.054 134.743V95.3204L268.399 76.666H245.579C240.977 76.666 237.309 80.3969 237.309 84.9361V134.743C237.309 139.345 241.039 143.013 245.579 143.013H278.783C283.323 143.013 287.054 139.282 287.054 134.743ZM268.399 89.1022C268.399 92.5222 271.197 95.3204 274.617 95.3204H282.887V134.743C282.887 137.044 281.022 138.909 278.721 138.909H245.516C243.216 138.909 241.35 137.044 241.35 134.743V84.9361C241.35 82.6354 243.216 80.77 245.516 80.77H268.337V89.1022H268.399Z" fill="#0B938E"/>
<path d="M78.6387 137.786L55.1094 166.418L55.5898 166.813L79.1192 138.181L78.6387 137.786Z" fill="white"/>
<path d="M55.5859 137.776L55.1055 138.171L78.6274 166.807L79.1079 166.412L55.5859 137.776Z" fill="white"/>
</svg>
