<svg width="593" height="365" viewBox="0 0 593 365" fill="none" xmlns="http://www.w3.org/2000/svg">
<path d="M496.452 299.691H96.5533C87.9665 299.691 81.0664 292.724 81.0664 284.226V236.147H511.939V284.226C511.939 292.724 504.962 299.691 496.452 299.691Z" fill="#908D8D"/>
<path d="M348.045 291.748H246.715V364.117H348.045V291.748Z" fill="#908D8D"/>
<path d="M354.216 355.292H240.551V364.118H354.216V355.292Z" fill="#908D8D"/>
<path d="M511.058 256.446H81.0664V11.1893C81.0664 5.27112 85.8143 0.505859 91.7109 0.505859H500.413C506.31 0.505859 511.058 5.27112 511.058 11.1893V256.446Z" fill="#253847"/>
<path d="M501.36 11.979H90.7539V242.325H501.36V11.979Z" fill="white"/>
<path d="M453.344 185.842C472.566 185.842 488.148 170.235 488.148 150.981C488.148 131.728 472.566 116.121 453.344 116.121C434.122 116.121 418.539 131.728 418.539 150.981C418.539 170.235 434.122 185.842 453.344 185.842Z" fill="#0B938E"/>
<path d="M593 364.584C593 364.844 592.694 365 592.387 365H0V364.117H592.387C592.77 364.169 593 364.325 593 364.584Z" fill="#E6E6E6"/>
<path d="M173.982 208.945C183.847 212.4 187.238 202.574 177.296 199.274C173.52 199.274 157.951 194.361 154.098 192.902L151.555 201.346L169.512 206.182C170.745 207.487 172.286 208.408 173.982 208.945Z" fill="#FFB6B6"/>
<path d="M114.177 158.483C114.177 158.483 103.09 171.66 109.481 177.037C115.871 182.49 144.589 202.634 144.589 202.634L155.753 204.376L158.602 193.773C146.976 185.746 124.263 168.176 114.177 158.483Z" fill="#0B938E"/>
<path d="M143.625 299.603L149.725 322.637L159.485 320.776L157.274 297.043L143.625 299.603Z" fill="#FFB6B6"/>
<path d="M151.12 321.414L147.462 322.099L144.504 331.772C153.066 334.437 144.66 343.653 158.437 342.891C165.754 342.511 166.532 342.891 166.532 339.997C166.532 337.103 161.006 322.023 161.006 322.023C161.55 313.341 152.443 316.159 151.12 321.414Z" fill="#0B1A27"/>
<path d="M111.023 299.691L111.411 322.917L121.481 323.52L125.122 300.596L111.023 299.691Z" fill="#FFB6B6"/>
<path d="M112.955 321.819L109.238 321.661L103.973 330.673C111.562 335.495 101.185 342.689 114.659 345.298C121.861 346.721 122.48 347.274 123.177 344.428C123.874 341.583 122.325 324.981 122.325 324.981C125.036 316.286 115.511 316.839 112.955 321.819Z" fill="#0B1A27"/>
<path d="M117.7 155.615L96.7006 154.07L92.0425 160.016C92.0425 160.016 89.7517 199.625 91.2789 203.641C92.8061 207.656 91.6607 229.97 91.6607 229.97L144.503 226.186L132.819 197.695L133.201 181.172L122.74 161.097L117.7 155.615Z" fill="#0B938E"/>
<path d="M92.95 219.379C92.95 219.379 84.9552 230.934 87.8764 237.055C90.7976 243.177 110.477 278.836 110.477 278.836L107.94 312.047L125.314 310.593C128.081 272.715 131.771 281.285 116.166 245.702L118.318 242.489L136.46 264.527L142.995 302.788L160.368 300.645L150.99 244.631L139.997 223.052L92.95 219.379Z" fill="#0B1A27"/>
<path d="M106.646 124.946C125.406 125.252 125.406 153.764 106.646 154.07C87.8108 153.764 87.8108 125.252 106.646 124.946Z" fill="#FFB6B6"/>
<path d="M101.736 155.696C100.196 156.531 95.8076 153.496 94.1907 149.551C93.1898 146.972 90.7259 147.427 89.186 144.165C88.2621 142.268 91.0339 140.447 90.5719 138.854C89.725 135.895 90.8029 133.316 90.8799 133.013C92.0348 130.206 93.6517 130.281 94.9606 127.095C95.7306 125.123 95.2686 124.895 95.9616 123.909C97.8864 121.026 103.584 120.95 107.588 122.316C108.974 122.771 112.284 120.267 114.979 122.088C118.136 124.212 120.292 130.433 119.753 131.571C119.445 132.254 117.828 131.571 114.363 132.102C111.207 132.557 115.364 134.909 111.823 135.744C107.588 136.654 106.356 135.82 105.201 137.109C103.969 138.475 103.738 141.282 104.893 142.951C105.432 143.785 106.202 144.089 106.048 144.62C105.894 145.682 104.97 145.075 104.585 146.213C104.2 147.503 107.203 149.248 106.972 149.627C106.972 150.082 102.968 148.261 101.967 147.958C101.736 148.186 100.735 150.461 101.89 151.448C103.738 152.965 102.429 153.572 103.276 154.786C104.277 156.075 102.737 155.241 101.736 155.696Z" fill="#0B1A27"/>
<path d="M340.25 207.023H184.902C178.63 207.023 173.582 201.859 173.582 195.616V77.2226C173.582 70.9021 178.707 65.8149 184.902 65.8149H340.25C346.522 65.8149 351.57 70.9792 351.57 77.2226V195.616C351.57 201.936 346.522 207.023 340.25 207.023Z" fill="white"/>
<path d="M340.25 207.023H184.902C178.63 207.023 173.582 201.859 173.582 195.616V77.2226C173.582 70.9021 178.707 65.8149 184.902 65.8149H340.25C346.522 65.8149 351.57 70.9792 351.57 77.2226V195.616C351.57 201.936 346.522 207.023 340.25 207.023ZM184.902 67.7419C179.701 67.7419 175.494 71.9813 175.494 77.2226V195.616C175.494 200.857 179.701 205.096 184.902 205.096H340.25C345.451 205.096 349.658 200.857 349.658 195.616V77.2226C349.658 71.9813 345.451 67.7419 340.25 67.7419H184.902Z" fill="#3F3D56"/>
<path d="M323.374 80.818C324.834 80.818 326.017 79.435 326.017 77.7291C326.017 76.0231 324.834 74.6401 323.374 74.6401C321.914 74.6401 320.73 76.0231 320.73 77.7291C320.73 79.435 321.914 80.818 323.374 80.818Z" fill="#3F3D56"/>
<path d="M330.865 80.818C332.568 80.818 333.949 79.435 333.949 77.7291C333.949 76.0231 332.568 74.6401 330.865 74.6401C329.162 74.6401 327.781 76.0231 327.781 77.7291C327.781 79.435 329.162 80.818 330.865 80.818Z" fill="#3F3D56"/>
<path d="M338.354 80.818C339.814 80.818 340.998 79.435 340.998 77.7291C340.998 76.0231 339.814 74.6401 338.354 74.6401C336.894 74.6401 335.711 76.0231 335.711 77.7291C335.711 79.435 336.894 80.818 338.354 80.818Z" fill="#3F3D56"/>
<path d="M190.018 123.181C189.252 123.181 188.562 123.924 188.562 124.946C188.562 125.41 188.716 125.875 188.945 126.153C189.252 126.525 189.558 126.711 189.941 126.711H336.899C337.665 126.711 338.354 125.968 338.354 124.946C338.354 124.481 338.201 124.017 337.972 123.738C337.665 123.366 337.359 123.181 336.976 123.181H190.018Z" fill="#908D8D"/>
<path d="M310.157 123.181V126.711H189.521C188.984 126.711 188.524 126.499 188.217 126.217C187.833 125.934 187.68 125.44 187.68 125.016C187.68 124.028 188.524 123.251 189.598 123.251L310.157 123.181Z" fill="#0B938E"/>
<path d="M334.429 116.12H314.964C312.844 116.12 311.039 114.373 311.039 112.149C311.039 109.925 312.766 108.177 314.964 108.177H334.429C336.549 108.177 338.354 109.925 338.354 112.149C338.354 114.373 336.549 116.12 334.429 116.12Z" fill="#908D8D"/>
<path d="M210.191 95.8217H190.725C188.606 95.8217 186.801 94.2684 186.801 92.2914C186.801 90.3145 188.528 88.7612 190.725 88.7612H210.191C212.31 88.7612 214.116 90.3145 214.116 92.2914C214.116 94.2684 212.389 95.8217 210.191 95.8217Z" fill="#908D8D"/>
<path d="M190.018 166.426C189.252 166.426 188.562 166.984 188.562 167.75C188.562 168.098 188.716 168.447 188.945 168.656C189.252 168.935 189.558 169.074 189.941 169.074H336.899C337.665 169.074 338.354 168.517 338.354 167.75C338.354 167.402 338.201 167.053 337.972 166.844C337.665 166.566 337.359 166.426 336.976 166.426H190.018Z" fill="#908D8D"/>
<path d="M237.023 165.543V169.956H189.521C188.984 169.956 188.524 169.691 188.217 169.338C187.833 168.985 187.68 168.368 187.68 167.838C187.68 166.603 188.524 165.632 189.598 165.632L237.023 165.543Z" fill="#0B938E"/>
<path d="M334.429 158.483H314.964C312.844 158.483 311.039 156.929 311.039 154.953C311.039 152.976 312.766 151.422 314.964 151.422H334.429C336.549 151.422 338.354 152.976 338.354 154.953C338.354 156.929 336.549 158.483 334.429 158.483Z" fill="#908D8D"/>
</svg>
