<?xml version="1.0" encoding="utf-8"?>
<!-- Generator: Adobe Illustrator 27.0.1, SVG Export Plug-In . SVG Version: 6.00 Build 0)  -->
<svg version="1.1" id="Layer_1" xmlns="http://www.w3.org/2000/svg" xmlns:xlink="http://www.w3.org/1999/xlink" x="0px" y="0px"
	 viewBox="0 0 641.5 626.4" style="enable-background:new 0 0 641.5 626.4;" xml:space="preserve">
<style type="text/css">
	.st0{fill:#07615E;}
	.st1{fill:#53E0DC;}
	.st2{fill:#0B1A27;}
	.st3{fill:#F95A5A;}
	.st4{fill:#F49F7A;}
	.st5{opacity:0.1;enable-background:new    ;}
	.st6{fill:#FCB51F;}
	.st7{fill:#FFFFFF;}
	.st8{fill:#7D5A0F;}
	.st9{fill:#0B938E;}
	.st10{fill:#0B1A27;stroke:#314A5B;stroke-miterlimit:10;}
	.st11{fill:#87310F;}
</style>
<g id="Layer_1_00000163044098175290448140000014498224072943490970_">
	<g>
		<path class="st0" d="M198.1,459.5h-80.4c-2,0-3.7-1.6-3.7-3.7s1.6-3.7,3.7-3.7h80.4c2,0,3.7,1.6,3.7,3.7S200.1,459.5,198.1,459.5
			L198.1,459.5z"/>
		<path class="st0" d="M54.6,479.2c0,0.7,0.5,1.2,1.2,1.2h204.3c0.7,0,1.2-0.5,1.2-1.2s-0.5-1.2-1.2-1.2H55.8
			C55.1,478,54.6,478.5,54.6,479.2z"/>
	</g>
	<ellipse transform="matrix(0.7071 -0.7071 0.7071 0.7071 18.9067 394.449)" class="st1" cx="485.6" cy="174.4" rx="65" ry="65"/>
	<path class="st2" d="M0,561.3c0,0.7,0.5,1.2,1.2,1.2h522.3c0.7,0,1.2-0.5,1.2-1.2s-0.5-1.2-1.2-1.2H1.2C0.5,560.1,0,560.6,0,561.3z
		"/>
	<g>
		<path class="st3" d="M7.6,480.9l-1.7-1.8L169,330.3l58.7,26.3l63.4-108.8l52.1-25.1l48.3,80.5c26.1-67.5,91.5-138.1,169.8-209.8
			l1.9,1.6c-73.5,70.4-136.4,141-172,212.5l-44.7-74.7c-2.1-3.5-6.5-4.9-10.3-3.2l0,0c-28.5,13.3-52.3,34.9-68.1,62l-39.7,68
			l-9.1-4.1c-30.3-13.6-65.9-7.9-90.4,14.5L7.6,480.9z"/>
		<polygon class="st3" points="565,107 562.6,107.2 558.6,98.5 549.6,96.7 549.3,94.2 564,92.2 		"/>
	</g>
	<polygon class="st4" points="310.7,160 319.4,126.3 353.6,124.6 363.8,171.1 	"/>
	<polygon class="st5" points="310.7,160 319.4,126.3 353.6,124.6 363.8,171.1 	"/>
	<circle class="st4" cx="333.2" cy="103.9" r="41.2"/>
	<path class="st2" d="M287.7,330.4l-5.5,5.3l-26.3,56.4c-8.8,18.8-13.6,39.2-14.3,59.9l-3.3,109.1h66.5l29.9-66.7
		c0.4-1,1.9-0.9,2.2,0.1l20.1,65.9h59.9l13.9-125.1l-37.3-88.4L287.7,330.4z"/>
	<path class="st6" d="M356.6,156.6h-44.4L266.8,181c-1.7,0.9-2.6,2.9-2.2,4.8l10.6,47.1c0,0-2.6,30.3,3.5,52.9
		c6.1,22.5,3.5,52,3.5,52l111.4,9.1l3.5-102.3l-1.6-66.2c0-1.4-0.8-2.7-2.1-3.3L356.6,156.6L356.6,156.6L356.6,156.6z"/>
	<path class="st6" d="M271.8,180c0,0-27.5,2.9-31.8,20.2s-7.8,106.7-7.8,106.7s2.6,53,31.6,27.8s26.4-101.5,26.4-101.5l-19-51.2
		L271.8,180z"/>
	<path class="st7" d="M531.9,625.4H373.5c-5.4,0-9.7-4.4-9.7-9.7V451.9c0-5.4,4.4-9.7,9.7-9.7h158.4c5.4,0,9.7,4.4,9.7,9.7v163.8
		C541.7,621,537.3,625.4,531.9,625.4z"/>
	<path class="st2" d="M531.9,626.4H373.5c-5.9,0-10.7-4.8-10.7-10.7V451.9c0-5.9,4.8-10.7,10.7-10.7h158.4c5.9,0,10.7,4.8,10.7,10.7
		v163.8C542.7,621.6,537.8,626.4,531.9,626.4z M373.5,443.2c-4.8,0-8.7,3.9-8.7,8.7v163.8c0,4.8,3.9,8.7,8.7,8.7h158.4
		c4.8,0,8.7-3.9,8.7-8.7V451.9c0-4.8-3.9-8.7-8.7-8.7L373.5,443.2L373.5,443.2z"/>
	<g>
		<path class="st8" d="M459,582.4h-13.1c-1.6,0-2.9-1-2.9-2.2V524c0-1.2,1.3-2.2,2.9-2.2H459c1.6,0,2.9,1,2.9,2.2v56.2
			C461.9,581.4,460.6,582.4,459,582.4z"/>
		<path class="st8" d="M415.8,549.2c-1.3,0-2.3,0.8-2.3,1.8v29c0,1,1,1.8,2.3,1.8h13.1c1.3,0,2.3-0.8,2.3-1.8v-29c0-1-1-1.8-2.3-1.8
			H415.8z"/>
		<path class="st8" d="M489.1,582.4H476c-1.6,0-2.9-1-2.9-2.2V488c0-1.2,1.3-2.2,2.9-2.2h13.1c1.6,0,2.9,1,2.9,2.2v92.1
			C492,581.4,490.7,582.4,489.1,582.4z"/>
	</g>
	<g>
		<path class="st9" d="M208.1,178.6h-14.9c-1.8,0-3.3-1.1-3.3-2.5v-64.2c0-1.4,1.5-2.5,3.3-2.5h14.9c1.8,0,3.3,1.1,3.3,2.5V176
			C211.4,177.4,209.9,178.6,208.1,178.6L208.1,178.6L208.1,178.6z"/>
		<path class="st9" d="M158.8,140.7c-1.5,0-2.7,0.9-2.7,2.1V176c0,1.1,1.2,2.1,2.7,2.1h14.9c1.5,0,2.7-0.9,2.7-2.1v-33.2
			c0-1.1-1.2-2.1-2.7-2.1H158.8z"/>
		<path class="st9" d="M242.5,178.6h-14.9c-1.8,0-3.3-1.1-3.3-2.5V70.8c0-1.4,1.5-2.5,3.3-2.5h14.9c1.8,0,3.3,1.1,3.3,2.5V176
			C245.8,177.4,244.3,178.6,242.5,178.6L242.5,178.6L242.5,178.6z"/>
	</g>
	<path class="st4" d="M425.4,466c6.3-0.7,11.1-6.6,13.2-12.1c1.6-4.2,1.8-8.8,0.6-13.1c-1.2-4.4-4.2-7.9-6.5-11.7l-1.5-13.7l0.2-0.1
		l3.7-65.2c0.9-15.2-5.1-30-16.7-39.9c-6.9-5.9-14.2-8.8-18.9-1.4c-7.8,12.3,2.3,62.8,9,91.6l2.6,30.7c0.1,1-1.3,3-1.7,3.9
		c-0.6,1.3-1.3,2.5-1.7,3.8c-0.9,2.8-1.2,5.8-0.9,8.8c0.8,6.4,4.9,13,10.4,16.4c2.3,1.4,4.9,2.2,7.6,2.1
		C425.1,466,425.2,466,425.4,466z"/>
	<path class="st6" d="M383.4,175.4c0,0,24.8-7.3,35.3,18.7c8.4,20.7,17.2,106.6,20.4,140.5c0.7,7-5.5,12.6-12.4,11.4l-30.7-5.5
		c-5-0.9-8.6-5.2-8.7-10.3l-1.7-153.4l0,0L383.4,175.4z"/>
	<g>
		<path class="st2" d="M76.1,165.1H45.7c-2,0-3.7-1.6-3.7-3.7s1.6-3.7,3.7-3.7h30.4c2,0,3.7,1.6,3.7,3.7S78.1,165.1,76.1,165.1z"/>
		<path class="st2" d="M76.1,113H45.7c-2,0-3.7-1.6-3.7-3.7s1.6-3.7,3.7-3.7h30.4c2,0,3.7,1.6,3.7,3.7S78.1,113,76.1,113z"/>
		<path class="st2" d="M76.1,75.4H45.7c-2,0-3.7-1.6-3.7-3.7s1.6-3.7,3.7-3.7h30.4c2,0,3.7,1.6,3.7,3.7S78.1,75.4,76.1,75.4z"/>
		<path class="st2" d="M40.8,178.8c0,0.7,0.5,1.2,1.2,1.2h204.3c0.7,0,1.2-0.5,1.2-1.2s-0.5-1.2-1.2-1.2H42
			C41.4,177.6,40.8,178.1,40.8,178.8z"/>
	</g>
	<path class="st10" d="M434.8,486.8c0,0.7,0.5,1.2,1.2,1.2h204.3c0.7,0,1.2-0.5,1.2-1.2s-0.5-1.2-1.2-1.2H436
		C435.4,485.6,434.8,486.1,434.8,486.8L434.8,486.8z"/>
	<path class="st2" d="M374.8,583.8c0,0.7,0.5,1.2,1.2,1.2h204.3c0.7,0,1.2-0.5,1.2-1.2s-0.5-1.2-1.2-1.2H376
		C375.4,582.6,374.8,583.1,374.8,583.8L374.8,583.8z"/>
	<path class="st4" d="M236.5,171.7c-11.5,1-15.6,15.6-12,24.8c1.2,3.2,3,6.2,3.9,9.4c1.1,3.6,1.1,7.5,1.5,11.2
		c0.4,3.5,0.5,7.1,0.3,10.6l-3.6,60c-0.9,15.2,5.1,30,16.7,39.9c6.9,5.9,14.2,8.8,18.9,1.4c7.8-12.3-2.3-62.8-9-91.6l-1.9-21.9
		c-0.4-4.8,0-9.6,0.8-14.3c0.5-2.9,2.7-8.3,2.4-11.2C253.5,177.8,244.2,171,236.5,171.7z"/>
</g>
<g id="Layer_2_00000167362912802114920190000017659289418058416525_">
	<g>
		<path class="st11" d="M414.4,101.5c0.6,1.8,0.3,3.5-1,5c-0.4,0.4-0.5,0.6,0,1c1.3,1,1.7,3.1,0.9,4.7c-0.6,1.4-2.2,2.1-4,1.8
			c-1.2-0.2-2.2-0.9-2.8-2.1c-0.2,0.5-0.4,0.9-0.7,1.4c-0.2,0.5-0.5,0.9-0.9,1.3c-0.5,0.4-0.5,0.8,0,1.3c1.3-1.7,2.8-2.2,4.2-1.4
			c1.1,0.6,1.7,2,1.3,3.2c-0.2,0.8-0.8,1.3-1.5,1.6c-0.7,0.3-1.4,0.3-2.3,0.1c1.5,1.5,3.2,2.1,5.2,2.3c-1,0.5-1.8,0.5-2.6,0.3
			c-1.8-0.4-3.4-1-4.2-2.8c-0.4-0.9-0.9-1.8-1.4-2.6c-0.1-0.2-0.2-0.7-0.6-0.3c-0.3,0.2-1,0.1-0.7,0.9c0.7,1.7,2.6,8.9,2,10.7
			c-0.1,0.2-1.3-3.6-1.2-3.4c1.7,2.3,3.8,4.2,6,6c0.6,0.5,0.9,1.1,0.9,1.9c-0.4,0.3-0.8,0.1-1.2-0.1c-0.8-0.4-12.1-3.4-12.8-3.9
			c-0.8-0.7,7.9,0.7,7.5,0.6c-0.3,2.8-2,4-4.6,4c0.2,1,0.7,1.6,1.4,2.2c1.3,1,1.8,2.5,1.6,4.1c-0.2,1.8-1,3.3-2.2,4.6
			c-0.2,0.2-0.4,0.6-0.8,0.3c-0.3-0.2-0.1-0.5,0-0.8c0.4-0.9,0.8-1.8,1.1-2.8c0.3-0.9,0.3-1.8,0.1-2.7c-0.1-0.4-0.2-0.8-0.7-1
			c-0.3,0.7-0.5,1.4-0.9,1.9c-1,1.4-2.6,1.7-4.1,0.7c-0.2-0.1-0.4-0.3-0.7-0.2c-0.8,0.3-1.7,0.2-2.6,0.2c0.7,2.5,0.9,4.8-0.2,7.2
			c-0.1,0.2-0.2,0.4-0.3,0.6c-0.5,0.8-1.1,1.6-1.9,2.2c-1.8,1.5-3.7,2.9-5.5,4.3c-0.4,0.3-0.5,0.5-0.2,1c0.3,0.4,0.4,0.9,0.6,1.4
			c0.1,0.3,0.2,0.6-0.1,0.8c-0.3,0.2-0.6,0-0.8-0.2c-0.4-0.4-0.9-0.8-1.2-1.2c-0.3-0.4-0.6-0.5-1-0.3c-0.5,0.2-1,0.1-1.5-0.1
			c-0.5-0.3-0.8-0.1-1.1,0.3c-0.5,0.5-1,1-1.7,1.2c-0.3,0.1-0.7-0.1-1-0.2c-1.5-0.5-3-1.1-4.6-1.6c-2.1-0.7-4.1-0.7-6.3-0.5
			c-1.5,0.1-4.6,2.1-5.6,0.3c-0.2-0.5-0.5-1.4-0.7-2.7c-0.6-3.5-1.8-6.8-2.6-10.2c-0.9-3.5,0-7.1,0.1-10.6c0.1-3.6-0.2-7.2,0-10.8
			c0-0.5,0.2-0.8,0.8-0.8c0.9,0.1,1.8,0,2.6-0.2c2.6-0.5,4.8-3,6.3-5.2c0.8-2.1,0.9-4.2,0.7-6.3c-0.5-4.5-2.6-6.5-6.7-7
			c-0.9-0.1-1.4,0.3-1.4,1.2c0,0.7-0.1,1.4-0.4,2c-0.2,0.7-0.6,1.3-1.3,1.5c-0.4,0.1-0.5,0.4-0.4,0.8c0.2,0.8,0.2,1.6-0.2,2.4
			c-0.9,1.8-3.4,2-4.8,0.4c-0.4-0.4-0.8-0.6-1.4-0.6c-1.1,0.1-2-0.5-2.4-1.5c-0.6-1.6-0.6-3.2,0.4-4.6c0.4-0.7,0.5-1.2,0.2-2
			c-0.1-0.3-0.2-0.6-0.4-0.9c-0.5-1.2-0.7-2.4-0.1-3.6c0.3-0.8,0.3-1.6,0.1-2.5c-0.3-1.3-0.2-2.6,0.5-3.8c0.3-0.5,0.4-1,0.5-1.6
			c0.2-1.7,0.2-1.7-1.2-2.6c2,3.8-0.6,8-4.2,9c-1.5,0.4-3.3-0.2-4.1-1.4c-0.6-0.9-0.8-2.7,0.5-3.8c0.3-0.2,0.2-0.4-0.1-0.6
			c-0.4-0.3-0.8-0.7-1-1.2c-0.9-1.5-0.9-3.2-0.4-4.8c0.3-0.9,0.7-1.8,1.2-2.7c0.2-0.3,0.2-0.6-0.1-1c-1.3-1.3-1.4-2.8-0.8-4.4
			c0.4-1,0.4-1-0.6-1.3c-0.5-0.2-0.6,0-0.6,0.4c0,1.4-0.5,2.7-1.2,3.9c-0.6,0.9-1.2,1.7-2.3,2c0.4,0-4.1,1.9-6.1-2.8
			c0-0.9,0.2-1.7,0.6-2.5c0.1-0.3,0.4-0.5,0.4-0.9c-1.5-0.2-2.9-0.6-3.5-2.1c-0.6-1.4-0.2-2.8,0.9-4c-0.8,0.2-1.4,0.1-2,0.2
			c-0.5,0-0.8,0.2-0.7,0.8c0.1,0.7-0.1,1.4-0.2,2.1c-0.7,3-3.1,4.5-6,3.9c-0.4-0.1-0.4,0.1-0.4,0.4c0,0.4,0,0.7,0,1.1
			c-0.7,3.6-3.7,6.3-8.1,5.7c-0.3,0-0.6-0.2-0.9-0.5c-0.9-0.8-1.2-1.8-1.3-2.9c-0.2,0.5-0.4,0.9-0.6,1.4c-0.6,1.2-1.3,2.3-2.7,2.8
			c-0.4,0.1-0.7,0.5-1,0.9c-0.6,0.9-0.9,1.9-0.8,2.9c0,1.3-0.1,2.6-0.2,4c-0.2,2.9-0.3,5.8-0.4,8.6c-0.2,10.3,0.1,20.6,4,30.2
			c1.7,4.1,3.8,9,8.1,10.9c0.6,0.2,1.6,0.3,2,0.9c0.2,0.4,0.1,0.8,0.1,1.2c-0.1,1-0.5,2-0.9,3.1c-0.5,2.1-1.8,7-2.1,7.2
			c-2.5-0.2-3.5-1.7-6-1.3c-1.7,0.2-3.8,0.9-5.4,0.2c-0.7-0.3-1.2-0.8-1.7-1.3c-1.2-1.2-2.4-2.5-2.7-4.2c0-0.1,0-0.2-0.1-0.4
			c-0.1-0.1-0.2-0.1-0.3-0.2c-3.4-1.1-5.8-2.7-7.1-6.2c-0.3-0.8-0.3-1.6-0.4-2.5c-0.4,0.3-0.7,0.6-0.9,0.9c-1.7,2.5-0.7,5.7,2.3,7.1
			c0.2,0.1,0.5,0.1,0.7,0.5c-0.5,0.1-0.9,0-1.2-0.1c-3-0.9-4.6-4.2-3.4-7.2c0.2-0.5,0.2-0.7-0.4-0.7c-1.2,0-2.3-0.3-3.4-0.8
			c-3.8-1.7-5.8-5.5-5.1-9.6c0.5-2.4,1.7-4.4,3.9-5.8c-0.8,0-1.4,0-2,0c-2-0.1-4.5-1.7-4.2-4.8c0.1-0.7,0.2-1.3,0.2-1.9
			c0-0.3,0.1-0.5,0-0.8c-1.2,2.4-2,3.3-3.7,4c-2,0.9-4.4,0.8-5.3-0.3c2,0.3,3.8,0.1,5.5-1c1.7-1.2,2.4-2.8,2.3-4.9
			c-0.2,0.1-0.4,0.2-0.6,0.2c-1.5,0.6-3,0.7-4.5,0.2c-2-0.6-3.1-2.6-2.6-4.4c0.5-1.7,2.5-2.8,4.5-2.3c1.4,0.3,2.5,1.2,3.4,2.3
			c0.2-0.7,0.7-1.2,1.2-1.8c-0.9-0.2-1.7-0.3-2.5-0.6c-2.4-0.9-3-2.2-2.3-4.6c0.3-0.9,0.3-1.8,0-2.8c-0.3-0.8-0.4-1.7-0.3-2.5
			c0.2-1.5,1-2.7,1.9-3.8c0.1-0.2,0.4-0.3,0.3-0.8c-1.1,1.6-2.3,2.6-4.1,2.8c-1.9,0.2-4-0.7-4.4-1.9c2.5,1.3,4.8,1.5,6.9-0.9
			c-0.4-0.1-0.8-0.2-1.1-0.4c-1.3-0.5-2.4-1.2-2.9-2.6c-0.8-2.2,0.5-4.1,2.8-4.1c0.2,0,0.3,0.1,0.5-0.1c-0.2-0.7-0.2-1.4,0-2
			c0.1-0.3,0-0.4-0.3-0.5c-1.8-0.4-2.7-1.8-3-3.5c-0.4-2.2,0.8-4.2,3-5.3c1.1-0.6,2.3-0.9,3.5-1c-1.7-2.9,0-6.1,2.3-7.1
			c1.2-0.5,2.5-0.7,3.8-0.6c0.8,0.1,1.5,0.3,2.4,0.5c-0.3-1.1-0.3-2.2-0.1-3.2c0.8-3.5,3.1-5.5,6.4-6.6c1.6-0.5,3.3-0.6,5.1-0.4
			c-0.1-0.3-0.1-0.6-0.2-0.9c-0.8-3.1,0.5-6.3,3.2-8c1.6-1,3.3-1.3,5.1-1.1c0.2,0,0.5,0.2,0.7-0.2c1-2.4,3-3.2,5.5-3.4
			c1.7-0.1,3.4,0.3,5,0.7c0.2,0.1,0.5,0.3,0.6-0.1c0.2-0.8,0.8-1.5,0.9-2.4c0.3-2.2,1.4-4,3-5.5c3.7-3.5,9.7-2.9,13.1,0.2
			c0.2,0.2,0.5,0.3,0.8,0.3c2.9-0.1,5.3,1,7.2,3.1c1.2,1.3,2.4,2.5,4,3.4s2.7,2.4,3.3,4.1c0.2-0.3,0.4-0.5,0.5-0.8
			c1.9-2.9,5.2-4.4,8.6-3.8c2.2,0.4,4,1.5,5.4,3.2c0.3,0.3,0.5,0.5,0.8,0s0.8-0.8,1.3-1c3.2-1.3,6.2-0.8,9,1.2
			c0.3,0.2,0.5,0.4,0.9,0.4c1.9,0,3.4,0.8,4.4,2.6c0.2-0.1,0.4-0.2,0.5-0.4c2.5-1.5,6.4-0.4,7.5,2.3c0.4,0.8,0.8,1.6,1.3,2.4
			c0.2,0.3,0.4,0.4,0.8,0.5c3.2,0.6,5.8,3,6.4,6.2c0.3,1.5,1.1,2.5,2.5,3c2.7,1,4.2,3,4.4,5.8c0.1,1.1,0.5,1.3,1.4,1.5
			c1.4,0.4,2.7,1,3.8,2c1.4,1.4,1.7,3.8,0.6,5.1c-0.3,0.4-0.3,0.5,0,0.8c2.3,2.2,2.5,6.3,0.3,8.6c-0.4,0.4-0.2,0.5,0.1,0.8
			c3,2,4.6,4.8,4.6,8.5c0,0.8,0.2,1.2,1,1.4c1.5,0.4,2.9,1,3.8,2.4c1.1,1.5,0.8,3.8-0.6,4.5C414.2,100.9,414.3,101.1,414.4,101.5z"
			/>
		<path class="st11" d="M403.8,127.7"/>
		<path class="st11" d="M403.8,127.6L403.8,127.6L403.8,127.6L403.8,127.6z"/>
	</g>
</g>
</svg>
