<?xml version="1.0" encoding="utf-8"?>
<!-- Generator: Adobe Illustrator 27.0.1, SVG Export Plug-In . SVG Version: 6.00 Build 0)  -->
<svg version="1.1" id="Layer_1" xmlns="http://www.w3.org/2000/svg" xmlns:xlink="http://www.w3.org/1999/xlink" x="0px" y="0px"
	 viewBox="0 0 579.1 600" enable-background="new 0 0 579.1 600" xml:space="preserve">
<g id="Layer_1_00000084497203263348596880000013968961361898969256_">
	<path fill="#FFB6B6" d="M156.8,40c25.7,0,46.6,24.9,46.6,50.6s-19.7,51.1-45.4,51.1s-47.8-25.4-47.8-51.1S131.1,40,156.8,40z"/>
	<path fill="#0B1A27" d="M211.3,591.1c-23.1,5.6-47.3,8.6-72.1,8.6c-26.9,0-53-3.5-77.9-10c-2.7-10-5.8-21.1-9.3-33.4
		C20.8,446,84.2,367.8,84.2,367.8l15.6-12.3l140.7,18.9C256.9,454.2,246.3,513.5,211.3,591.1L211.3,591.1z"/>
	<polygon fill="#FCB51F" points="188.4,157.1 122.6,150.5 74.8,191.7 89.7,339.8 84.2,367.8 240.5,374.4 231.2,334.9 242.7,190 	"/>
	<rect x="104.5" y="234.5" fill="#FFFFFF" width="105.3" height="164.6"/>
	<path fill="#0B938E" d="M194.8,256.1h-29.4c-0.8,0-1.4-0.6-1.4-1.4s0.6-1.4,1.4-1.4h29.4c0.8,0,1.4,0.6,1.4,1.4
		S195.6,256.1,194.8,256.1z"/>
	<path fill="#0B938E" d="M194.8,267.2h-29.4c-0.8,0-1.4-0.6-1.4-1.4s0.6-1.4,1.4-1.4h29.4c0.8,0,1.4,0.6,1.4,1.4
		S195.6,267.2,194.8,267.2z"/>
	<path fill="#0B938E" d="M194.8,278.3h-29.4c-0.8,0-1.4-0.6-1.4-1.4s0.6-1.4,1.4-1.4h29.4c0.8,0,1.4,0.6,1.4,1.4
		S195.6,278.3,194.8,278.3z"/>
	<path fill="#E6E6E6" d="M193.5,317.2h-71.6c-1.9,0-3.5-1.6-3.5-3.5s1.6-3.5,3.5-3.5h71.6c1.9,0,3.5,1.6,3.5,3.5
		S195.4,317.2,193.5,317.2z"/>
	<path id="b-294" fill="#FFB6B6" d="M130.3,396.2c2,1.5,4.4,2.5,6.8,3.2c8.9,2.4,22.1,1,27.5-7.5c5.1-7.9-0.9-21-13.5-29.1
		c-5-3.3-10.7-5.3-16.6-6l-53.7-33.4l-40.2,4.7c0,0,62.2,39.9,76.7,49.2c2.2,1.4,3.9,3.4,5,5.7c1.3,2.9,2.4,5.9,4,8.7
		C127.2,393.5,128.6,395,130.3,396.2z"/>
	<path fill="#FCB51F" d="M81.1,186.4c0,0-22,13.7-28.3,40.5l-23.4,99c-1.2,5.1,0.7,10.3,4.9,13.4c11.3,8.4,34.3,24.8,49.8,30.4
		c21.3,7.9,47.3-26,47.3-26l-9.8-9.8c-1.1-1.1-26.3-7.4-37.7-14.7c-2.6-1.6-3.8-4.7-3.1-7.7l21.5-92l-21.2-32.2L81.1,186.4z"/>
	<path id="c-295" fill="#FFB6B6" d="M142,374.2c-6.4,1.2-13-0.7-17.6-5.9c-8.1-9.2-7.7-23,1.2-31.5c7.8-7.5,17.5-7.3,27.2-4.1
		c2.9,1,6,2.1,9.1,1.6c1.5-0.2,3-0.6,4.5-0.9c3.2-0.6,6.4-1.2,9.7-1.7c8-1.4,16-2.9,24-4.3c7.3-1.3,14.5-2.6,21.8-3.9l34.5,21.4
		c-8.1,1.4-16.3,2.8-24.4,4.2c-14.9,2.6-29.8,5.2-44.7,7.7c-4.5,0.8-9.1,1.6-13.6,2.4c-4.6,0.8-8.7,1.3-12.3,4.5
		C155.9,368,149,372.8,142,374.2z"/>
	<path fill="#FCB51F" d="M242.7,190c0,0,18.6,14.6,20.1,42.1l5.4,101.6c0.3,5.1-2.6,9.9-7.3,12.1c-12.2,5.6-36.1,16.1-52.2,19
		c-18.2,3.2-36.8-23.1-43.1-33.1c-1.2-1.9-0.4-4.5,1.8-5.3l50-6.3c1.5-0.6,2.5-2.1,2.4-3.7l-4.8-99.8L242.7,190z"/>
	<rect x="119.1" y="244.4" fill="#FCB51F" width="32.9" height="49.2"/>
	<path fill="#0B1A27" d="M430.4,326.5c-65.6,0-119-53.4-119-119s53.4-119,119-119s119,53.4,119,119S496,326.5,430.4,326.5z
		 M430.4,90.5c-64.5,0-84,83-117,117c-44.9,46.3,52.5,117,117,117s117-52.5,117-117S494.9,90.5,430.4,90.5z"/>
	<path fill="#3DA6A2" d="M437.2,228.5c0,1.8-1.5,3.3-3.3,3.3s-3.3-1.5-3.3-3.3v-25.3l-7.6,7.7c-1.3,1.3-3.4,1.3-4.7,0
		s-1.3-3.4,0-4.7l13.3-13.3c1.3-1.3,3.4-1.3,4.7,0l0,0l13.3,13.3c1.3,1.3,1.3,3.4,0,4.7s-3.4,1.3-4.7,0l-7.6-7.7L437.2,228.5
		L437.2,228.5z"/>
	<path fill="#3DA6A2" d="M473.9,245.2v-63.4l-30-30h-36.7c-7.4,0-13.3,6-13.3,13.3v80.1c0,7.4,6,13.3,13.3,13.3h53.4
		C467.9,258.5,473.9,252.5,473.9,245.2z M443.9,171.8c0,5.5,4.5,10,10,10h13.3v63.4c0,3.7-3,6.7-6.7,6.7h-53.4c-3.7,0-6.7-3-6.7-6.7
		v-80.1c0-3.7,3-6.7,6.7-6.7h36.7v13.4H443.9z"/>
	<g>
		<path fill="#29353D" d="M121.1,286.2c1.4-0.8,2.8-1.4,4.4-1.9c-0.2-0.2-0.3-0.3-0.5-0.4c-0.9-0.8-1-1.6-0.2-2.6
			c0.6-0.7,1.2-1.5,1.8-2.2c0.2-0.3,0.3-0.5,0.1-0.8c-1.3-2.7-2.4-5.5-3.5-8.4c-1.1-2.8-1.4-5.6-1-8.6c0.4-2.3,0.7-4.6,1.3-6.9
			c0.2-0.9,0.7-1.7,1.3-2.4c2.6-2.7,5.6-4.6,9.2-5.7c1.3-0.4,2.6-0.3,3.8,0.1c3.1,1.1,5.9,2.9,8.3,5.1c1.1,1.1,1.8,2.4,2,4
			c0.3,2.5,0.6,5,0.8,7.5c0.2,2.1-0.2,4.2-0.8,6.3c-0.6,2-1.1,4-1.6,6.1c-0.2,1-0.5,2-0.8,3c-0.1,0.3,0,0.5,0.1,0.7
			c0.9,1.2,1.5,2.6,1.7,4.1c0,0.4,0.1,0.7-0.1,1.1c-0.1,0.2,0,0.3,0.2,0.3c0.9,0.3,1.7,0.6,2.5,1.1c-0.1,0.2-0.4,0.3-0.5,0.5
			c-0.2,0-0.3,0.2-0.5,0.3c-2.7,1.8-5.6,3.3-8.7,4.4c-0.2,0.1-0.5,0.1-0.7,0.1h-0.1h0.1c0.1,0.1,0,0.2-0.1,0.2
			c-0.2,0-0.4,0.1-0.6,0.2c-0.7,0.2-1.5,0.4-2.3,0.5c-2.2,0.4-4.3,0.4-6.5,0c-2-0.4-3.9-1.2-5.6-2.4
			C123.4,288.5,122.1,287.4,121.1,286.2z M126,267.8c0,0.6,0,1.2,0.1,1.9c0.2,2.1,1,3.9,2.7,5.2c1.7,1.4,3.7,2.6,5.8,3.4
			c0.6,0.2,1.1,0.2,1.7,0.1c0.7-0.2,1.4-0.5,2-0.8c1.8-0.9,3.4-2.1,4.9-3.6c0.8-0.8,1.3-1.7,1.6-2.7c0.2-1,0.3-2.1,0.2-3.2
			c-0.1-1.5-0.3-3.1-0.3-4.6c0-2.2-0.4-4.4-1-6.4c-0.2-0.7-0.5-1.5-1.1-2c-1.7-1.4-3.5-2.5-5.6-3.3c-0.7-0.2-1.4-0.3-2.1-0.1
			c-2.2,0.6-4.2,1.7-6.1,3c-0.7,0.5-1.1,1.1-1.4,1.9c-0.4,1-0.6,2.1-0.8,3.3C126.1,262.5,126.3,265.2,126,267.8z"/>
		<path fill="#FBA981" d="M141.4,290.9L141.4,290.9L141.4,290.9L141.4,290.9L141.4,290.9z"/>
		<path fill="#FBA981" d="M144.6,271.2c-0.2,1.1-0.8,1.9-1.6,2.7c-1.4,1.4-3.1,2.6-4.9,3.6c-0.6,0.3-1.3,0.6-2,0.8
			c-0.6,0.2-1.1,0.1-1.7-0.1c-2.1-0.8-4.1-2-5.8-3.4c-1.6-1.3-2.4-3.2-2.7-5.2c0.2-0.5,0.1-1.1,0.1-1.8c0.3-2.7,0-5.4,0.4-8
			c0.1-1.1,0.4-2.2,0.8-3.3c0.3-0.8,0.8-1.4,1.4-1.9c1.9-1.3,3.9-2.3,6.1-3c0.7-0.2,1.4-0.1,2.1,0.1c2.1,0.7,3.9,1.9,5.6,3.3
			c0.6,0.5,0.9,1.3,1.1,2c0.7,2.1,1,4.3,1,6.4c0,1.5,0.2,3.1,0.3,4.6C144.9,269.1,144.8,270.1,144.6,271.2z"/>
		<path fill="#FBA981" d="M139.8,290.9h-0.1H139.8L139.8,290.9z"/>
		<path fill="#FEFEFE" d="M141.3,291.2c-0.1,0-0.2-0.1-0.1-0.2C141.3,291.1,141.3,291.2,141.3,291.2L141.3,291.2z"/>
		<path fill="#FEFEFE" d="M141.4,290.9L141.4,290.9L141.4,290.9L141.4,290.9L141.4,290.9z"/>
	</g>
</g>
<g id="Hijab">
	<path fill="#07615E" d="M221.8,177.4c-0.6-2.4-3-4.6-4.5-6.6c-1.9-2.6-3.9-5.1-5.8-7.7c-0.8-1-1.5-2-1.9-3.3
		c-0.2-0.9-0.2-1.8-0.2-2.8c-0.2-5.2-2.8-9.5-6-13.6c-1.4-1.8-1.8-3.9-1.2-6c0,0,4.3-14.8,4.3-14.9c2.8-9.6,6-19,7.7-28.8
		c1.7-10,1-19.8-0.7-29.7c-0.5-3.2-1.2-6.4-2-9.6c-0.7-2.8-1.2-5.6-3.1-7.9c-4.7-5.7-16.8-13.5-16.8-13.5s-14.4-7.8-24.3-10.6
		c-17.8-5.1-35.3,6.2-49.2,15.8c-4.2,2.9-8.3,6.2-10.5,11c-1.8,4-2,8.9-2.9,13.2c-1.1,4.9-2.7,9.6-3.9,14.4c-1,3.9-0.9,8.2-0.5,12.2
		c0.6,6.1,2.3,12.3,4.6,18c0.2,0.4,0.3,0.8,0.5,1.3l14,29.5c0.9,1.9,0.5,4.1-1.1,5.7c-1.9,2-4.5,4.7-6.6,7.1c-1.1,1.2-2,2.9-1.6,4.6
		c0.2,0.9,0.9,1.6,1.5,2.3c0.3,0.4,0.9,0.8,0.9,1.4c0,0.4-0.5,0.8-0.8,1.1c-1.7,1.5-3.6,2.8-5.4,4.2c-2.8,2.2-5.4,4.6-8,7.1
		c-0.7,0.7-1.6,1.4-0.9,2c10.4,8.5,20.9,10.2,35.4,13.2c13.5,2.8,27.8,2.6,41.3-0.1c9.8-2,17.7-9.3,27.3-9.8
		C210.7,175.9,222.6,180.5,221.8,177.4z M196.6,116.2c-3.5,9.6-18.7,18.1-29.3,21.4l-9.1,2.8c-7.8-2.1-13.7-4.5-20.7-8.2
		c-3.2-1.7-6.5-3.4-9.3-5.6c-16.3-13-11-37.3-9.2-54.3c0.6-6.3,1.3-13.8,7.1-18.4c4.3-3.4,9.7-5.4,15.2-7c5.4-1.6,10.3-3.9,15.6-5.8
		c2.3-0.9,11.3,3.1,13.5,3.9c15,5.6,22.3,13.2,24.5,27.1c1.2,7.7,2,15.4,2.5,23.2C197.6,101.9,199,109.8,196.6,116.2z"/>
</g>
<g id="Shadows">
</g>
<g id="Layer_4">
</g>
</svg>
