<?xml version="1.0" encoding="utf-8"?>
<!-- Generator: Adobe Illustrator 27.0.1, SVG Export Plug-In . SVG Version: 6.00 Build 0)  -->
<svg version="1.1" id="Layer_1" xmlns="http://www.w3.org/2000/svg" xmlns:xlink="http://www.w3.org/1999/xlink" x="0px" y="0px"
	 viewBox="0 0 797.1 598.2" style="enable-background:new 0 0 797.1 598.2;" xml:space="preserve">
<style type="text/css">
	.st0{fill:#FBDBC4;}
	.st1{fill:#0B1A27;}
	.st2{fill:#FCB51F;}
	.st3{fill:#908D8D;}
	.st4{fill:#0B938E;}
	.st5{fill:#314A5B;}
	.st6{fill:#3DA6A2;}
	.st7{fill:#07615E;}
	.st8{fill:#2F2E41;}
	.st9{fill:#B15F28;}
	.st10{fill:#CCCCCC;}
	.st11{fill:#F8F8F8;}
</style>
<polygon class="st0" points="634.2,572.8 623.4,573 617.4,530.5 633.4,530.2 "/>
<path class="st1" d="M600.1,591c0.1,2.7,2.3,4.8,4.9,4.7l19.6-0.4c1.2,0,2.2-0.7,2.7-1.8l0.8-1.7c0.6-1.3,2.6-1.1,2.9,0.3l0.3,1.4
	c0.2,1,1.1,1.6,2,1.6l4.2-0.1c1.2,0,2.1-1.1,2-2.2l-2.3-22.3c-0.2-1.6-1.5-2.8-3.1-2.9l0,0l-11.5-0.5h-0.3c-1.8,0-3.4,1.5-3.3,3.3
	l0,0c0.1,2.7-1.2,5.3-3.4,6.8l-13.5,9.8C600.9,587.9,600.1,589.4,600.1,591L600.1,591z"/>
<polygon class="st0" points="707,572.8 696.1,573 690.1,530.5 706.1,530.2 "/>
<path class="st1" d="M672.9,591c0.1,2.7,2.3,4.8,4.9,4.7l19.8-0.4c1,0,1.9-0.6,2.3-1.5l0.9-2c0.6-1.3,2.6-1.1,2.9,0.3l0.3,1.4
	c0.2,1,1.1,1.6,2,1.6l4.2-0.1c1.2,0,2.1-1.1,2-2.2l-2.3-22.3c-0.2-1.6-1.5-2.8-3.1-2.9l0,0l-11.5-0.5H695c-1.8,0-3.4,1.5-3.3,3.3
	l0,0c0.1,2.7-1.2,5.3-3.4,6.8l-13.5,9.8C673.6,587.9,672.8,589.4,672.9,591L672.9,591z"/>
<path class="st1" d="M645.1,246.1l59.5-1.7l-3.3,5l7.5,7.4c0,0,27.2,37.2,18.9,71.1c-7.1,29-4.7,179.7-3.8,222.7
	c0.1,6.1-5.1,10.9-11.2,10.2l-27.7-3c-5.2-0.6-9.1-5-9-10.3l5-185.6c0-1.7-2.3-2.3-3.1-0.8L656,402.9c-9.5,18.2-13.6,38.8-11.6,59.2
	l7.5,80.8c0.6,5.9-4.1,11-10.1,11l-21.1-0.1c-5.2,0-9.5-3.9-10-9.1l-11.1-112.2c-0.8-7.8-0.1-15.6,1.9-23.2L645.1,246.1z"/>
<path class="st2" d="M396.3,86.3c0.2,0.6,1,0.6,1.2,0c1.6-3.8,3.8-8.2,6.2-11.5c0.4-0.5-0.1-1.2-0.8-1l-4,1.5
	c-0.6,0.2-1.2-0.2-1.2-0.8v-30c0-0.5-0.4-0.9-0.9-0.9l0,0c-0.5,0-0.9,0.4-0.9,0.9v30c0,0.6-0.6,1-1.2,0.8l-4-1.5
	c-0.6-0.2-1.1,0.5-0.8,1C392.5,78.1,394.7,82.4,396.3,86.3L396.3,86.3z"/>
<path class="st2" d="M430.3,119.3c-0.2,0.6,0.4,1.1,1,0.8c3.6-2,8-4,12-5.1c0.6-0.2,0.7-1.1,0-1.3l-4-1.4c-0.6-0.2-0.8-0.9-0.4-1.4
	l18.7-23.4c0.3-0.4,0.2-0.9-0.1-1.3l0,0c-0.4-0.3-0.9-0.2-1.2,0.1l-18.7,23.4c-0.4,0.5-1.1,0.4-1.5-0.1l-2.2-3.6
	c-0.3-0.6-1.2-0.3-1.2,0.3C432.4,110.6,431.4,115.3,430.3,119.3z"/>
<path class="st3" d="M333.5,185c-12.5,0-22.7,10.2-22.7,22.7V371c0,0.6,0.4,1,1,1l0,0c0.6,0,1-0.4,1-1v-28.3
	c0-86,69.7-155.7,155.7-155.7l144.7-0.4l-0.4-1.6L333.5,185L333.5,185z"/>
<path class="st0" d="M560.6,179.8c0.3,0.1,0.6,0.1,0.9,0.1c1.4,0,2.7-0.6,4.1-0.9c2.1-0.4,4.3-0.9,6.4-1.3c4.3-0.9,8.7-1.8,13-2.6
	c1.3-0.3,2.6-0.5,3.9-0.8l4.7,15.8c-4.7,0.5-9.3,1-14,1.6c-6,0.7-11.9,1.3-17.9,2c-1.6,0.2-2.6,2-4,2.9c-3.3,2-7.5,2.3-11,0.4
	c-5.5-2.9-7.4-10.2-3.9-15.4c2-2.9,5.4-4.8,9-4.7c2.1,0,4.2,0.7,6,1.7C558.8,178.9,559.6,179.5,560.6,179.8z"/>
<path class="st2" d="M710.4,136.4l-12.5-19c-2.3,1.8-4.3,3.6-5.8,5.2l-2.6,1.8l-8.4,7.5l-23.8,21.2l-7.9,7.1l-8.8,1.5l-19.5,3.4
	l-26,7c-2.3,0.6-4.7,1-7.1,1.2l-16.2,1c-1.1,0.1-1.9,1-1.9,2l0,0c0,4.3,0.1,12.9,0.9,17.6l0,0c0.3,1.8,2.1,2.8,3.8,2.3
	c4.8-1.4,33-2.6,55.8-5.5c13.6-1.8,25.5-3.4,30.5-4.1h0.1l3.6-1.8l39.9-19.3l12-5.8C715.6,151.9,713.5,144,710.4,136.4z"/>
<path class="st1" d="M32.7,37.9C20.2,37.9,10,48.1,10,60.6v383.3c0,0.6,0.4,1,1,1l0,0c0.6,0,1-0.4,1-1V195.6
	c0-86,69.7-155.7,155.7-155.7l397.7-0.4l-0.4-1.6L32.7,37.9z"/>
<circle class="st4" cx="553.8" cy="40" r="30"/>
<ellipse class="st5" cx="127.7" cy="83.2" rx="8.5" ry="8.6"/>
<ellipse class="st5" cx="156.9" cy="83.2" rx="8.5" ry="8.6"/>
<ellipse class="st5" cx="186.1" cy="83.2" rx="8.5" ry="8.6"/>
<path class="st5" d="M417.5,287c-1.1,0-2,0.9-2,2v31c0,1.1,0.9,2,2,2s2-0.9,2-2v-31C419.5,287.9,418.6,287,417.5,287z"/>
<ellipse class="st2" cx="437.1" cy="304.6" rx="12.5" ry="12.2"/>
<path class="st2" d="M537,300.5h-67.1c-2.3,0-4.2-1.9-4.2-4.2s1.9-4.2,4.2-4.2H537c2.3,0,4.2,1.9,4.2,4.2S539.3,300.5,537,300.5z"/>
<path class="st2" d="M589.4,314.6H470c-2.3,0-4.2-1.9-4.2-4.2s1.9-4.2,4.2-4.2h119.4c2.3,0,4.2,1.9,4.2,4.2S591.7,314.6,589.4,314.6
	z"/>
<ellipse class="st3" cx="423.7" cy="225.2" rx="8.5" ry="8.6"/>
<ellipse class="st3" cx="452.9" cy="225.2" rx="8.5" ry="8.6"/>
<ellipse class="st3" cx="482.1" cy="225.2" rx="8.5" ry="8.6"/>
<path class="st5" d="M90.4,169.4c-1.1,0-2,0.9-2,2v31c0,1.1,0.9,2,2,2s2-0.9,2-2v-31C92.4,170.3,91.5,169.4,90.4,169.4z"/>
<ellipse class="st6" cx="110" cy="187.1" rx="12.5" ry="12.2"/>
<path class="st6" d="M209.9,182.9h-67.1c-2.3,0-4.2-1.9-4.2-4.2s1.9-4.2,4.2-4.2h67.1c2.3,0,4.2,1.9,4.2,4.2
	S212.2,182.9,209.9,182.9z"/>
<path class="st6" d="M262.2,197H142.8c-2.3,0-4.2-1.9-4.2-4.2s1.9-4.2,4.2-4.2h119.4c2.3,0,4.2,1.9,4.2,4.2S264.5,197,262.2,197z"/>
<path class="st5" d="M90.4,255.4c-1.1,0-2,0.9-2,2v31c0,1.1,0.9,2,2,2s2-0.9,2-2v-31C92.4,256.3,91.5,255.4,90.4,255.4z"/>
<ellipse class="st4" cx="110" cy="273.1" rx="12.5" ry="12.2"/>
<path class="st4" d="M209.9,268.9h-67.1c-2.3,0-4.2-1.9-4.2-4.2s1.9-4.2,4.2-4.2h67.1c2.3,0,4.2,1.9,4.2,4.2
	S212.2,268.9,209.9,268.9z"/>
<path class="st4" d="M262.2,283H142.8c-2.3,0-4.2-1.9-4.2-4.2s1.9-4.2,4.2-4.2h119.4c2.3,0,4.2,1.9,4.2,4.2S264.5,283,262.2,283z"/>
<path class="st5" d="M90.4,341.4c-1.1,0-2,0.9-2,2v31c0,1.1,0.9,2,2,2s2-0.9,2-2v-31C92.4,342.3,91.5,341.4,90.4,341.4z"/>
<ellipse class="st7" cx="110" cy="359.1" rx="12.5" ry="12.2"/>
<path class="st7" d="M209.9,354.9h-67.1c-2.3,0-4.2-1.9-4.2-4.2s1.9-4.2,4.2-4.2h67.1c2.3,0,4.2,1.9,4.2,4.2
	S212.2,354.9,209.9,354.9z"/>
<path class="st7" d="M262.2,369H142.8c-2.3,0-4.2-1.9-4.2-4.2s1.9-4.2,4.2-4.2h119.4c2.3,0,4.2,1.9,4.2,4.2S264.5,369,262.2,369z"/>
<path class="st2" d="M720.6,278.1c-1.2,9.4-65.4-12.9-73-17c-13.8-7.4-0.2-0.3,0.7,0.2l0,0l-1.7-47.1l-1.7-28.1c0,0-1-7.5-3-17
	c-0.5-2.1-1-4.6-1.3-7.2c-0.9-7.6-0.2-16.4,7.3-21.8l26-38.8l0,0l12.8-0.8l0,0l11.2,17l12.5,19c3.1,7.6,5.2,15.5,6.2,23.6
	c0.5,3.8,0.7,7.6,0.7,11.4c0,6.7-0.7,13.4-2.2,20.1l-7.6,21.3c-0.3,0.9-0.5,1.9-0.3,2.9c0.1,0.7,0.4,1.4,0.9,2.1
	c3,4.1,4.4,9.2,4.6,14.3c0.2,5.3-0.5,10.3,0.3,15.6c0.8,5.4,2.6,10.1,4.6,15.1C719.5,267.6,721.3,272.8,720.6,278.1z"/>
<path class="st0" d="M621.7,274.7l10.7,8.9l-21.1,22.6c0.3,2.5-0.7,6.3-1.7,8.7c-2.2,5.2-7.9,7.8-13.3,6c-4.3-1.5-8-6-7.4-10.8
	c0.3-2.3,1.6-4.3,3.3-5.9c2.7-2.5,7-3,9.3-5.7C601.5,298.5,621.7,274.7,621.7,274.7z"/>
<path class="st2" d="M683.1,132c-4.3-3.1-9.4-5.3-15-6.3c-7.6-1.3-11.9,9.7-13.6,20.4c-0.8,5-1,9.9-0.7,13.5l-0.4,3.1l-0.3,16.2
	l-0.6,37.5L637.9,238c-3,4.4-5.5,9.1-7.6,14l-3.5,8.2c-0.9,2.2-2.2,4.3-3.7,6.3l-13,16.6c-0.6,0.8-0.5,2,0.3,2.7l0,0
	c3.1,2.9,9.5,8.7,13.6,11.3l0,0c1.6,1,3.6,0.8,5-0.5c3.4-3.2,9.9-9.5,10.3-9.9c3.8-4.2,4.6-9.7,16.1-25.9
	c10.5-14.8,20.8-29.4,24.5-34.7l0.1-0.1l16.6-54.9l1.5-5C699.8,152.4,693.6,139.6,683.1,132L683.1,132z"/>
<path class="st8" d="M666.9,137.3C666.9,137.3,666.9,137.2,666.9,137.3c-0.3,0-0.6,0-0.9,0H666.9z"/>
<path class="st0" d="M674.4,36c16.1,0,29.1,13,29.1,29.1s-13,29.1-29.1,29.1s-31.3-11.8-31.3-27.9S658.3,36,674.4,36z"/>
<path class="st9" d="M636.7,50.9c2.7-13.2,20.1-21.9,33.8-20.4c1.3,0.1,3.4,1.1,4.6,0.9c14.8-2.8,26.1,5.9,31.3,19.4
	c3,7.8,3.3,15.8,4.7,23.8c1.4,7.8,3.2,15.8,6,23.3c7.2,19.5,4,48.7,7.3,53.5c4.2,5.9-12.7,25.8-12.7,25.8c-1.6-2-2.9-4.2-4.4-6.8
	c-0.6,2.4-0.6,5.1-0.3,7.9c-6.6,3.3-13.8,4.6-21.4,4.6c-1.2-1.6-2.3-3.5-2.2-5.5c-0.4,2.1-0.9,4.1-1,6.2c-4.8-3.1-8.8-2.2-11.9,2.6
	c1.8-2.8,0.9-8.4,0.6-11.4c-0.5-5.5-1.6-11-2.6-16.4c-2-11.2,0.6-12.6,1-23.2c0.1-3.5-3.1-12.5-2.5-16.2c0.6-4,1.2-10.1,0.8-14.1
	c-0.3-3-1.4-7.5-0.8-10.6c0.3-1.8-0.3-5-0.4-6.8c-0.3-3.7-1.7-7.4-3.3-10.7c-1.5-3.1-2.9-6.1-5-8.9c-1-1.4-2.2-2.6-3.5-3.6
	c-1.1-0.8-3.3-2.3-4.8-2c-0.2,0-0.5,0.2-0.7,0.3c-0.8,0.5-4.2,2.6-5,0.6c-0.2,0.7-1.2,8.8-0.5,9C641.6,71.5,634.2,63.1,636.7,50.9z"
	/>
<path class="st10" d="M541.3,597.1c0,0.7,0.5,1.2,1.2,1.2h253.3c0.7,0,1.2-0.5,1.2-1.2s-0.5-1.2-1.2-1.2H542.5
	C541.8,595.9,541.3,596.4,541.3,597.1z"/>
<g>
	<path class="st2" d="M417.8,98.6v38.3c0,2.1-1.7,3.8-3.8,3.8h-33.7c-4.4,0-4.3-5.7-4.2-8.8c0.3-6.3,0-12.6,0-18.9
		c0-3.9,0-7.8,0.2-11.7c0.1-2.7,0.3-6.5,4-6.5H414C416.1,94.8,417.8,96.5,417.8,98.6z"/>
	<path class="st11" d="M387.5,95.9c-5.5,0-9.9,4.4-9.9,9.9v30.3c0,1.9,1.6,3.5,3.5,3.5h18.6c9.3,0,16.9-7.6,16.9-16.9V99.4
		c0-1.9-1.6-3.5-3.5-3.5C413.2,95.9,387.5,95.9,387.5,95.9z"/>
	<g>
		<path class="st2" d="M405,107.1h-15.8c-0.4,0-0.7-0.3-0.7-0.7c0-0.4,0.3-0.7,0.7-0.7H405c0.4,0,0.7,0.3,0.7,0.7
			S405.4,107.1,405,107.1z"/>
		<path class="st2" d="M405,122.5h-15.8c-0.4,0-0.7-0.3-0.7-0.7c0-0.4,0.3-0.7,0.7-0.7H405c0.4,0,0.7,0.3,0.7,0.7
			S405.4,122.5,405,122.5z"/>
		<path class="st2" d="M413.5,114.8h-32.7c-0.4,0-0.7-0.3-0.7-0.7c0-0.4,0.3-0.7,0.7-0.7h32.7c0.4,0,0.7,0.3,0.7,0.7
			S413.9,114.8,413.5,114.8z"/>
	</g>
	<path class="st2" d="M413.9,128.7h-13.7c-0.4,0-0.7-0.3-0.7-0.7c0-0.4,0.3-0.7,0.7-0.7h13.7c0.4,0,0.7,0.3,0.7,0.7
		S414.3,128.7,413.9,128.7z"/>
</g>
</svg>
