<svg width="276" height="317" viewBox="0 0 276 317" fill="none" xmlns="http://www.w3.org/2000/svg">
<path d="M251.298 295C251.201 295 251.153 295 251.056 295L43.2032 292.575C31.4087 292.43 21.8862 282.682 21.9828 270.849C7.28812 221.965 0.810847 183.508 1.0042 146.118C1.19755 107.127 8.88327 67.4092 25.1731 21.2412C25.3665 9.45668 34.9857 0 46.6835 0C46.7802 0 46.8285 0 46.9252 0L254.778 2.42479C266.621 2.57028 276.143 12.3664 275.998 24.2479L275.563 60.4258H275.273L272.808 273.662C272.615 285.495 262.995 295 251.298 295ZM46.6835 0.969916C35.4691 0.969916 26.2849 10.0386 26.1399 21.3382V21.4351V21.4836C-5.03804 109.649 -5.85978 174.827 22.9013 270.607V270.655V270.752C22.8046 282.1 31.8921 291.46 43.2032 291.605L251.056 294.03C251.153 294.03 251.201 294.03 251.298 294.03C262.512 294.03 271.696 284.961 271.841 273.662L274.113 76.8659V75.8959L274.355 53.3939H274.645L274.983 24.2479C275.128 12.8999 265.992 3.54019 254.681 3.39471L46.9252 0.969916C46.8285 0.969916 46.7802 0.969916 46.6835 0.969916Z" fill="#F8F8F8"/>
<path d="M233 187L232.952 189H114V187H233Z" fill="#F8F8F8"/>
<path d="M235 167L234.951 168H114V167H235Z" fill="#F8F8F8"/>
<path d="M233 231.019V232H111V129H111.974V190.633C111.974 196.963 113.435 202.901 115.968 208.25C116.114 208.593 116.309 208.888 116.455 209.231C123.127 222.186 136.569 231.019 152.056 231.019H233Z" fill="#F8F8F8"/>
<path d="M64.3901 280.193C52.7397 280.048 43.4194 270.528 43.5165 258.93C15.7983 167.401 14.0507 102.259 46.7689 10.3917C46.8174 6.71892 47.8854 3.14283 49.7786 0.0499931L45.6524 0.00166752C34.002 -0.143309 24.439 9.18353 24.2934 20.7817C-8.42481 112.649 -6.67725 177.743 21.041 269.32C20.8953 280.918 30.2642 290.438 41.9146 290.583L250.651 293C258.175 293.048 265.214 289.085 269 282.61L64.3901 280.193Z" fill="white"/>
<path d="M95.9549 170.984C96.3073 173.094 94.5457 175.056 92.3311 175.007L85.0331 191L80 190.117L88.8079 171.181C88.9589 169.611 90.1669 168.286 91.8781 168.041C93.7907 167.747 95.653 169.071 95.9549 170.984Z" fill="#FFB6B6"/>
<path d="M57.5987 220.264C59.5904 222.373 62.8451 222.57 65.1283 220.803L81.7418 207.654L90 181.797L84.025 179L72.755 201.668L58.4246 211.628C55.5585 213.64 55.1699 217.712 57.5987 220.264Z" fill="#FCB51F"/>
<path d="M61.0035 211C60.5672 210.695 60.131 210.391 59.6463 210.187C59.6463 210.035 59.6463 209.934 59.6463 209.781C59.6947 208.461 59.4039 207.09 58.9192 205.871C58.9676 206.937 58.6768 208.055 58.0466 208.918C57.9497 209.07 57.8043 209.223 57.7073 209.324C57.6589 209.375 57.6589 209.375 57.6104 209.426C56.9318 209.273 56.2047 209.172 55.526 209.172C54.7505 209.172 53.9749 209.273 53.1993 209.477C52.2299 209.68 51.2604 209.934 50.3394 210.137C50.2909 210.137 50.2425 210.187 50.1455 210.187C49.7092 208.918 49.0306 207.801 48.1096 206.836C48.5459 207.801 48.6428 208.969 48.352 209.984C48.3035 210.188 48.255 210.34 48.1581 210.492C47.0917 210.594 46.0738 210.594 45.0558 210.289C44.6196 210.188 44.2318 209.984 43.844 209.781C42.4383 209.07 41.2264 208.004 39.7722 207.395C38.9967 207.039 38.1726 206.836 37.3486 206.734C36.6699 202.57 36.8638 198.812 38.9967 196.121C38.9967 189.977 43.747 185 49.6123 185L54.4596 186.777L59.3554 188.555C61.6337 195.105 65.3176 200.793 61.0035 211Z" fill="#2F2E41"/>
<path d="M117.881 274.728L120.548 272.159L111.724 260.523L107.797 264.256L117.881 274.728Z" fill="#FFB6B6"/>
<path d="M128.981 270.365L122 271.528L120.158 269.637L119.285 270.559L116.619 273.468L115.988 274.195L121.855 281.419L123.842 279.528L122.388 277.298L125.103 278.316L130.387 273.225C131.018 272.595 131.066 271.528 130.436 270.898C130.097 270.462 129.515 270.316 128.981 270.365Z" fill="#2F2E41"/>
<path d="M61.3831 253.912L48.3033 251L48.4002 254.979C48.4002 254.979 34.739 265.559 47.3344 275.75C59.9298 285.941 81.245 286.912 81.245 286.912L71.5563 315.059L76.4006 317L95.4875 290.891C98.055 286.232 97.3283 280.312 93.5013 276.624C92.7746 275.896 91.9026 275.265 90.9338 274.779C85.1205 271.868 69.6185 266.044 69.6185 266.044L61.8675 258.279L61.3831 253.912Z" fill="#2F2E41"/>
<path d="M61 260.658L88.0154 243.273C91.0333 241.303 94.9761 241.648 97.6533 244.11L118 266.568L112.646 271L91.7148 256.225C91.7148 256.225 79.5457 270.015 76.1383 270.015C72.731 270.015 61 260.658 61 260.658Z" fill="#2F2E41"/>
<path d="M47.5163 261.541C47.5163 261.541 38.995 256.858 43.005 252.948C47.015 249.037 47.5163 236.533 47.5163 236.533L41 217.608L46.0125 214.228L47.5163 208.483L56.5388 208V212.297L65.5614 221.953C68.619 225.236 69.5714 229.87 67.9674 234.022L65.5614 240.347C65.5614 240.347 72.5789 258.21 66.5639 260.624C60.5489 263.038 47.5163 261.541 47.5163 261.541Z" fill="#FCB51F"/>
<path d="M90.3065 192.845L67.7679 171.955C64.3847 168.836 64.0512 163.39 67.0532 159.876C70.0551 156.361 75.2967 156.014 78.6798 159.133L78.7275 159.183L101.266 180.073C104.649 183.241 104.935 188.637 101.885 192.152C98.8359 195.667 93.6897 195.964 90.3065 192.845Z" fill="#747373"/>
<path d="M53 207C57.9706 207 62 203.194 62 198.5C62 193.806 57.9706 190 53 190C48.0294 190 44 193.806 44 198.5C44 203.194 48.0294 207 53 207Z" fill="#FFB6B6"/>
<path d="M57.5645 196.548C57.5161 195.486 57.2742 194.424 56.8387 193.464C56.8871 194.526 56.5968 195.638 55.9677 196.498L55.9194 196.548C54.3226 197.357 51.6129 196.902 49 196.548V186.435H54.3226C59.5484 184.614 63.8548 188.609 64 196.548C61.5323 197.003 59.1613 197.256 57.5645 196.548Z" fill="#2F2E41"/>
<path d="M53.1905 208.993C52.2381 209.183 51.2857 209.421 50.3809 209.611C50.3333 209.611 50.2857 209.658 50.1905 209.658C49.7619 208.471 49.0952 207.426 48.1905 206.524C48.619 207.426 48.7143 208.518 48.4286 209.468C48.381 209.658 48.3333 209.801 48.2381 209.943C47.1905 210.038 46.1905 210.038 45.1905 209.753C44.7619 209.658 44.381 209.468 44 209.278V189H54C50.0952 195.649 49.5714 202.297 53.1905 208.993Z" fill="#2F2E41"/>
<path d="M50.9455 185.096C50.7604 184.517 50.1124 184.228 49.5106 184.324C48.9089 184.421 48.446 184.807 47.9831 185.144C48.446 184.614 48.2146 183.697 47.6591 183.311C47.1037 182.925 46.3631 182.925 45.6688 183.166C44.9745 183.407 44.419 183.745 43.771 183.986C43.123 184.228 42.4287 184.372 41.7807 184.083C42.0121 184.903 42.5213 185.627 43.123 186.158C42.3824 186.013 41.5955 186.447 41.2252 187.123C40.8549 187.798 40.9475 188.715 41.4567 189.294C42.0584 189.97 43.0304 190.114 43.8636 189.921C44.6968 189.728 45.4374 189.198 46.1317 188.667C46.826 188.136 47.5666 187.605 48.3997 187.364L45.6688 189.149C47.0574 188.522 48.3997 187.846 49.6958 187.026C50.0198 186.833 50.3901 186.592 50.6678 186.254C50.9455 185.965 51.0844 185.53 50.9455 185.096Z" fill="#2F2E41"/>
<path d="M37.5058 272.369C37.4572 270.235 39.3494 268.684 41.3386 268.296C43.8614 267.811 46.3843 269.072 48.519 270.235C52.3033 272.321 56.7184 270.235 60.7452 272.806C66.7128 276.54 67.9742 270.914 67.5861 264.271C67.295 259.373 68.5079 254.572 68.7505 249.722C68.9931 245.067 70.2545 240.363 74.1844 237.502C75.8339 236.289 77.9201 235.562 79.9578 235.998C82.1411 236.435 83.8877 238.035 86.0224 238.714C89.9523 239.975 94.0762 238.277 97.0357 235.659C100.48 232.604 102.13 228.288 103.294 223.971C104.507 219.461 105.284 214.757 107.515 210.635C109.407 207.095 112.415 203.846 116.588 203.167C120.663 202.488 124.545 204.477 128.038 206.271C131.628 208.114 135.364 210.102 139.488 210.247C148.318 210.635 155.159 203.07 158.992 195.942C163.358 187.794 165.881 177.902 173.692 172.131C177.04 169.657 181.261 167.912 185.482 168.591C189.751 169.269 192.856 172.373 195.67 175.428C198.581 178.532 201.444 181.587 205.373 183.333C209.255 185.079 213.524 185.758 217.745 185.176C219.783 184.885 221.724 184.351 223.616 183.527C224.489 183.139 223.713 181.927 222.888 182.266C218.764 184.06 214.106 184.351 209.74 183.284C205.373 182.218 201.88 179.793 198.824 176.592C196.01 173.682 193.341 170.336 189.654 168.445C185.918 166.554 181.649 166.602 177.767 168.106C173.838 169.657 170.49 172.422 167.919 175.719C164.959 179.55 162.97 184.06 160.981 188.473C157.39 196.426 152.781 205.834 143.563 208.308C134.83 210.635 128.377 202.925 120.227 201.712C116.248 201.13 112.415 202.488 109.602 205.35C106.691 208.308 104.992 212.236 103.828 216.164C102.47 221.013 101.742 226.202 99.219 230.615C97.2298 234.107 93.5425 237.356 89.3216 237.598C86.8957 237.744 85.1006 236.629 83.0144 235.562C81.1708 234.592 79.2301 234.107 77.1439 234.495C73.2625 235.271 70.206 238.714 68.7505 242.205C65.0632 250.838 70.1575 261.991 62.9285 269.363C61.6185 270.72 59.9205 271.739 58.0283 271.933C55.4569 272.224 53.0796 271.011 50.9449 269.799C47.2091 267.714 42.503 264.95 38.3791 267.811C36.9236 268.829 35.9532 270.381 36.0017 272.175C36.0988 273.291 37.5543 273.291 37.5058 272.369Z" fill="#F15B40"/>
<path d="M183 172C185.209 172 187 169.985 187 167.5C187 165.015 185.209 163 183 163C180.791 163 179 165.015 179 167.5C179 169.985 180.791 172 183 172Z" fill="#FCB51F"/>
<path d="M142.5 212C144.985 212 147 210.433 147 208.5C147 206.567 144.985 205 142.5 205C140.015 205 138 206.567 138 208.5C138 210.433 140.015 212 142.5 212Z" fill="#FCB51F"/>
<path d="M118 76.6764C120.618 70.9847 127.424 67.8667 133.23 69.5989C136.514 70.5888 139.227 72.8655 142.273 74.5482C145.271 76.2309 149.031 77.2703 152.03 75.637C157.217 72.816 156.932 64.4517 161.453 60.5913C164.452 58.0177 168.878 58.1167 172.59 59.354C176.303 60.5418 179.729 62.67 183.442 63.8083C190.438 65.887 198.338 64.1548 203.907 59.255C203.955 59.2055 204.002 59.156 204.05 59.1065C206.81 56.5824 211.094 58.6611 210.998 62.472L210.285 89H118.476L118 76.6764Z" fill="#F8F8F8"/>
<path d="M198.792 72.2242C199.069 72.1121 199.069 71.8132 198.792 71.7011C196.753 71.0284 194.437 70.0569 192.677 69.048C192.399 68.8985 192.028 69.1227 192.121 69.3843L193.14 71.6263H176V72.3737H193.14L192.121 74.6157C191.982 74.8773 192.399 75.1015 192.677 74.952C194.437 73.8684 196.753 72.8968 198.792 72.2242Z" fill="#FCB51F"/>
<path d="M159.956 66.5467C160.105 66.2577 159.856 65.9204 159.508 66.0168C157.219 66.6431 154.482 67.0767 152.143 67.1249C151.745 67.1249 151.645 67.6066 151.944 67.7994L154.581 69.4374L140 80.2292L140.597 81L155.228 70.2082L156.174 73.1471C156.273 73.4843 156.771 73.4843 156.92 73.1471C157.567 70.9791 158.761 68.522 159.956 66.5467Z" fill="#FCB51F"/>
<path d="M207.5 66C212.194 66 216 62.1944 216 57.5C216 52.8056 212.194 49 207.5 49C202.806 49 199 52.8056 199 57.5C199 62.1944 202.806 66 207.5 66Z" fill="#065452"/>
<path d="M168 66C172.418 66 176 62.1944 176 57.5C176 52.8056 172.418 49 168 49C163.582 49 160 52.8056 160 57.5C160 62.1944 163.582 66 168 66Z" fill="#3DA6A2"/>
<path d="M131 74C135.418 74 139 70.4183 139 66C139 61.5817 135.418 58 131 58C126.582 58 123 61.5817 123 66C123 70.4183 126.582 74 131 74Z" fill="#53E0DC"/>
<path d="M231.424 105.235L102.462 104.314C98.3412 104.266 94.9474 107.611 94.899 111.78C94.8505 115.901 98.1957 119.295 102.365 119.343L231.327 120.265C235.448 120.313 238.842 116.968 238.89 112.798C238.939 108.629 235.594 105.235 231.424 105.235Z" fill="#F8F8F8"/>
<path d="M83.218 113.622C85.0923 113.622 86.6117 112.103 86.6117 110.229C86.6117 108.354 85.0923 106.835 83.218 106.835C81.3436 106.835 79.8242 108.354 79.8242 110.229C79.8242 112.103 81.3436 113.622 83.218 113.622Z" fill="#F8F8F8"/>
<path d="M231.424 21.8462L102.462 20.9251C98.3412 20.8766 94.9474 24.2219 94.899 28.3913C94.8505 32.5607 98.1957 35.906 102.365 35.9545L231.327 36.8756C235.448 36.9241 238.842 33.5789 238.89 29.4094C238.939 25.24 235.594 21.8462 231.424 21.8462Z" fill="#F8F8F8"/>
<path d="M83.218 30.2335C85.0923 30.2335 86.6117 28.7141 86.6117 26.8398C86.6117 24.9655 85.0923 23.446 83.218 23.446C81.3436 23.446 79.8242 24.9655 79.8242 26.8398C79.8242 28.7141 81.3436 30.2335 83.218 30.2335Z" fill="#F8F8F8"/>
<path d="M69.8848 298.485H48.7467C46.9529 298.485 45.5469 297.03 45.5469 295.285V274.147C45.5469 272.353 47.0013 270.947 48.7467 270.947H69.8848C71.6786 270.947 73.0846 272.401 73.0846 274.147V295.236C73.1331 297.03 71.6786 298.485 69.8848 298.485Z" fill="#747373"/>
<path d="M69.8848 298.485H48.7467C46.9529 298.485 45.5469 297.03 45.5469 295.285V274.147C45.5469 272.353 47.0013 270.947 48.7467 270.947H69.8848C71.6786 270.947 73.0846 272.401 73.0846 274.147V295.236C73.1331 297.03 71.6786 298.485 69.8848 298.485ZM48.7467 271.432C47.2437 271.432 46.0317 272.644 46.0317 274.147V295.236C46.0317 296.739 47.2437 297.951 48.7467 297.951H63.7761C68.6243 297.951 72.5513 294.024 72.5513 289.176V274.147C72.5513 272.644 71.3393 271.432 69.8363 271.432H48.7467Z" fill="#747373"/>
<path d="M49.9905 274.386C48.0599 273.259 47.7918 270.723 49.4006 269.315L42 253.865L46.3438 251L55.0315 269.362C56.1577 270.489 56.3722 272.226 55.2997 273.494C54.1199 275.091 51.7066 275.467 49.9905 274.386Z" fill="#FFB6B6"/>
<path d="M45.25 215.02C42.3 214.773 39.65 216.8 39.05 219.668L35 240.782L47.5 266L54 263.033L46 239.299L50.35 222.091C51.25 218.729 48.8 215.317 45.25 215.02Z" fill="#FCB51F"/>
<path d="M49.7895 280C49.3684 280 49 280.175 49 280.375V280.625C49 280.825 49.3684 281 49.7895 281H68.2105C68.6316 281 69 280.825 69 280.625V280.375C69 280.175 68.6316 280 68.2105 280H49.7895Z" fill="#747373"/>
<path d="M49.7895 284C49.3684 284 49 284.525 49 285.125V285.875C49 286.475 49.3684 287 49.7895 287H68.2105C68.6316 287 69 286.475 69 285.875V285.125C69 284.525 68.6316 284 68.2105 284H49.7895Z" fill="#747373"/>
</svg>
