<?xml version="1.0" encoding="utf-8"?>
<!-- Generator: Adobe Illustrator 26.5.0, SVG Export Plug-In . SVG Version: 6.00 Build 0)  -->
<svg version="1.1" id="Layer_1" xmlns="http://www.w3.org/2000/svg" xmlns:xlink="http://www.w3.org/1999/xlink" x="0px" y="0px"
	 viewBox="0 0 524.7 531.4" enable-background="new 0 0 524.7 531.4" xml:space="preserve">
<polygon fill="#A0616A" points="117.7,88.7 113.7,109.7 133.6,115.4 131.1,92.9 "/>
<path fill="#314A5B" d="M0,523.4c0,0.7,0.5,1.2,1.2,1.2h522.3c0.7,0,1.2-0.5,1.2-1.2s-0.5-1.2-1.2-1.2H1.2
	C0.5,522.3,0,522.8,0,523.4z"/>
<path fill="#FFFFFF" d="M356,238.3H150.4c-23.3,0-42.2,18.9-42.2,42.2V480c0,23.3,18.9,42.2,42.2,42.2H356
	c23.3,0,42.2-18.9,42.2-42.2V280.5C398.3,257.2,379.4,238.3,356,238.3L356,238.3z"/>
<path fill="#07615E" d="M358,523.2H152.4c-23.8,0-43.2-19.4-43.2-43.2V280.5c0-23.8,19.4-43.2,43.2-43.2H358
	c23.8,0,43.2,19.4,43.2,43.2V480C401.3,503.8,381.9,523.2,358,523.2L358,523.2z M152.4,239.3c-22.7,0-41.2,18.5-41.2,41.2V480
	c0,22.7,18.5,41.2,41.2,41.2H358c22.7,0,41.2-18.5,41.2-41.2V280.5c0-22.7-18.5-41.2-41.2-41.2H152.4L152.4,239.3z"/>
<path fill="#53E0DC" d="M370.9,324.8h-82.7c-3.5,0-6.4-2.9-6.4-6.4s2.9-6.4,6.4-6.4h82.7c3.5,0,6.4,2.9,6.4,6.4
	S374.4,324.8,370.9,324.8L370.9,324.8z"/>
<path fill="#53E0DC" d="M296.3,362.7h-80.4c-2,0-3.7-1.6-3.7-3.7c0-2.1,1.6-3.7,3.7-3.7h80.4c2,0,3.7,1.6,3.7,3.7
	C300,361.1,298.3,362.7,296.3,362.7L296.3,362.7z"/>
<circle fill="#07615E" cx="334.3" cy="253.2" r="4.8"/>
<circle fill="#07615E" cx="347.5" cy="253.2" r="4.8"/>
<circle fill="#07615E" cx="360.6" cy="253.2" r="4.8"/>
<path fill="#E6E6E6" d="M149.9,394.4c0,0.7,0.5,1.2,1.2,1.2h204.3c0.7,0,1.2-0.5,1.2-1.2s-0.5-1.2-1.2-1.2H151.1
	C150.4,393.3,149.9,393.8,149.9,394.4z"/>
<path id="uuid-d0b76542-8f08-4363-846d-0cc3b89caf22-278" fill="#A0616A" d="M212.2,99.9c4.3-3.6,9.7-4.3,12-1.5s0.6,7.9-3.7,11.5
	c-1.7,1.5-3.8,2.5-6,3l-18.6,15L189,119l19.1-13.8C209,103.1,210.4,101.3,212.2,99.9L212.2,99.9z"/>
<path fill="#FCB51F" d="M104.6,134.7c0-0.7,0-6.4,4.3-10.1c4.9-4.2,11.9-2.5,14.3-1.9c5.6,1.4,6.1,3.8,11.4,6.3
	c9.9,4.6-2.5,2.3,3.4,0.8c2-0.5,31.3-2.5,38.6-7c10.4-6.4,18.4-11,21.9-12.9c1.1-0.6,2.4-0.2,2.9,0.9l4.7,9.5
	c0.4,0.7,0.3,1.6-0.2,2.2c-2.5,3.2-10.5,13.3-21.2,21c-13.2,9.6-19.8,14.5-29.8,16.3c-0.9,0.2-22.1,3.8-39.2-9
	C111.8,147.9,104.7,142.6,104.6,134.7L104.6,134.7z"/>
<circle fill="#A0616A" cx="124.1" cy="80.6" r="22"/>
<polygon fill="#A0616A" points="296.4,228.4 273.7,205.2 262,217.4 278.9,239.6 295.6,241.6 "/>
<path fill="#314A5B" d="M167,184.9c1.3,0.1,5.5,1,9.6-1.3c2.7-1.5,4.2-3.8,4.6-4.5c5.9-8.9,28.6-22.7,48.9-23.5
	c4.6-0.2,7.6,0.3,10.4,1.8c3.9,2,5.5,5,10.4,11.8c2.7,3.7,5.7,7.3,8.5,11c16.1,21.7,22.2,23.4,21.5,30.4c-0.7,7.7-9,15.1-14.6,14.2
	c-2.3-0.3-3.1-1.9-6.2-5.1c-8.9-9.4-12.6-7.6-18.9-14.8c-7.4-8.4-6.4-15.3-10.3-15.6c-3.6-0.2-5.1,5.7-12.7,13.5
	c-3.5,3.6-6,5.3-13.6,10.5c-29.5,20.5-30,21.9-35.9,23.5c-2.6,0.7-21.1,5.8-27.7-2.3C130.8,222,155.1,183.9,167,184.9L167,184.9z"/>
<path fill="#314A5B" d="M289.5,233.7c0.8-0.3,1.5-0.7,2.1-1.1c0.2-0.1,0.4-0.3,0.5-0.4c0.8-0.7,1.5-1.6,1.7-2.6c0.2-1,0-2-0.4-2.9
	c-0.3-0.7-0.8-1.4-1.4-2c-0.3-0.3-1-1-0.9-1.5c0.1-0.4,3,0.7,6.9,2.1c0.7,0.3,4.1,1.5,8.3,4.8c3.4,2.6,2.9,3.2,5.1,4.7
	c6.5,4.7,12.6,1,16.2,5.4c1.4,1.7,1.9,4.1,1.4,6c-1.2,3.9-6.7,5.2-9.8,5.9c-7.4,1.7-12.9,0.3-18.8-0.7c-19.8-3.3-30.9-0.3-32.4-4.9
	c-0.3-0.9,0.2-0.8,1.7-7.2c1.5-6.3,1.5-8,2.7-8.5c1.9-0.8,3.2,2.7,8.1,3.9c2.1,0.6,4.4,0.5,6.5-0.1
	C287.9,234.3,288.7,234,289.5,233.7z"/>
<polygon fill="#A0616A" points="256.1,304.2 250.4,272.3 233.9,275.9 235.3,303.7 248.1,314.7 "/>
<path fill="#314A5B" d="M173.5,195.6c1,0.8,4,3.9,8.6,4.3c3.1,0.3,5.5-0.8,6.3-1.1c9.9-4,36.4-2.7,53.7,8c3.9,2.4,6.1,4.6,7.6,7.3
	c2.1,3.9,1.7,7.2,2,15.6c0.1,4.6,0.7,9.2,0.8,13.8c1.1,27,5.2,31.8,0.7,37.3c-4.9,6-15.9,7.4-20,3.6c-1.7-1.6-1.5-3.4-2.2-7.7
	c-2.1-12.7-6.1-13.4-7.3-22.9c-1.4-11.1,3.3-16.3,0.2-18.7c-2.8-2.2-7.4,1.8-18.1,4.1c-4.9,1-7.9,1-17.1,1.1
	c-35.9,0.4-37.1,1.3-43-0.7c-2.6-0.9-20.7-7.1-21.6-17.4C122.7,205.9,164.2,188.1,173.5,195.6L173.5,195.6z"/>
<path fill="#314A5B" d="M247.4,304.7c1.8,0.3,3.9,0.7,5.5-0.6c1.1-0.9,2.2-2.4,2.1-3.9c-0.1-1.7-0.1-2.7-0.2-3.1
	c0.3-0.2,2,2.2,4.5,5.5c0.5,0.6,2.5,3.5,4.2,8.6c1.3,4.1,0.6,4.3,1.5,6.7c2.8,7.5,9.9,7.9,10.3,13.5c0.2,2.2-0.7,4.5-2.3,5.8
	c-3.1,2.6-8.5,0.6-11.4-0.6c-7-2.8-10.9-7-15.1-11.1c-14.5-13.9-25.4-17.6-24.1-22.2c0.3-0.9,0.6-0.6,5.4-5c4.8-4.4,5.7-5.8,7-5.5
	c2,0.5,1.2,4,4.5,7.7C242.4,303.8,246.3,304.5,247.4,304.7L247.4,304.7z"/>
<path fill="#46332C" d="M127.1,84.8c0-0.2,0.1-0.3,0.1-0.4c0-0.1,0.1-0.3,0.1-0.4c0.1-0.3,0.1-0.5,0.1-0.8c0-0.4,0.1-0.9,0.1-1.3
	c0-0.3,0-0.7,0-1c0-0.3,0-0.6,0.1-0.9c0.1-0.3,0.3-0.7,0.6-0.9c0.2-0.1,0.4-0.3,0.6-0.4c0.3-0.2,0.6-0.3,0.9-0.5
	c0.5-0.2,0.9-0.4,1.4-0.6c0.2-0.1,0.5-0.2,0.7-0.3c0.3-0.1,0.5-0.4,0.5-0.8c-0.9-5.7-0.3-7.1-0.2-7.3c0,0,0,0,0-0.1
	c1-1.3,3-1.6,4.4-1.5c2.9,0.4,3.4,3,5.3,2.9c2.6-0.1,5.6-5.2,4.7-9.6c-0.3-1.5-1.1-2.9-2.1-4c-0.5-0.6-1.8-2-2.7-1.8
	c-0.2,0-0.3,0.1-0.5,0.2c-0.6,0.2-1.3,0-1.9-0.1c-0.8-0.1-1.6-0.3-2.4-0.2c-0.3,0-0.6,0.1-0.8,0.3c-0.2,0.1-0.3,0.1-0.6,0
	c-0.4-0.2-0.8-0.4-1.2-0.6c-0.9-0.5-2-0.9-3.1-0.3c-0.1,0.1-0.2,0.1-0.3,0.3c-1.2,1.8-3.8,2-5,0.1c-0.4-0.6-0.6-1-1.2-1.2
	c-1.8-0.9-3.7,0.7-7,2.3c-6.8,3.3-8.8,1.3-12,4.1c-1.6,1.4-2.4,4.1-4.1,9.4c-2.3,7.4-3.4,11.1-2.3,14.6c1.1,3.6,2.8,2.8,5.3,7.9
	c2.7,5.7,1.8,8.9,4.4,10.2c2,1,5.2,0.4,6.4-1.5c2.1-3.1-3.3-7.4-1.5-12.3c1.1-3,4.6-5.3,6.7-4.7c2.4,0.7,2.6,5,4.1,5
	C126.1,88.6,127,85.4,127.1,84.8z"/>
<path fill="#FCB51F" d="M110.5,105.9c4.5-5,22.8,0.2,24.6,8.2c0.7,3.3-1.9,4.7-1.2,8.5c1.1,5.5,7.2,5.2,11.7,10.8
	c6.4,8-0.2,15.9,7,29.2c1.5,2.9,2.8,5.3,5.6,7.6c6.2,5.4,12,3.5,15.2,8.5c2.4,3.7,1.4,8.3,1.2,9.4c-0.9,4.4-3.5,5.5-5.3,9.1
	c-3,6,0.4,10.4,0.6,17.5c0.2,9-4.5,21.4-14,25.4c-10.7,4.6-23.6-3-29.8-10.5c-3.7-4.5-4.8-8.6-6.4-13.7c-7.3-22.8-11.4-20.8-17-38.9
	c-6.4-20.7-7.6-44.9,0-52.6c1-1,3.8-3.4,5.6-7.6C110.5,111,108.5,108.2,110.5,105.9L110.5,105.9z"/>
<path id="uuid-35da8825-ceb1-46f8-a8e3-884fcc945dd4-279" fill="#A0616A" d="M184.1,214.7c4.5,3.4,6.2,8.5,4.1,11.4
	c-2.2,2.8-7.6,2.3-12-1.1c-1.8-1.4-3.2-3.1-4.3-5.1l-18.7-14.9l5.9-7.3l18.9,14.4C180.2,212.3,182.4,213.3,184.1,214.7L184.1,214.7z
	"/>
<path fill="#FCB51F" d="M115.3,128.2c0.6-0.2,6-2.3,11,0.4c5.7,3.1,6.6,10.2,6.9,12.7c0.7,5.8-1.4,7-1.8,12.8
	c-0.8,10.9,5.5,19.9,8.9,24.8c1.2,1.7,5.1,7,11.9,12.2c9.9,7.7,18.6,12.2,22.3,14c1,0.5,1.2,1.7,0.5,2.5l-7.2,8.7
	c-0.5,0.6-1.3,0.9-2.1,0.8c-4.3-0.7-19-3.7-30.2-11c-13.7-8.9-31.8-47.3-37.1-56c-0.4-0.7-0.1,14.7,5.7-5.8
	C105.6,139.7,108.1,131.1,115.3,128.2L115.3,128.2z"/>
<path id="uuid-ba1531a6-e7ab-4297-b996-1d676f43fe3f-280" fill="#F7A88A" d="M273.9,421.7c-7,1.1-12.1,5.5-11.4,10
	c0.7,4.4,6.9,7.2,13.8,6.1c2.8-0.4,5.4-1.4,7.7-3.1l29.5-4.9l-2-11.6l-29.4,4.2C279.6,421.4,276.7,421.2,273.9,421.7L273.9,421.7z"
	/>
<path fill="#0B938E" d="M397.6,392.3l-7.3,15.3c-0.6,1.3-1.7,2.3-3.1,2.8l-52.1,17.6c-2.1,0.7-4.4,1.1-6.6,1.3l-39.2,2.1
	c-2.8,0.1-5.3-1.9-5.6-4.7v0c-0.4-3.6,2-7,5.6-7.7l43.5-8.7c1.2-0.3,2.4-0.7,3.5-1.2l49.9-24.1c0.9-0.4,1.8-0.6,2.8-0.5l4.1,0.4
	C397,385,399.2,388.9,397.6,392.3z"/>
<polygon fill="#F7A88A" points="295,477.4 284.7,503.4 271.5,494.3 279.3,467.2 "/>
<polygon fill="#F7A88A" points="252.2,467.8 225,493.7 235.9,505.2 263.6,483.4 "/>
<polygon fill="#E29881" points="406,383.3 405.7,381.2 398.7,367.6 375.8,373.7 380,392.4 "/>
<path fill="#314A5B" d="M396.3,473.8l0.7,9.1c0,0,2.9,38-20.6,41s-33.8,6-47.6-17.5L307,467.8l-11.3,13.4c-0.8,1-2.2,1.1-3.2,0.3
	c0,0-15.1-11.9-15.1-11.9c2.5-11.9,5.9-23.9,10.8-35c2.5-5.7,6.2-13.2,13.1-14.4c8-1.4,17.1,3.9,21.7,10.1c0,0,27.4,36.7,27.4,36.7
	l10-4.5L396.3,473.8z"/>
<path fill="#314A5B" d="M270.6,493.2c0.4-0.8,1.4-1,2.1-0.5l13.6,9.4c0.5,0.4,0.9,0.9,1,1.5c0.7,3.1,2.5,12.7-2,14.2
	c-3.9,1.3-13.1,0.4-17.7-0.2c-1.9-0.2-3.8-0.2-5.6,0.2c-7.1,1.4-25,4.4-25.5,0c-0.5-4.1,7-5.8,10.7-6.3c1.4-0.2,2.8-0.7,4-1.4
	l12.5-6.8c1.5-0.8,2.7-2,3.5-3.5L270.6,493.2z"/>
<path fill="#314A5B" d="M325.1,494.9l-41.9-26.4l-20,17.9c-0.8,0.7-1.9,0.6-2.6-0.2l-12.4-14.4c-0.5-0.6-0.6-1.5-0.1-2.2
	c4.2-6.1,8.6-12,13.1-17.8c2.9-3.8,5.9-7.5,9-11.2c3.9-4.5,7.5-9.4,13.3-11.4c3.4-1.2,7.1-1.5,10.7-1.9c1.2-0.1,7.2-1.4,8.1-0.6
	c0,0,38.6,35.6,38.6,35.6L325.1,494.9z"/>
<path fill="#314A5B" d="M223,492.3c0.8-0.5,1.9-0.4,2.5,0.3c3.1,3.4,11.7,12.7,11.7,12.8c0.6,0.6,0.5,1.4,0,1.9
	c-0.6,0.7-1.1,1.4-1.5,2.2c-1.8,3.4-2.3,9.6-7.2,10.2c-1.2,0.1-2.5-0.2-3.6-0.8c-2.4-1.4-4.8-3.1-7.1-4.8c-1.7-1.3-3.9-1.8-6.1-1.4
	c-4.9,0.8-10,1.3-14.9,0.5c-3.1-0.5-6.3-1.6-7.7-4.7c-0.8-1.8-1.1-4.5,0.2-6.1c1.2-1.6,3.7-1.9,5.5-1.2c1.1,0.4,2,1.2,3.1,1.5
	c1,0.3,2.1,0.2,3.2-0.1c2-0.6,10.7-3.4,12.6-4.3C216.2,496.9,220.8,493.8,223,492.3z"/>
<circle fill="#F7A88A" cx="383" cy="361" r="19.3"/>
<path fill="#0B938E" d="M378.5,388.4l27.7-8.4c0,0,10.9,25.3,9,36.8c-1.8,11.5-18.3,66.1-18.3,66.1l-36.6-20.2
	c0,0-0.6-12.1-2.4-17.5s-7.5-22,5.1-35.9S378.5,388.4,378.5,388.4L378.5,388.4z"/>
<path id="uuid-375aaccb-22f9-42b6-a352-baabb12db8d2-281" fill="#F7A88A" d="M318.4,514.5c-4.5,5.4-5.4,12.1-1.9,15
	c3.4,2.9,9.9,0.8,14.4-4.6c1.8-2.1,3.1-4.7,3.8-7.4l18.8-23.2l-9.2-7.4L325,509.5C322.5,510.6,320.2,512.3,318.4,514.5L318.4,514.5z
	"/>
<path fill="#0B938E" d="M399.8,400.6l6.6,26l-30.6,51.3c-0.2,0.4-0.5,0.7-0.8,1l-32.2,30.7c-0.8,0.8-2,0.8-2.8,0.1l-8.3-6.8
	c-0.9-0.7-1-2-0.3-2.9l32.5-39l25.1-53L399.8,400.6z"/>
<path fill="#2A1D19" d="M365.2,357.7c4.9,0,5.2,0,6,0c6.1-0.2,7.7-2.6,10.9-2.4c5.6,0.3-1.8,28.1-4.8,41c-3,12.6,7.1,23.9,7.8,24.7
	c10.3,11.2,28.3,13.2,31.4,8.4c2.5-3.8-6.4-9.7-4.2-18.1c2.1-8.2,11.8-7.3,14.5-15.1c2.8-8.1-6.7-12.2-12.7-32
	c-3.4-11.4-2.8-13.5-6-20.5c-8.6-18.8-50.6-10.8-45.8,6.6C363.1,353.8,360.7,357.7,365.2,357.7L365.2,357.7z"/>
<path fill="#FFFFFF" d="M426.9,128.6H224c-5.7,0-10.4-4.7-10.4-10.4V10.4C213.6,4.7,218.3,0,224,0h202.9c5.7,0,10.4,4.7,10.4,10.4
	v107.8C437.3,123.9,432.6,128.6,426.9,128.6z"/>
<path fill="#C99118" d="M426.9,128.6H224c-5.7,0-10.4-4.7-10.4-10.4V10.4C213.6,4.7,218.3,0,224,0h202.9c5.7,0,10.4,4.7,10.4,10.4
	v107.8C437.3,123.9,432.6,128.6,426.9,128.6z M224,1.7c-4.8,0-8.7,3.9-8.7,8.7v107.8c0,4.8,3.9,8.7,8.7,8.7h202.9
	c4.8,0,8.7-3.9,8.7-8.7V10.4c0-4.8-3.9-8.7-8.7-8.7C426.9,1.7,224,1.7,224,1.7z"/>
<circle fill="#C99118" cx="411.2" cy="10.4" r="2.6"/>
<circle fill="#C99118" cx="418.2" cy="10.4" r="2.6"/>
<circle fill="#C99118" cx="425.1" cy="10.4" r="2.6"/>
<path fill="#E6E6E6" d="M228.4,52.6c-0.7,0-1.3,0.6-1.3,1.3c0,0.4,0.1,0.7,0.4,0.9c0.2,0.3,0.6,0.4,0.9,0.4h195
	c0.7,0,1.3-0.6,1.3-1.3c0-0.4-0.1-0.7-0.4-0.9c-0.2-0.3-0.6-0.4-0.9-0.4H228.4z"/>
<path fill="#FDCE6A" d="M399.1,52.1v3.5H228.4c-0.5,0-0.9-0.2-1.2-0.5s-0.5-0.7-0.5-1.2c0-1,0.8-1.7,1.7-1.7L399.1,52.1L399.1,52.1z
	"/>
<path fill="#E6E6E6" d="M421.2,45.6h-17.4c-1.9,0-3.5-1.6-3.5-3.5s1.6-3.5,3.5-3.5h17.4c1.9,0,3.5,1.6,3.5,3.5
	S423.1,45.6,421.2,45.6z"/>
<path fill="#E6E6E6" d="M307.4,27.4h-77.7c-1.9,0-3.5-1.6-3.5-3.5s1.6-3.5,3.5-3.5h77.7c1.9,0,3.5,1.6,3.5,3.5
	S309.3,27.4,307.4,27.4z"/>
<path fill="#E6E6E6" d="M228.4,91.6c-0.7,0-1.3,0.6-1.3,1.3c0,0.4,0.1,0.7,0.4,0.9c0.2,0.3,0.6,0.4,0.9,0.4h195
	c0.7,0,1.3-0.6,1.3-1.3c0-0.4-0.1-0.7-0.4-0.9c-0.2-0.3-0.6-0.4-0.9-0.4H228.4z"/>
<path fill="#FDCE6A" d="M332.2,91.2v3.5H228.4c-0.5,0-0.9-0.2-1.2-0.5s-0.5-0.7-0.5-1.2c0-1,0.8-1.7,1.7-1.7h103.8V91.2z"/>
<path fill="#E6E6E6" d="M421.2,84.7h-17.4c-1.9,0-3.5-1.6-3.5-3.5s1.6-3.5,3.5-3.5h17.4c1.9,0,3.5,1.6,3.5,3.5
	S423.1,84.7,421.2,84.7z"/>
<path fill="#53E0DC" d="M202.9,265.7h-57.3c-1.4,0-2.6-1.6-2.6-3.7s1.1-3.7,2.6-3.7h57.3c1.4,0,2.6,1.6,2.6,3.7
	S204.3,265.7,202.9,265.7L202.9,265.7z"/>
<path fill="#53E0DC" d="M173.9,395.5h-23c-0.6,0-1.1-0.5-1.1-1.1s0.5-1.1,1.1-1.1h23c0.6,0,1.1,0.5,1.1,1.1S174.5,395.5,173.9,395.5
	L173.9,395.5z"/>
<path fill="#53E0DC" d="M287.6,373.5h-63.7c-1.6,0-2.9-1.3-2.9-2.9c0-1.7,1.3-2.9,2.9-2.9h63.7c1.6,0,2.9,1.3,2.9,2.9
	C290.5,372.2,289.2,373.5,287.6,373.5L287.6,373.5z"/>
</svg>
