<?xml version="1.0" encoding="utf-8"?>
<!-- Generator: Adobe Illustrator 27.0.1, SVG Export Plug-In . SVG Version: 6.00 Build 0)  -->
<svg version="1.1" id="Layer_1" xmlns="http://www.w3.org/2000/svg" xmlns:xlink="http://www.w3.org/1999/xlink" x="0px" y="0px"
	 viewBox="0 0 569.9 687.1" enable-background="new 0 0 569.9 687.1" xml:space="preserve">
<path fill="#0B1A27" stroke="#747373" stroke-miterlimit="10" d="M21.7,605.6v-6.3c0-6.6,5.4-12,12-12h532.6v18.3
	c0,6.6-5.4,12-12,12H33.7C27.1,617.6,21.7,612.2,21.7,605.6z"/>
<polygon fill="#253847" points="480.6,429.1 480.5,431.1 234.9,431.1 234.9,429.1 "/>
<polygon fill="#253847" points="481.1,386.6 481,388.6 234.9,388.6 234.9,386.6 "/>
<polygon fill="#253847" points="481.6,344.1 481.5,346.1 234.9,346.1 234.9,344.1 "/>
<path fill="#253847" d="M480,475.5v2H229.5V267.6h2v125.6c0,12.9,3,25,8.2,35.9c0.3,0.7,0.7,1.3,1,2c13.7,26.4,41.3,44.4,73.1,44.4
	H480z"/>
<path fill="#F4C2A6" d="M196.6,353.2c0.7,4.3-2.8,8.3-7.2,8.2L174.9,394l-10-1.8l17.5-38.6c0.3-3.2,2.7-5.9,6.1-6.4
	C192.3,346.6,196,349.3,196.6,353.2L196.6,353.2z"/>
<path fill="#07615E" d="M116.5,457L116.5,457c4.1,4.3,10.8,4.7,15.5,1.1l31.5-24.7c1.7-1.4,3-3.2,3.7-5.3l16-49.5l-12.3-5.7
	l-22,43.8c-0.8,1.6-2,3-3.5,4l-27.3,18.8C112.3,443.5,111.5,451.8,116.5,457L116.5,457z"/>
<path fill="#AB532F" d="M125.7,435.1c-0.9-0.6-1.8-1.2-2.8-1.6c0-0.3,0-0.5,0-0.8c0.1-2.6-0.5-5.3-1.5-7.7c0.1,2.1-0.5,4.3-1.8,6
	c-0.2,0.3-0.5,0.6-0.7,0.8c-0.1,0.1-0.1,0.1-0.2,0.2c-1.4-0.3-2.9-0.5-4.3-0.5c-1.6,0-3.2,0.2-4.8,0.6c-2,0.4-4,0.9-5.9,1.3
	c-0.1,0-0.2,0.1-0.4,0.1c-0.9-2.5-2.3-4.7-4.2-6.6c0.9,1.9,1.1,4.2,0.5,6.2c-0.1,0.4-0.2,0.7-0.4,1c-2.2,0.2-4.3,0.2-6.4-0.4
	c-0.9-0.2-1.7-0.6-2.5-1c-2.9-1.4-5.4-3.5-8.4-4.7c-1.6-0.7-3.3-1.1-5-1.3c-1.4-8.2-1-15.6,3.4-20.9c0-12.1,9.8-21.9,21.9-21.9
	l10,3.5l10.1,3.5C127,403.8,134.6,415,125.7,435.1z"/>
<polygon fill="#F4C2A6" points="142.7,663.1 148.2,666.8 163.3,642.1 155.1,636.8 "/>
<path fill="none" stroke="#0B1A27" stroke-width="4" stroke-miterlimit="10" d="M554.3,618.6H33.7c-6.6,0-12-5.4-12-12V16
	c0-6.6,5.4-12,12-12h520.6c6.6,0,12,5.4,12,12v590.6C566.3,613.2,560.9,618.6,554.3,618.6z"/>
<path fill="#565656" d="M159.3,680l-5.3-9.3c-1.2-2.1-1.3-4.7-0.3-7l0,0c0.3-0.7,0-1.6-0.7-1.9l-1.1-0.4l-7.5-3l-0.6-0.2
	c-0.7-0.3-1.5,0-1.9,0.7l-8.5,14.5c-0.3,0.5-0.1,1.2,0.4,1.4l3.2,1.5c0.5,0.2,1.1,0.1,1.4-0.4l2.3-3.1c0.1-0.2,0.3-0.1,0.3,0.1v4.8
	c0,0.3,0.2,0.7,0.5,0.8l13.1,6.3c1.7,0.8,3.7,0.1,4.5-1.6C159.9,682.2,159.9,681,159.3,680L159.3,680z"/>
<rect x="94.4" y="425.1" transform="matrix(0.1238 -0.9923 0.9923 0.1238 -336.2456 482.4525)" fill="#F4C2A6" width="21.3" height="13"/>
<rect x="94.4" y="425.1" transform="matrix(0.1238 -0.9923 0.9923 0.1238 -336.2456 482.4525)" opacity="0.14" enable-background="new    " width="21.3" height="13"/>
<polygon fill="#F4C2A6" points="240.9,574.1 246.8,569.2 230.5,543.9 221.8,550.9 "/>
<path fill="#565656" d="M264.5,566.8l-10.6,0.9c-2.5,0.2-4.9-0.8-6.5-2.7l0,0c-0.5-0.6-1.5-0.7-2.1-0.1l-0.8,0.8l-5.9,5.6l-0.2,0.2
	c-0.7,0.7-0.8,1.7-0.2,2.5l9.3,13.4c0.4,0.6,1.2,0.7,1.7,0.2l2.7-2.2c0.4-0.3,0.5-0.9,0.3-1.3l-1.9-3.4c-0.1-0.2,0.1-0.4,0.3-0.3
	l3.9,1.8c0.5,0.2,1.2,0.2,1.6-0.2l10.9-9c1.4-1.2,1.7-3.4,0.5-4.8C266.7,567.2,265.6,566.8,264.5,566.8L264.5,566.8z"/>
<path fill="#FCB51F" d="M127.3,523.1l-27-6l0.2,8.2c0,0-28.2,21.8-2.2,42.8c22.5,18.2,58.6,22.1,67.8,22.9c1.1,0.1,1.8,1.2,1.5,2.2
	L149,647c-0.4,1.2,0.2,2.5,1.3,2.9l6.3,2.5c1,0.4,2.1,0.1,2.8-0.8l38.3-52.3c5.3-9.6,3.8-21.8-4.1-29.4c-1.5-1.5-3.3-2.8-5.3-3.8
	c-12-6-44-18-44-18l-16-16L127.3,523.1L127.3,523.1z"/>
<path fill="#FCB51F" d="M126.7,536.6l58-31c6.5-3.5,14.5-2.2,19.6,3.2l35.9,45.7c1.2,1.6,0.9,3.9-0.8,5.1l-6.4,4.5
	c-1.3,0.9-3,0.8-4.2-0.2l-35.9-29.3c-1.5-1.2-3.7-1.2-5.2,0.2c-6.9,6.4-25.9,23.6-31.5,23.1C149.2,557.4,126.7,536.6,126.7,536.6z"
	/>
<path fill="#07615E" d="M96.3,540.9c0,0-17-9.7-9-17.8s9-34,9-34l-13-39.2l7.2-5c1.8-1.3,3.1-3.2,3.7-5.3l1.8-7.3
	c0.2-0.7,0.8-1.3,1.6-1.3l14.9-0.8c1-0.1,1.8,0.7,1.8,1.7v4.5c0,1.7,0.6,3.3,1.7,4.5l16.3,18.1c6.1,6.8,8,16.4,4.8,25l-3,8.2
	c-1.1,3.1-1.2,6.5-0.2,9.7c3.3,10.1,9.7,33.4,0.4,37.3C122.3,544,96.3,540.9,96.3,540.9z"/>
<path fill="#0B1A27" d="M186.4,397.7l-47.3-42.2c-7.1-6.3-7.8-17.3-1.5-24.4s17.3-7.8,24.4-1.5l0.1,0.1l47.3,42.2
	c7.1,6.4,7.7,17.3,1.3,24.4C204.3,403.4,193.5,404,186.4,397.7L186.4,397.7z"/>
<circle fill="#F4C2A6" cx="109.5" cy="408.8" r="18"/>
<path fill="#AB532F" d="M118.9,405.1c-0.1-2.1-0.6-4.2-1.5-6.1c0.1,2.1-0.5,4.3-1.8,6l-0.1,0.1c-3.3,1.6-8.9,0.7-14.3,0v-20h11
	c10.8-3.6,19.7,4.3,20,20C127.1,406,122.2,406.5,118.9,405.1L118.9,405.1z"/>
<path fill="#AB532F" d="M109.6,432.1c-2,0.4-4,0.9-5.9,1.3c-0.1,0-0.2,0.1-0.4,0.1c-0.9-2.5-2.3-4.7-4.2-6.6
	c0.9,1.9,1.1,4.2,0.5,6.2c-0.1,0.4-0.2,0.7-0.4,1c-2.2,0.2-4.3,0.2-6.4-0.4c-0.9-0.2-1.7-0.6-2.5-1V390h21
	C103.1,404,102,418,109.6,432.1z"/>
<path fill="#0B938E" d="M242,158c5.5-11.5,19.8-17.8,32-14.3c6.9,2,12.6,6.6,19,10c6.3,3.4,14.2,5.5,20.5,2.2
	c10.9-5.7,10.3-22.6,19.8-30.4c6.3-5.2,15.6-5,23.4-2.5c7.8,2.4,15,6.7,22.8,9c14.7,4.2,31.3,0.7,43-9.2c0.1-0.1,0.2-0.2,0.3-0.3
	c5.8-5.1,14.8-0.9,14.6,6.8l-1.5,53.6H243L242,158L242,158z"/>
<path fill="#3DA6A2" d="M411.3,148.3c0.6-0.3,0.6-1.1,0-1.4c-4.4-1.8-9.4-4.4-13.2-7.1c-0.6-0.4-1.4,0.2-1.2,0.9l2.2,6h-37v2h37
	l-2.2,6c-0.3,0.7,0.6,1.3,1.2,0.9C401.9,152.7,406.9,150.1,411.3,148.3z"/>
<path fill="#3DA6A2" d="M328.1,138.7c0.3-0.6-0.2-1.3-0.9-1.1c-4.6,1.3-10.1,2.2-14.8,2.3c-0.8,0-1,1-0.4,1.4l5.3,3.4L288,167.1
	l1.2,1.6l29.4-22.4l1.9,6.1c0.2,0.7,1.2,0.7,1.5,0C323.3,147.9,325.7,142.8,328.1,138.7L328.1,138.7z"/>
<circle fill="#C99118" cx="429.3" cy="118.7" r="17.1"/>
<circle fill="#FCB51F" cx="345.3" cy="118.7" r="17.1"/>
<circle fill="#FDCE6A" cx="269.3" cy="134.7" r="17.1"/>
<g>
	<path fill="#07615E" d="M477.3,217.1l-266-1.9c-8.5-0.1-15.5,6.8-15.6,15.4c-0.1,8.5,6.8,15.5,15.4,15.6l266,1.9
		c8.5,0.1,15.5-6.8,15.6-15.4C492.8,224.1,485.9,217.1,477.3,217.1L477.3,217.1z"/>
	<circle fill="#07615E" cx="171.6" cy="227.4" r="7"/>
</g>
<g>
	<path fill="#47BFB6" d="M477.3,45.1l-266-1.9c-8.5-0.1-15.5,6.8-15.6,15.4s6.8,15.5,15.4,15.6l266,1.9c8.5,0.1,15.5-6.8,15.6-15.4
		S485.9,45.1,477.3,45.1L477.3,45.1z"/>
	<circle fill="#47BFB6" cx="171.6" cy="55.4" r="7"/>
</g>
<g>
	<path fill="#F8F8F8" stroke="#0B1A27" stroke-width="0.75" stroke-miterlimit="10" d="M144.1,615.7h-43.6c-3.7,0-6.6-3-6.6-6.6
		v-43.6c0-3.7,3-6.6,6.6-6.6h43.6c3.7,0,6.6,3,6.6,6.6V609C150.8,612.7,147.8,615.7,144.1,615.7z"/>
	<path fill="#F8F8F8" stroke="#0B1A27" stroke-width="0.75" stroke-miterlimit="10" d="M144.1,615.7h-43.6c-3.7,0-6.6-3-6.6-6.6
		v-43.6c0-3.7,3-6.6,6.6-6.6h43.6c3.7,0,6.6,3,6.6,6.6V609C150.8,612.7,147.8,615.7,144.1,615.7z M100.5,559.9
		c-3.1,0-5.6,2.5-5.6,5.6V609c0,3.1,2.5,5.6,5.6,5.6h31c10,0,18.1-8.1,18.1-18.1v-31c0-3.1-2.5-5.6-5.6-5.6H100.5z"/>
</g>
<path fill="#FDCE6A" d="M77.8,561.8c-0.1-4.4,3.8-7.6,7.9-8.4c5.2-1,10.4,1.6,14.8,4c7.8,4.3,16.9,0,25.2,5.3
	c12.3,7.7,14.9-3.9,14.1-17.6c-0.6-10.1,1.9-20,2.4-30c0.5-9.6,3.1-19.3,11.2-25.2c3.4-2.5,7.7-4,11.9-3.1c4.5,0.9,8.1,4.2,12.5,5.6
	c8.1,2.6,16.6-0.9,22.7-6.3c7.1-6.3,10.5-15.2,12.9-24.1c2.5-9.3,4.1-19,8.7-27.5c3.9-7.3,10.1-14,18.7-15.4
	c8.4-1.4,16.4,2.7,23.6,6.4c7.4,3.8,15.1,7.9,23.6,8.2c18.2,0.8,32.3-14.8,40.2-29.5c9-16.8,14.2-37.2,30.3-49.1
	c6.9-5.1,15.6-8.7,24.3-7.3c8.8,1.4,15.2,7.8,21,14.1c6,6.4,11.9,12.7,20,16.3c8,3.6,16.8,5,25.5,3.8c4.2-0.6,8.2-1.7,12.1-3.4
	c1.8-0.8,0.2-3.3-1.5-2.6c-8.5,3.7-18.1,4.3-27.1,2.1c-9-2.2-16.2-7.2-22.5-13.8c-5.8-6-11.3-12.9-18.9-16.8
	c-7.7-3.9-16.5-3.8-24.5-0.7c-8.1,3.2-15,8.9-20.3,15.7c-6.1,7.9-10.2,17.2-14.3,26.3c-7.4,16.4-16.9,35.8-35.9,40.9
	c-18,4.8-31.3-11.1-48.1-13.6c-8.2-1.2-16.1,1.6-21.9,7.5c-6,6.1-9.5,14.2-11.9,22.3c-2.8,10-4.3,20.7-9.5,29.8
	c-4.1,7.2-11.7,13.9-20.4,14.4c-5,0.3-8.7-2-13-4.2c-3.8-2-7.8-3-12.1-2.2c-8,1.6-14.3,8.7-17.3,15.9c-7.6,17.8,2.9,40.8-12,56
	c-2.7,2.8-20.3,3.4-24.7,0.9c-7.7-4.3-17.4-10-25.9-4.1c-3,2.1-5,5.3-4.9,9C74.9,563.7,77.9,563.7,77.8,561.8L77.8,561.8L77.8,561.8
	z"/>
<circle fill="#FCB51F" cx="377.3" cy="345.1" r="9"/>
<circle fill="#FCB51F" cx="293.3" cy="430.1" r="9"/>
<path fill="#F4C2A6" d="M102.9,565.4c-2.6-1.8-3.9-5.2-2.6-8.4c0.7-1.8,0.8-3.9,0.1-5.7L88,521.8l8.1-6.1l14.8,35.7
	c0.1,0.3,0.3,0.6,0.5,0.8c2.5,3.1,4.8,9.1,1.1,12.2c-1.7,1.5-4.1,2.4-6.3,2.2C104.9,566.4,103.9,566,102.9,565.4z"/>
<path fill="#07615E" d="M92.7,445.9L92.7,445.9c-5.9-0.5-11.2,3.6-12.4,9.4l-7.5,39.6c-0.4,2-0.1,4.1,0.8,5.9l22.6,46
	c0.6,1.2,2,1.7,3.2,1.1l8.8-4.1c1.1-0.5,1.7-1.8,1.3-3l-14.4-43.3c-0.6-1.7-0.6-3.6-0.2-5.3l8-32.1
	C104.7,453.4,99.8,446.5,92.7,445.9L92.7,445.9z"/>
<path fill="#253847" d="M104.3,574.9c-0.8,0-1.5,0.7-1.5,1.5v1c0,0.8,0.7,1.5,1.5,1.5h35c0.8,0,1.5-0.7,1.5-1.5v-1
	c0-0.8-0.7-1.5-1.5-1.5H104.3z"/>
<path fill="#253847" d="M104.3,585.9c-0.8,0-1.5,0.7-1.5,1.5v1c0,0.8,0.7,1.5,1.5,1.5h35c0.8,0,1.5-0.7,1.5-1.5v-1
	c0-0.8-0.7-1.5-1.5-1.5H104.3z"/>
<path fill="#253847" d="M104.3,596.9c-0.8,0-1.5,0.7-1.5,1.5v1c0,0.8,0.7,1.5,1.5,1.5h35c0.8,0,1.5-0.7,1.5-1.5v-1
	c0-0.8-0.7-1.5-1.5-1.5H104.3z"/>
<path fill="#0B1A27" d="M34.9,617.6h-1.3c-6.6,0-12-5.4-12-12V15c0-6.6,5.4-12,12-12h13.3v602.6C46.9,612.2,41.5,617.6,34.9,617.6z"
	/>
</svg>
