<svg width="402" height="310" viewBox="0 0 402 310" fill="none" xmlns="http://www.w3.org/2000/svg">
<path d="M110.371 139C109.826 139 109.371 139.777 109.371 140.71V154.29C109.371 155.223 109.826 156 110.371 156C110.917 156 111.371 155.223 111.371 154.29V140.71C111.371 139.777 110.917 139 110.371 139Z" fill="#3F3D56"/>
<path d="M289.395 0H148.347C132.35 0 119.371 13.0134 119.371 29.0521V278.948C119.371 294.987 132.35 308 148.347 308H289.395C305.392 308 318.371 294.987 318.371 278.948V29.0521C318.371 13.0134 305.392 0 289.395 0Z" fill="white"/>
<path d="M289.775 310H148.967C132.663 310 119.371 296.622 119.371 280.213V29.7873C119.371 13.3778 132.663 0 148.967 0H289.775C306.079 0 319.371 13.3778 319.371 29.7873V280.213C319.371 296.622 306.127 310 289.775 310ZM148.967 1.34741C133.38 1.34741 120.758 14.0997 120.758 29.7392V280.165C120.758 295.852 133.428 308.556 148.967 308.556H289.775C305.362 308.556 317.985 295.804 317.985 280.165V29.7873C317.985 14.0997 305.314 1.39553 289.775 1.39553C289.775 1.34741 148.967 1.34741 148.967 1.34741Z" fill="#0B1A27"/>
<path d="M299.974 60H242.768C240.352 60 238.371 57.9725 238.371 55.5C238.371 53.0275 240.352 51 242.768 51H299.974C302.39 51 304.371 53.0275 304.371 55.5C304.371 57.9725 302.39 60 299.974 60Z" fill="#908D8D"/>
<path d="M245.794 95H190.901C189.517 95 188.371 93.8679 188.371 92.5C188.371 91.1321 189.517 90 190.901 90H245.841C247.226 90 248.371 91.1321 248.371 92.5C248.323 93.8679 247.178 95 245.794 95Z" fill="#53E0DC"/>
<path d="M149.506 46H179.236C179.326 46 179.371 46.0471 179.371 46.1412V49.8588C179.371 49.9529 179.326 50 179.236 50H149.506C149.416 50 149.371 49.9529 149.371 49.8588V46.1412C149.371 46.0471 149.416 46 149.506 46Z" fill="#908D8D"/>
<path d="M278.371 50C280.028 50 281.371 48.6569 281.371 47C281.371 45.3431 280.028 44 278.371 44C276.714 44 275.371 45.3431 275.371 47C275.371 48.6569 276.714 50 278.371 50Z" fill="#908D8D"/>
<path d="M287.371 50C289.028 50 290.371 48.6569 290.371 47C290.371 45.3431 289.028 44 287.371 44C285.714 44 284.371 45.3431 284.371 47C284.371 48.6569 285.714 50 287.371 50Z" fill="#908D8D"/>
<path d="M295.371 50C297.028 50 298.371 48.6569 298.371 47C298.371 45.3431 297.028 44 295.371 44C293.714 44 292.371 45.3431 292.371 47C292.371 48.6569 293.714 50 295.371 50Z" fill="#908D8D"/>
<path d="M148.371 108C148.371 108.529 148.752 109 149.181 109H288.561C288.99 109 289.371 108.529 289.371 108C289.371 107.471 288.99 107 288.561 107H149.181C148.752 107 148.371 107.412 148.371 108Z" fill="#0B1A27"/>
<path d="M258.371 224C258.371 224.529 258.758 225 259.193 225H400.55C400.984 225 401.371 224.529 401.371 224C401.371 223.471 400.984 223 400.55 223H259.193C258.758 223 258.371 223.412 258.371 224Z" fill="#0B1A27"/>
<path d="M274.836 173H190.906C189.519 173 188.371 171.642 188.371 170C188.371 168.359 189.519 167 190.906 167H274.836C276.223 167 277.371 168.359 277.371 170C277.371 171.642 276.223 173 274.836 173Z" fill="#53E0DC"/>
<path d="M165.371 176C169.237 176 172.371 173.314 172.371 170C172.371 166.686 169.237 164 165.371 164C161.505 164 158.371 166.686 158.371 170C158.371 173.314 161.505 176 165.371 176Z" fill="#53E0DC"/>
<path d="M165.371 180V178.694C170.191 178.694 174.065 174.775 174.065 170C174.065 165.225 170.146 161.306 165.371 161.306V160C170.867 160 175.371 164.504 175.371 170C175.371 175.495 170.867 180 165.371 180Z" fill="#0B1A27"/>
<path d="M91.3067 145.52C93.7465 143.028 96.9689 142.229 98.5341 143.828C100.099 145.426 99.4087 148.718 96.9689 151.21C96.0022 152.245 94.8513 152.997 93.5164 153.467L83.1126 164L78.3711 158.922L89.0971 149.094C89.6034 147.73 90.34 146.508 91.3067 145.52Z" fill="#FFB6B6"/>
<path d="M56.1257 136.716L67.8952 161.46L86.6669 151.845L93.3711 155.239C93.3711 155.239 78.026 179.559 67.5476 176.778C57.0692 173.998 38.3968 148.876 41.7738 141.146C45.101 133.37 56.1257 136.716 56.1257 136.716Z" fill="#FCB51F"/>
<path d="M0 308.5C0 308.792 0.239852 309 0.575646 309H350.424C350.76 309 351 308.792 351 308.5C351 308.208 350.76 308 350.424 308H0.575646C0.239852 308 0 308.25 0 308.5Z" fill="#3F3D56"/>
<path d="M111.371 186C128.492 186 142.371 172.121 142.371 155C142.371 137.879 128.492 124 111.371 124C94.2503 124 80.3711 137.879 80.3711 155C80.3711 172.121 94.2503 186 111.371 186Z" fill="#53E0DC"/>
<path d="M51.6719 304.052H59.9273L63.863 272.134H51.6719V304.052Z" fill="#F8F8F8"/>
<path d="M80.0404 303.907C80.2804 304.339 80.4244 305.731 80.4244 306.259C80.4244 307.795 79.1765 309.091 77.5926 309.091H51.9624C50.9064 309.091 50.0425 308.227 50.0425 307.171V306.067C50.0425 306.067 48.7946 302.851 51.3864 298.916C51.3864 298.916 54.6502 302.036 59.4978 297.14L60.9377 294.548L71.305 302.132L77.0646 302.852C78.2645 302.995 79.3684 302.804 80.0404 303.907Z" fill="#F8F8F8"/>
<path d="M57.1844 137L57.3711 126.146L50.6511 122L43.3711 130.898L57.1844 137Z" fill="#FFB6B6"/>
<path opacity="0.1" d="M57.0087 137L57.3711 126.425L51.3711 122L53.4248 135.09L57.0087 137Z" fill="black"/>
<path d="M74.3711 211.69L63.2111 290H49.2376L51.1132 245.3L52.0979 221.812L49.2376 210.624C49.2376 210.624 47.9247 208.155 46.8462 205.104C45.627 201.713 44.6423 197.645 46.0959 195.708C46.6117 194.982 48.0184 194.449 49.8941 194.062C51.0195 193.82 52.3793 193.626 53.786 193.481C62.0388 192.657 73.8084 193.141 73.8084 193.141L74.0898 203.312L74.2773 208.978L74.3711 211.69Z" fill="#747373"/>
<path d="M37.082 300.26L45.2415 301.46L53.7848 270.454L41.7377 268.678L37.082 300.26Z" fill="#F8F8F8"/>
<path d="M65.1602 304.195C65.3522 304.675 65.3042 306.067 65.2082 306.547C64.9682 308.083 63.5763 309.139 62.0404 308.899L36.6502 305.251C35.5943 305.107 34.8743 304.147 35.0183 303.092L35.1623 302.036C35.1623 302.036 34.3944 298.676 37.5141 295.124C37.5141 295.124 40.2979 298.676 45.7696 294.548L47.5454 292.196L56.6648 301.172L62.2324 302.708C63.5283 303.044 64.6802 303.044 65.1602 304.195Z" fill="#F8F8F8"/>
<path d="M75.3711 198.479L73.7583 211.954L65.0591 240.342L50.7884 287L36.3711 284.938L49.3222 218.523L48.0515 207.159C48.0515 207.159 47.6117 206.008 47.1718 204.377C46.2433 201.117 45.0215 195.746 46.341 193.061C46.5365 192.677 46.732 192.389 47.0252 192.101C47.5628 191.622 48.5891 191.334 50.0064 191.142C55.8711 190.471 67.9425 192.341 73.3185 193.252L75.3711 198.479Z" fill="#747373"/>
<path d="M45.3873 129L59.5975 135.642C59.5975 135.642 74.6408 179.127 74.6408 181.325C74.6408 183.523 78.9038 184.909 76.3558 187.442C73.8078 189.974 81.1089 192.029 77.1888 194.036C73.2687 196.043 48.6703 206.938 45.9263 205.935C38.3801 203.211 46.2693 193.272 46.2693 193.272C46.2693 193.272 40.5852 188.828 41.4672 186.629C42.3002 184.431 36.3711 142.045 36.3711 142.045L45.3873 129Z" fill="#FCB51F"/>
<path d="M87.6679 167.646C91.1236 166.638 94.4354 167.598 95.1073 169.757C95.7793 171.917 93.4754 174.557 90.0197 175.565C88.6278 175.997 87.1879 176.093 85.796 175.853L71.109 179.981L69.2852 173.117L83.9721 169.757C85.028 168.749 86.276 168.078 87.6679 167.646Z" fill="#FCB51F"/>
<path d="M61.7026 143.119L59.3988 170.669L79.9893 170.909L83.9731 177.053C83.9731 177.053 58.9668 191.5 51.4793 184.108C43.9919 176.717 40.6321 145.615 47.3036 140.287C53.9752 134.96 61.7026 143.119 61.7026 143.119Z" fill="#FCB51F"/>
<path d="M57.6219 129.92C64.1958 129.92 69.5251 124.591 69.5251 118.017C69.5251 111.443 64.1958 106.114 57.6219 106.114C51.048 106.114 45.7188 111.443 45.7188 118.017C45.7188 124.591 51.048 129.92 57.6219 129.92Z" fill="#FFB6B6"/>
<path d="M51.1901 118.065C51.1901 118.065 53.062 114.945 54.1179 113.361C55.1739 111.777 55.1739 109.426 55.1739 109.426C55.1739 109.426 64.7252 109.234 67.941 111.969C71.1567 114.705 73.3646 104.674 70.2928 101.17C70.2928 101.17 68.9969 102.658 69.2369 103.234L69.5248 103.81C69.5248 103.81 67.941 97.4264 63.3333 96.2265C63.3333 96.2265 60.7895 97.5704 61.5094 98.2904C62.2294 99.0103 56.0378 93.7787 54.1659 96.8985C54.1659 96.8985 49.5583 96.8025 50.1342 98.4823L49.8462 99.5383C49.8462 99.5383 45.9105 98.3384 45.6225 101.218C45.6225 101.218 47.0144 101.218 47.7824 101.986C48.5503 102.754 45.0466 104.914 45.0466 104.914C45.0466 104.914 41.0149 116.001 46.4385 120.513C46.4385 120.513 46.4865 115.137 48.6463 116.433C50.8062 117.729 51.1901 118.065 51.1901 118.065Z" fill="#2F2E41"/>
<path d="M62.5168 125.072L62.1328 126.224L65.3006 126.32L65.5406 125.264L62.5168 125.072Z" fill="#2F2E41"/>
<path d="M65.7324 121.04C65.7324 121.04 60.9327 119.745 58.0529 123.68L57.429 124.448C57.429 124.448 51.3334 117.585 51.8613 115.089L50.5654 115.185L49.2695 121.76C49.2695 121.76 53.3492 128.816 59.0128 129.056C59.0128 129.056 64.4845 130.352 65.6364 128.096C66.7883 125.84 68.8521 122.528 68.8521 122.528L65.7324 121.04ZM64.8684 127.328H61.7007C60.9327 127.328 59.0128 124.592 59.0128 124.592C60.0688 122.912 63.2845 122.816 63.2845 122.816H66.7883L67.0283 123.872L64.8684 127.328Z" fill="#2F2E41"/>
<path d="M298.04 304.964L292.809 303.86L294.68 283.125L302.408 284.805L298.04 304.964Z" fill="#0B1A27"/>
<path d="M280.138 300.98C279.898 301.22 279.658 302.084 279.562 302.42C279.37 303.38 279.994 304.388 280.954 304.58L297.177 308.084C297.849 308.228 298.521 307.796 298.665 307.124L298.809 306.452C298.809 306.452 300.057 304.58 298.953 301.748C298.953 301.748 296.457 303.284 294.057 299.54L293.529 297.717L285.946 301.076L282.202 300.74C281.386 300.644 280.714 300.404 280.138 300.98Z" fill="#0B1A27"/>
<path d="M288.68 303.38L284.312 300.308L294.2 281.973L300.631 286.581L288.68 303.38Z" fill="#0B1A27"/>
<path d="M273.803 292.676C273.515 292.82 272.891 293.492 272.699 293.78C272.123 294.596 272.315 295.748 273.131 296.324L286.666 305.923C287.242 306.307 288.01 306.211 288.394 305.635L288.778 305.06C288.778 305.06 290.65 303.86 290.746 300.788C290.746 300.788 287.866 301.22 287.146 296.852L287.338 294.932L279.035 295.028L275.723 293.252C275.051 292.868 274.523 292.34 273.803 292.676Z" fill="#0B1A27"/>
<path d="M351.306 200.558C351.306 200.558 359.567 211.609 343.045 224L309.371 213.427L321.373 188.741L332.015 183L351.306 200.558Z" fill="#747373"/>
<path d="M310.777 214.076L297.679 239.156L289.371 291.329L299.732 292L310.093 242.512L328.371 215.754L315.615 210" fill="#747373"/>
<path d="M343.371 216.453V224.319L320.25 249.643C320.25 249.643 320.25 268.635 311.406 277.412L301.216 293L292.371 288.252L305.301 242.832L328.422 213L343.371 216.453Z" fill="#747373"/>
<path d="M327.371 138.486L330.699 154L343.371 150.942C343.371 150.942 337.126 138.081 338.357 133L327.371 138.486Z" fill="#A0616A"/>
<path opacity="0.1" d="M327.371 138.486L330.699 154L343.371 150.942C343.371 150.942 337.126 138.081 338.357 133L327.371 138.486Z" fill="black"/>
<path d="M339.259 141L328.926 145.795C328.926 145.795 323.613 149.04 323.516 151.171C323.418 153.303 324.101 163.571 324.101 163.571C324.101 163.571 319.958 167.688 322.736 175.873L321.371 189.58L352.371 206L349.593 177.23L350.958 150.542L339.259 141Z" fill="#FCB51F"/>
<path d="M348.814 218.138C347.614 220.874 345.263 222.458 343.487 221.738C341.759 220.97 341.327 218.138 342.479 215.402C342.959 214.298 343.679 213.338 344.591 212.57L349.774 201.051L355.15 203.595L349.438 214.682C349.534 215.834 349.294 217.034 348.814 218.138Z" fill="#FCB51F"/>
<path d="M343.441 152.143C343.441 152.143 350.881 147.391 353.617 152.815C356.352 158.238 362.448 186.076 362.448 186.076L353.617 212.474L345.457 209.067L352.561 180.605L343.441 152.143Z" fill="#FCB51F"/>
<path d="M305.187 213.866C303.075 215.978 300.291 216.602 298.947 215.258C297.603 213.914 298.227 211.131 300.339 209.019C301.155 208.155 302.211 207.531 303.315 207.147L312.386 198.364L316.418 202.731L307.058 210.939C306.674 211.995 306.051 213.002 305.187 213.866Z" fill="#FCB51F"/>
<path d="M324.483 150.511C324.483 150.511 337.49 149.983 338.018 156.031C338.546 162.078 329.666 189.052 329.666 189.052L311.668 210.363L305.332 204.219L322.419 180.365L324.483 150.511Z" fill="#FCB51F"/>
<path d="M362.022 222.122L278.844 208.683C277.452 208.443 276.541 207.147 276.732 205.803C276.924 204.459 278.268 203.499 279.612 203.691L362.79 217.13C364.182 217.37 365.094 218.666 364.902 220.01C364.71 221.354 363.414 222.362 362.022 222.122Z" fill="#53E0DC"/>
<path d="M260.215 202.844C260.763 199.469 258.471 196.289 255.095 195.741C251.72 195.193 248.54 197.485 247.992 200.861C247.444 204.236 249.736 207.416 253.112 207.964C256.487 208.512 259.667 206.22 260.215 202.844Z" fill="#53E0DC"/>
<path d="M251.777 211.898L252.017 210.555C257.057 211.371 261.857 207.915 262.673 202.875C263.489 197.835 260.033 193.036 254.993 192.22L255.233 190.876C261.041 191.788 264.976 197.308 264.064 203.067C263.057 208.875 257.585 212.858 251.777 211.898Z" fill="#53E0DC"/>
<path d="M328.372 141.919C334.018 141.919 338.595 137.342 338.595 131.696C338.595 126.05 334.018 121.473 328.372 121.473C322.726 121.473 318.148 126.05 318.148 131.696C318.148 137.342 322.726 141.919 328.372 141.919Z" fill="#A0616A"/>
<path d="M334.419 131.696C334.419 131.696 328.036 125.889 323.908 127.952C319.78 130.016 317.764 131.36 317.764 131.36C317.764 131.36 314.357 126.225 319.492 121.809C319.492 121.809 309.077 117.249 316.66 110.146C324.244 103.042 331.107 105.778 331.107 105.778C331.107 105.778 340.323 109.858 333.843 118.065C333.843 118.065 343.299 124.065 338.403 133.856C338.403 133.856 337.923 127.616 336.579 129.344C335.235 131.072 334.419 131.696 334.419 131.696Z" fill="#2F2E41"/>
<path d="M123.25 166.997C119.191 157.003 115.181 147.058 111.122 137.063C110.578 135.671 108.796 135.621 108.251 137.063C104.242 147.505 101.668 158.445 100.381 169.583C100.183 171.472 103.103 171.472 103.351 169.583C103.846 165.207 104.588 160.931 105.529 156.654C108.845 156.853 112.211 156.456 115.429 155.56C117.062 159.638 118.745 163.715 120.379 167.842C121.121 169.533 123.992 168.738 123.25 166.997ZM106.222 153.671C107.212 149.594 108.4 145.516 109.786 141.538L114.34 152.726C111.667 153.422 108.944 153.77 106.222 153.671Z" fill="white"/>
<path d="M131.233 166.819C131.487 165.249 130.421 163.77 128.851 163.515C127.281 163.26 125.802 164.326 125.547 165.896C125.292 167.466 126.359 168.945 127.929 169.2C129.499 169.455 130.978 168.389 131.233 166.819Z" fill="white"/>
<path d="M97.8711 144C99.2518 144 100.371 142.433 100.371 140.5C100.371 138.567 99.2518 137 97.8711 137C96.4904 137 95.3711 138.567 95.3711 140.5C95.3711 142.433 96.4904 144 97.8711 144Z" fill="white"/>
</svg>
