<?xml version="1.0" encoding="utf-8"?>
<!-- Generator: Adobe Illustrator 27.0.1, SVG Export Plug-In . SVG Version: 6.00 Build 0)  -->
<svg version="1.1" id="Layer_1" xmlns="http://www.w3.org/2000/svg" xmlns:xlink="http://www.w3.org/1999/xlink" x="0px" y="0px"
	 viewBox="0 0 719.5 455.4" enable-background="new 0 0 719.5 455.4" xml:space="preserve">
<path fill="#3DA6A2" d="M602.5,35.7H0.7c0.8-4.8,2.5-9.4,4.8-13.5C12.9,8.9,27,0,43.2,0h516.7c16.2,0,30.3,8.9,37.7,22.1
	C599.9,26.3,601.6,30.8,602.5,35.7z"/>
<path fill="#3F3D56" d="M719.5,453.7c0,0.7-0.5,1.2-1.2,1.2H471c-0.7,0-1.2-0.5-1.2-1.2c0-0.3,0.1-0.6,0.3-0.8h89.7
	c1.9,0,3.8-0.1,5.6-0.4h152.8C719,452.5,719.5,453,719.5,453.7z"/>
<path fill="#0B1A27" d="M479.6,211.1h-356c-3.3,0-6-2.7-6-6s2.7-6,6-6h356c3.3,0,6,2.7,6,6S482.9,211.1,479.6,211.1z"/>
<path fill="#3DA6A2" d="M602.5,35.7c-0.9-4.8-2.5-9.4-4.8-13.5C590.2,8.9,576.1,0,559.9,0H43.2C27,0,12.9,8.9,5.5,22.1
	c-2.3,4.1-4,8.7-4.8,13.5c-0.4,2.5-0.7,5-0.7,7.6v368.4c0,23.8,19.4,43.2,43.2,43.2h516.7c4.9,0,9.7-0.8,14.1-2.4
	c16.9-5.9,29.1-22,29.1-40.9V43.2C603.1,40.7,602.9,38.1,602.5,35.7z M601.1,411.7c0,20.9-15.5,38.1-35.6,40.9
	c-1.8,0.2-3.7,0.4-5.6,0.4H104.6C48,452.9,2,406.9,2,350.2v-307c0-2.6,0.2-5.1,0.7-7.6c0.9-4.9,2.7-9.4,5.1-13.5
	C15,10.1,28.2,2,43.2,2h516.7c15.1,0,28.2,8.1,35.4,20.1c2.5,4.1,4.2,8.6,5.1,13.5c0.5,2.5,0.7,5,0.7,7.6L601.1,411.7L601.1,411.7z"
	/>
<polygon fill="#F6AB8C" points="575.9,216.1 572.5,203.7 587.8,198 589.5,209.3 "/>
<polygon opacity="0.1" enable-background="new    " points="575.9,216.1 572.5,203.7 581.5,199.9 578.7,214.5 "/>
<path fill="#F6AB8C" d="M531.3,322.4c-4.9-2.6-1-13.4,4-16l1.6-2.6l20.2-36.2c0,0,8.8-34.2,12.4-38.3c3.6-4.1,8.8-3.2,8.8-3.2
	l4.6,4.1l-16.5,48.4c-1.6,2.3-22.3,31.4-23.1,32.6C543.7,316.9,536,325.5,531.3,322.4L531.3,322.4z"/>
<path fill="#FCB51F" d="M575.1,212.5c0,0,6.4-0.2,10.5,4.7c3.5,4.2-11.3,45.3-15.9,57.7c-0.8,2.1-2.8,3.5-5.1,3.4l-6.4-0.2
	c-3.5-0.1-5.9-3.7-4.7-7L575.1,212.5L575.1,212.5z"/>
<circle fill="#F6AB8C" cx="576.8" cy="189.9" r="15.8"/>
<polygon fill="#F6AB8C" points="539.8,419.1 529.1,445.6 522.9,439.4 519.8,428.8 529.2,414.3 "/>
<polygon fill="#F6AB8C" points="638.8,407.9 650.9,421.9 645.9,432.1 634.6,430.4 628.9,414.6 "/>
<polygon fill="#F6AB8C" points="568.9,262.2 567.2,284.6 602.4,278.8 604.7,263.9 "/>
<path fill="#07615E" d="M567.2,284.6l35-11.2c0.6-0.2,1.3,0.1,1.6,0.7c2.1,5,10,26.8-2.4,41.2c-11.7,13.6-45.9,79.8-57.2,102.1
	c-2.1,4.1-7,5.7-11.1,3.7l0,0c-3.8-1.8-5.7-6.3-4.3-10.3l16.9-49.4c0.6-1.8,1.3-3.6,2-5.4l18.1-43.7c2.2-5.4,3.1-11.4,2.5-17.2
	L567.2,284.6L567.2,284.6z"/>
<path fill="#07615E" d="M601.3,305.8l12.5,54.9c0.7,2.9,1.8,5.6,3.3,8.1l21.3,34.6c2.5,4,1.1,9.3-3,11.7l-0.6,0.3
	c-3.7,2.1-8.4,1.1-10.9-2.3l-32.5-44.5c-1.7-2.3-3-4.9-3.9-7.7l-11.7-37.6L601.3,305.8z"/>
<path fill="#C99118" d="M511,426.1c-3,0-6.1-1.3-9-2c-3.5-0.9-10.4-2.7-10.8,2.9c-0.5,7.4,8.7,9.6,13.5,12.8c0.7,0.5,1.4,1,2.1,1.5
	c4,2.9,17.5,12.7,19.9,12.2c2-0.4,2.6-4.4,3.1-6.4c0.3-1.2,3-5.8,3-5.8c0.5-1.2-0.6-2.4-1.8-2c-1.4,0.5-2.9,0.1-4-0.9
	c-1.2-1.1-2.6-2.8-3.1-5c-0.1-0.3-0.1-0.5-0.2-0.8c-1.3-3.7-4.8-6.2-8.7-6.4L511,426.1z"/>
<path fill="#C99118" d="M648.7,419.8c0-0.7,0.8-1.1,1.3-0.6l2.6,2.2c1.3,1.1,2.7,2.2,4.3,3c2.7,1.5,7.2,5.3,0.9,11.7
	c-4.4,4.4-9.3,8.9-13.1,12.2c-5.5,4.9-14.2,8.6-21.7,6.7c-0.6-0.2-1.2-0.4-1.7-0.8c-3.3-3.1,0.9-9.1,3.8-10.5c1.1-0.5,2-1.5,2.4-2.6
	l4-10.5c0.5-1.4,1.9-2.3,3.4-2.1l3.3,0.4c2,0.2,4.1-0.3,5.7-1.5l1.7-1.3C647.6,424.5,648.7,422.2,648.7,419.8z"/>
<path fill="#665644" d="M581.5,192.8c-0.6,0.2-1.3,0.4-2,0.1c-3.3-1.3-5.8-3.5-8.2-6c-1.4-1.5-3.7-3.9-6.1-2.9
	c-2.5,1.1-6.6,2.5-6.6,0.2c0-4.5,0.7-9.3,4.2-12.4c4.6-4.1,11.3-3.9,17.1-3.2c2.4,0.3,4.8,1,6.6,2.6c0.7,0.7,1.3,1.4,2.2,2
	c3.1,2.1,4.7-2.3,7.2-3.2c4-1.4,6.1,2.9,7.1,6.1c3.9,13-1.1,53,2.8,56.4c3.9,3.4-16.2,6.8-14-6.5s6.1-33.6,3.9-38.1
	c-2.3-4.5-2.8-3.4-2.8-3.4c2.6-1,4.4,16.7-4.1,19.5c-0.9,0.3-1.8-0.4-1.8-1.3l-0.2-6.8c0-1.1-0.4-2.2-1.1-3
	C584.2,191.1,583,192.3,581.5,192.8z"/>
<path fill="#FCB51F" d="M584.9,208.2c3.5-1.4,7.5,0.4,8.7,4l18.1,54.1c1.1,3.4-1.5,7.7-5.1,7.6l-31.6-2c-4.4-0.2-8-3.3-8.9-7.5
	l-1.4-6.7c-0.6-3.1-1.4-6.1-2.2-9.1c-1-3.6-2-9.6,0.2-13.7c2.2-3.9,6.3-11.9,9.1-17.1c1.8-3.3,4.6-5.9,8.1-7.3L584.9,208.2z"/>
<path fill="#F6AB8C" d="M618.5,325.8c-3.4,0.3-6.5-3.8-6.9-9.1c-0.2-2.3,0.1-4.5,0.9-6.2l-0.2-3.1l-4.7-41.2c0,0-8.7-33.7-8.2-39.2
	s1.3-6.9,1.3-6.9l6.1,0.6l14.8,48.9l0.2,35.1l0.1,4.8c1,1.6,1.7,3.7,1.9,6C624.3,321,621.9,325.5,618.5,325.8L618.5,325.8z"/>
<path fill="#FCB51F" d="M590,211c0,0,5.1-3.9,11.3-2.3c5.3,1.4,17.6,44.7,20.9,56.7c0.5,1.8-0.2,3.8-1.8,4.8l-6.7,4.5
	c-2.5,1.7-5.9,0.4-6.7-2.5L590,211z"/>
<path fill="#FCB51F" d="M296.2,308.6h-67.7c-4.1,0-7.5-3.4-7.5-7.5v-6.8c0-4.1,3.4-7.5,7.5-7.5h67.7c4.1,0,7.5,3.4,7.5,7.5v6.8
	C303.7,305.3,300.3,308.6,296.2,308.6z"/>
<path fill="#747373" d="M556.2,87.5h-67.7c-4.1,0-7.5-3.4-7.5-7.5v-6.8c0-4.1,3.4-7.5,7.5-7.5h67.7c4.1,0,7.5,3.4,7.5,7.5V80
	C563.7,84.2,560.3,87.5,556.2,87.5z"/>
<path fill="#0B938E" d="M396.6,309.1h-67.7c-4.4,0-8-3.6-8-8v-6.8c0-4.4,3.6-8,8-8h67.7c4.4,0,8,3.6,8,8v6.8
	C404.6,305.6,401,309.1,396.6,309.1z M328.9,288.4c-3.3,0-6,2.7-6,6v6.8c0,3.3,2.7,6,6,6h67.7c3.3,0,6-2.7,6-6v-6.8c0-3.3-2.7-6-6-6
	H328.9z"/>
<path fill="#0B1A27" d="M479.6,180.1h-356c-3.3,0-6-2.7-6-6s2.7-6,6-6h356c3.3,0,6,2.7,6,6S482.9,180.1,479.6,180.1z"/>
<path fill="#747373" d="M369.9,82.6h-45c-3.3,0-6-2.7-6-6s2.7-6,6-6h45c3.3,0,6,2.7,6,6S373.2,82.6,369.9,82.6z"/>
<path fill="#747373" d="M454.9,82.6h-45c-3.3,0-6-2.7-6-6s2.7-6,6-6h45c3.3,0,6,2.7,6,6S458.2,82.6,454.9,82.6z"/>
<path fill="#0B1A27" d="M400.6,242.1h-198c-3.3,0-6-2.7-6-6s2.7-6,6-6h198c3.3,0,6,2.7,6,6S403.9,242.1,400.6,242.1z"/>
<g>
	<path fill="#0B1A27" d="M409.2,373.4H193.9c-2,0-3.6-1.6-3.6-3.6s1.6-3.6,3.6-3.6h215.3c2,0,3.6,1.6,3.6,3.6
		S411.2,373.4,409.2,373.4L409.2,373.4z"/>
	<path fill="#0B1A27" d="M361.4,392.1H241.7c-2,0-3.6-1.6-3.6-3.6s1.6-3.6,3.6-3.6h119.7c2,0,3.6,1.6,3.6,3.6
		S363.4,392.1,361.4,392.1z"/>
</g>
<path fill="#FFFFFF" d="M411.2,21.4H195.9c-2,0-3.6-1.6-3.6-3.6s1.6-3.6,3.6-3.6h215.3c2,0,3.6,1.6,3.6,3.6S413.2,21.4,411.2,21.4
	L411.2,21.4z"/>
<path fill="#F8F8F8" d="M43.7,12.2l-5,4.7c-0.1,0.1,0,0.3,0.1,0.3H57c0.6,0,1,0.4,1,1s-0.4,1-1,1H38.9c-0.2,0-0.3,0.2-0.1,0.3l5,4.7
	c0.4,0.4,0.4,1,0,1.5l0,0c-0.4,0.4-1,0.4-1.5,0.1L35.2,19c-0.5-0.5-0.5-1.2,0-1.7l7.1-6.7c0.4-0.4,1.1-0.4,1.5,0.1l0,0
	C44.2,11.2,44.1,11.8,43.7,12.2z"/>
<path fill="#53E0DC" d="M34.5,107.7c-0.7,0-1.5-0.1-2.2-0.2c-0.3-0.1-0.5-0.1-0.7-0.2c-3-0.8-5.5-3-6.9-5.9c-1.4-3.1-1.4-6.6,0-9.7
	L40,59.6l4,1.9l-15.3,32c-0.9,1.9-0.9,4.1,0,5.9c0.8,1.7,2.3,3,4.1,3.5c0.2,0,0.3,0.1,0.4,0.1c3,0.6,6.2-1,7.5-4l7.8-17l4.1,1.9
	l-7.8,17C42.9,105.1,38.8,107.7,34.5,107.7L34.5,107.7z"/>
<path fill="#FAB41A" d="M27.8,67l-2.7-1.4c-4.6-2.1-7.1-7.2-5.9-12c0.1-0.2,0.1-0.4,0.2-0.6v-0.2c0.9-2.9,3-5.2,5.7-6.5
	c2.8-1.3,6.1-1.3,8.9,0L59.3,58l-1.9,4.1L32.1,50.5c-1.7-0.8-3.6-0.8-5.2,0c-1.6,0.7-2.8,2-3.3,3.7v0.1c0,0.2-0.1,0.3-0.1,0.5
	c-0.7,2.7,0.8,5.6,3.5,6.9h0.1l2.7,1.4L27.8,67L27.8,67z"/>
<path fill="#FAB419" d="M76.1,88c-1.5,0-3-0.3-4.4-0.9L46.2,75.6l1.8-4.1L73.5,83c2.3,1,5,0.6,6.8-1.1l0,0c0.1-0.1,0.2-0.2,0.3-0.3
	l0,0c1.3-1.3,1.8-3.1,1.4-4.9c-0.4-1.9-1.7-3.5-3.5-4.3l-4.1-1.9l1.8-4.1l4.1,1.9c3.1,1.4,5.4,4.2,6,7.5c0.6,3.2-0.3,6.5-2.5,8.9
	c-0.2,0.2-0.3,0.4-0.5,0.5C81.4,87,78.8,88,76.1,88L76.1,88z"/>
<circle fill="#53E0DC" cx="66.8" cy="64.2" r="4.3"/>
</svg>
