<svg width="417" height="298" viewBox="0 0 417 298" fill="none" xmlns="http://www.w3.org/2000/svg">
<path d="M274.5 32C282.508 32 289 25.2843 289 17C289 8.71573 282.508 2 274.5 2C266.492 2 260 8.71573 260 17C260 25.2843 266.492 32 274.5 32Z" fill="#0B938E"/>
<path d="M331 284.897L325.857 285L323 263.154L330.619 263L331 284.897Z" fill="#FFB6B6"/>
<path d="M314 294.542C314.053 295.953 315.22 297.05 316.598 296.998L328 296.789L329.856 292.765L330.705 296.737L335 296.632L333.515 282.366L332.03 282.314L325.932 282.052L323.97 282L324.076 286.024L315.061 292.452C314.424 292.922 314 293.706 314 294.542Z" fill="#314A5B"/>
<path d="M369 284.897L363.84 285L361 263.154L368.574 263L369 284.897Z" fill="#FFB6B6"/>
<path d="M352.004 294.542C352.057 295.953 353.224 297.05 354.602 296.998L366.001 296.789L367.857 292.765L368.705 296.737L373 296.632L371.515 282.366L370.031 282.314L363.934 282.052L361.972 282L362.078 286.024L353.065 292.452C352.376 292.922 351.951 293.706 352.004 294.542Z" fill="#314A5B"/>
<path d="M337.907 113.888L368.368 113L366.678 115.613L370.518 119.479C370.518 119.479 384.443 138.916 380.194 156.629C375.944 174.342 378.351 279 378.351 279L353.573 276.231L356.337 170.685L336.013 210.395L341.901 274.768L320.758 274.715L314 205.222L337.907 113.888Z" fill="#314A5B"/>
<path d="M196.21 44.7706C196.311 45.0765 196.713 45.0765 196.813 44.7706C197.617 42.8331 198.723 40.5898 199.929 38.9073C200.13 38.6524 199.878 38.2955 199.527 38.3975L196.914 39.3662V23H196.06V39.3662L193.447 38.3975C193.146 38.2955 192.894 38.6524 193.045 38.9073C194.301 40.5898 195.407 42.7822 196.21 44.7706Z" fill="#314A5B"/>
<path d="M225.021 47.5357C224.913 47.8488 225.237 48.1098 225.56 47.9532C227.5 46.9094 229.87 45.8656 232.026 45.2915C232.349 45.1872 232.403 44.7174 232.026 44.6131L229.224 43.6737L240 30.5741L239.246 30L228.47 43.0996L226.907 40.6467C226.745 40.3335 226.26 40.4901 226.26 40.8032C226.153 42.9952 225.614 45.4481 225.021 47.5357Z" fill="#314A5B"/>
<path d="M291.147 78.0076L307.586 76L310 85.7668L292.534 87.2318C292.174 87.6117 291.712 87.9915 291.25 88.2628C288.578 89.8363 285.188 88.8054 283.698 85.9839C282.208 83.1623 283.184 79.5812 285.856 78.0076C287.551 77.0852 289.554 77.1395 291.147 78.0076Z" fill="#FFB6B6"/>
<path d="M371.746 56.7863L365.185 47C363.978 47.9271 362.928 48.8542 362.14 49.6783L360.776 50.6055L356.367 54.4685L343.875 65.3879L339.728 69.0448L335.109 69.8174L324.874 71.5687L309.39 75.6377L298 76.3588C298 76.5648 298 76.9253 298 77.3374C298 79.5522 298.052 83.9817 298.472 86.4026C298.63 87.2267 298.84 87.8447 299.102 87.9993C299.207 88.0508 307.92 85.3724 308.34 85.3724C311.909 85.3724 317.84 86.2995 329.808 84.8059C336.946 83.8787 343.192 83.0546 345.817 82.6941H345.869L347.759 81.767L368.701 71.8262L375 68.8388C374.475 64.7698 373.373 60.7008 371.746 56.7863Z" fill="#FCB51F"/>
<path d="M11.8527 0C5.32589 0 0 5.31302 0 11.8241V212H1.04429V82.1435C1.04429 37.3474 37.4379 1.04177 82.3424 1.04177L290 0.833415L289.791 0H11.8527Z" fill="#314A5B"/>
<path d="M63.5 47C65.9853 47 68 45.2091 68 43C68 40.7909 65.9853 39 63.5 39C61.0147 39 59 40.7909 59 43C59 45.2091 61.0147 47 63.5 47Z" fill="#314A5B"/>
<path d="M78 47C80.2091 47 82 45.2091 82 43C82 40.7909 80.2091 39 78 39C75.7909 39 74 40.7909 74 43C74 45.2091 75.7909 47 78 47Z" fill="#314A5B"/>
<path d="M92 47C94.2091 47 96 45.2091 96 43C96 40.7909 94.2091 39 92 39C89.7909 39 88 40.7909 88 43C88 45.2091 89.7909 47 92 47Z" fill="#314A5B"/>
<path d="M174.86 82C168.329 82 163 87.3455 163 93.8963V180H164.045V164.645C164.045 119.575 200.462 83.0481 245.396 83.0481L321 82.8385L320.791 82H174.86Z" fill="#908D8D"/>
<path d="M218.5 135C217.675 135 217 135.463 217 136.029V151.971C217 152.537 217.675 153 218.5 153C219.325 153 220 152.537 220 151.971V136.029C220 135.463 219.325 135 218.5 135Z" fill="#314A5B"/>
<path d="M228.5 151C232.09 151 235 148.314 235 145C235 141.686 232.09 139 228.5 139C224.91 139 222 141.686 222 145C222 148.314 224.91 151 228.5 151Z" fill="#0B938E"/>
<path d="M280.83 143H246.17C244.981 143 244 142.095 244 141C244 139.905 244.981 139 246.17 139H280.83C282.019 139 283 139.905 283 141C283 142.095 282.019 143 280.83 143Z" fill="#908D8D"/>
<path d="M307.831 150H246.169C244.981 150 244 149.095 244 148C244 146.905 244.981 146 246.169 146H307.831C309.019 146 310 146.905 310 148C310 149.095 309.019 150 307.831 150Z" fill="#908D8D"/>
<path d="M221.5 108C223.985 108 226 105.761 226 103C226 100.239 223.985 98 221.5 98C219.015 98 217 100.239 217 103C217 105.761 219.015 108 221.5 108Z" fill="#908D8D"/>
<path d="M237 108C239.761 108 242 105.761 242 103C242 100.239 239.761 98 237 98C234.239 98 232 100.239 232 103C232 105.761 234.239 108 237 108Z" fill="#908D8D"/>
<path d="M252.5 108C254.985 108 257 105.761 257 103C257 100.239 254.985 98 252.5 98C250.015 98 248 100.239 248 103C248 105.761 250.015 108 252.5 108Z" fill="#908D8D"/>
<path d="M47.5 74C46.675 74 46 74.4629 46 75.0286V90.9714C46 91.5371 46.675 92 47.5 92C48.325 92 49 91.5371 49 90.9714V75.0286C49 74.4629 48.325 74 47.5 74Z" fill="#314A5B"/>
<path d="M57.5 90C61.0899 90 64 86.866 64 83C64 79.134 61.0899 76 57.5 76C53.9101 76 51 79.134 51 83C51 86.866 53.9101 90 57.5 90Z" fill="#0B938E"/>
<path d="M109.83 81H75.1695C73.9815 81 73 79.869 73 78.5C73 77.131 73.9815 76 75.1695 76H109.83C111.019 76 112 77.131 112 78.5C112 79.869 111.019 81 109.83 81Z" fill="#908D8D"/>
<path d="M136.831 88H75.169C73.9812 88 73 87.0952 73 86C73 84.9048 73.9812 84 75.169 84H136.831C138.019 84 139 84.9048 139 86C139 87.0952 138.019 88 136.831 88Z" fill="#908D8D"/>
<path d="M47.5 119C46.675 119 46 119.489 46 120.086V136.914C46 137.511 46.675 138 47.5 138C48.325 138 49 137.511 49 136.914V120.086C49 119.489 48.325 119 47.5 119Z" fill="#314A5B"/>
<path d="M57.5 134C61.0899 134 64 131.314 64 128C64 124.686 61.0899 122 57.5 122C53.9101 122 51 124.686 51 128C51 131.314 53.9101 134 57.5 134Z" fill="#0B938E"/>
<path d="M109.83 126H75.1695C73.9815 126 73 125.095 73 124C73 122.905 73.9815 122 75.1695 122H109.83C111.019 122 112 122.905 112 124C112 125.095 111.019 126 109.83 126Z" fill="#908D8D"/>
<path d="M136.831 133H75.169C73.9812 133 73 132.095 73 131C73 129.905 73.9812 129 75.169 129H136.831C138.019 129 139 129.905 139 131C139 132.095 138.019 133 136.831 133Z" fill="#908D8D"/>
<path d="M47.5 164C46.675 164 46 164.463 46 165.029V180.971C46 181.537 46.675 182 47.5 182C48.325 182 49 181.537 49 180.971V165.029C49 164.463 48.325 164 47.5 164Z" fill="#314A5B"/>
<path d="M57.5 180C61.0899 180 64 177.09 64 173.5C64 169.91 61.0899 167 57.5 167C53.9101 167 51 169.91 51 173.5C51 177.09 53.9101 180 57.5 180Z" fill="#0B938E"/>
<path d="M109.83 171H75.1695C73.9815 171 73 170.095 73 169C73 167.905 73.9815 167 75.1695 167H109.83C111.019 167 112 167.905 112 169C112 170.095 111.019 171 109.83 171Z" fill="#908D8D"/>
<path d="M136.831 179H75.169C73.9812 179 73 177.643 73 176C73 174.357 73.9812 173 75.169 173H136.831C138.019 173 139 174.357 139 176C139 177.643 138.019 179 136.831 179Z" fill="#908D8D"/>
<path d="M376.971 130.804C376.344 135.713 342.791 124.067 338.819 121.925C331.345 117.904 339.185 122.03 339.185 122.03L338.296 97.3797L337.408 82.7045C337.408 82.7045 336.885 78.7876 335.84 73.8263C335.579 72.7295 335.317 71.4239 335.161 70.0661C334.69 66.097 335.056 61.5012 338.976 58.681L352.564 38.4178L359.254 38L365.108 46.8782L371.641 56.8009C373.261 60.77 374.358 64.8958 374.881 69.126C375.142 71.1106 375.247 73.0951 375.247 75.0796C375.247 78.5787 374.881 82.0778 374.097 85.5769L369.968 97.0663C369.968 97.0663 369.446 98.9986 371.275 100.095C374.933 102.289 367.512 108.399 372.059 115.92C372.059 115.92 371.641 119.366 373.627 119.68C375.665 119.941 377.233 128.767 376.971 130.804Z" fill="#FCB51F"/>
<path d="M311.722 142.274L321.532 129L330 133.493L319.105 147.176C319.157 147.686 319.105 148.248 318.95 148.809C318.228 151.771 315.233 153.557 312.238 152.843C309.243 152.128 307.436 149.167 308.159 146.206C308.624 144.317 310.018 142.887 311.722 142.274Z" fill="#FFB6B6"/>
<path d="M353.935 56.3707C351.675 54.7393 348.995 53.5815 346.053 53.0553C342.06 52.3711 339.8 58.16 338.907 63.791C338.487 66.4223 338.382 69.001 338.539 70.8955L338.329 72.527L338.172 81.0524L337.856 100.787L327.821 115.68L323.617 125.679L315 136.678C315.158 136.836 315.42 137.099 315.736 137.362C317.364 138.889 320.727 141.941 322.881 143.309C323.617 143.783 324.195 144.046 324.51 143.993C324.615 143.993 330.658 138.152 330.973 137.836C332.97 135.626 333.39 132.731 339.433 124.206C344.95 116.417 350.362 108.734 352.306 105.945L352.358 105.892L361.08 77.0002L361.869 74.3689C362.709 67.1065 359.452 60.3703 353.935 56.3707Z" fill="#FCB51F"/>
<path d="M334.5 48C342.508 48 349 41.732 349 34C349 26.268 342.508 20 334.5 20C326.492 20 320 26.268 320 34C320 41.732 326.492 48 334.5 48Z" fill="#FFB6B6"/>
<path d="M314.229 30.2886C313.233 23.2862 316.121 21.1507 320.553 20.5051C329.367 15.9362 331.408 17.0785 334.197 17.5751L335.243 17.3764C338.38 16.6812 339.525 16.9791 342.363 18.022C348.289 20.2568 352.173 25.8686 352.621 32.1757C352.92 36.4963 351.576 37.1916 354.065 40.7176C356.157 43.6477 354.563 47.7696 351.028 48.5642L347.741 53.5304C346.945 52.5372 346.297 51.4446 345.55 50.1534C345.252 51.3453 345.252 52.6862 345.401 54.0767C342.114 55.7155 338.529 56.3611 334.745 56.3611C334.147 55.5666 333.599 54.623 333.649 53.6297C333.45 54.6726 333.201 55.6659 333.151 56.7088C330.761 55.1693 328.769 55.6162 327.226 58C323.242 54.7223 322.943 47.1737 327.674 45.2865C331.657 43.6973 325.383 32.4737 321.051 32.275C321.001 32.275 319.856 36.5956 319.856 36.4963C319.258 35.3044 319.507 34.6092 318.81 33.2683C318.561 34.2615 318.512 35.4038 318.561 36.546C317.516 36.2977 316.52 35.9997 315.424 35.5527C314.13 33.8642 313.681 32.1261 314.229 30.2886Z" fill="#0B1A27"/>
<path d="M283 297.5C283 297.792 283.262 298 283.629 298H416.371C416.738 298 417 297.792 417 297.5C417 297.208 416.738 297 416.371 297H283.629C283.262 297 283 297.208 283 297.5Z" fill="#CCCCCC"/>
<path d="M216.609 58.8951H198.977C197.878 58.8951 196.988 58.0056 196.988 56.9069C194.634 50.1051 194.686 43.408 196.988 36.8678C196.988 35.7691 197.878 34.8796 198.977 34.8796H216.609C217.708 34.8796 218.597 35.7691 218.597 36.8678V56.9069C218.597 58.0056 217.708 58.8951 216.609 58.8951Z" fill="#908D8D"/>
<path d="M202.742 35.4551C199.865 35.4551 197.562 37.7572 197.562 40.6349V56.4882C197.562 57.4823 198.4 58.3194 199.394 58.3194H209.125C213.991 58.3194 217.968 54.343 217.968 49.4772V37.2863C217.968 36.2922 217.131 35.4551 216.137 35.4551C216.189 35.4551 202.742 35.4551 202.742 35.4551Z" fill="white"/>
<path d="M211.899 41.315H203.632C203.423 41.315 203.266 41.1581 203.266 40.9488C203.266 40.7395 203.423 40.5825 203.632 40.5825H211.899C212.108 40.5825 212.265 40.7395 212.265 40.9488C212.265 41.1581 212.108 41.315 211.899 41.315Z" fill="#908D8D"/>
<path d="M211.899 49.3724H203.632C203.423 49.3724 203.266 49.2154 203.266 49.0061C203.266 48.7969 203.423 48.6399 203.632 48.6399H211.899C212.108 48.6399 212.265 48.7969 212.265 49.0061C212.265 49.2154 212.108 49.3724 211.899 49.3724Z" fill="#908D8D"/>
<path d="M216.346 45.3438H199.237C199.028 45.3438 198.871 45.1869 198.871 44.9776C198.871 44.7683 199.028 44.6113 199.237 44.6113H216.346C216.556 44.6113 216.713 44.7683 216.713 44.9776C216.713 45.1869 216.556 45.3438 216.346 45.3438Z" fill="#908D8D"/>
<path d="M216.554 52.6165H209.386C209.177 52.6165 209.02 52.4596 209.02 52.2503C209.02 52.041 209.177 51.884 209.386 51.884H216.554C216.763 51.884 216.92 52.041 216.92 52.2503C216.92 52.4596 216.763 52.6165 216.554 52.6165Z" fill="#908D8D"/>
</svg>
