<?xml version="1.0" encoding="utf-8"?>
<!-- Generator: Adobe Illustrator 26.5.0, SVG Export Plug-In . SVG Version: 6.00 Build 0)  -->
<svg version="1.1" id="Layer_1" xmlns="http://www.w3.org/2000/svg" xmlns:xlink="http://www.w3.org/1999/xlink" x="0px" y="0px"
	 viewBox="0 0 511.6 532.4" enable-background="new 0 0 511.6 532.4" xml:space="preserve">
<path fill="#314A5B" d="M454.5,405.2v0.2l12,127h-87.6l-9.8-67.3c-0.2-1.4-2.2-1.3-2.3,0.1l-4.3,67.7h-90.1l9.7-103.2l8.1-46.3l0,0
	l1.2-7h160.7l0.2,2.6L454.5,405.2z"/>
<path fill="#FFC1B7" d="M222.9,478.8c9.3,1.7,21.5-9,24.1-23.5c1.2-6.4-1.7-12.3-3.3-17.3l1.4-8.4L269,316.5c0,0,44-88,44-103.2
	c0-15.3-12.7-22.8-12.7-22.8l-17.2,0.2l-54,131.8l-9.7,97.4l-1.6,13.4c-3.2,4.1-9.3,9.8-10.5,16.2
	C204.6,464,213.6,477.1,222.9,478.8L222.9,478.8z"/>
<polygon fill="#FFB6B6" points="398,135.9 382,98.9 330,107.9 326.5,151.5 "/>
<polygon opacity="0.1" enable-background="new    " points="398,135.9 382,98.9 330,107.9 326.5,151.5 "/>
<path fill="#3DA6A2" d="M510.1,239.7c2.9-13.6,0.4-27.7-6.2-39.9c-11.1-20.4-31.9-57.8-36.9-62.9c-1.8-1.8-4.1-2.6-6.7-2.7
	c-5.4-0.4-10.8-1.3-15.9-3l-37-12.7c-3-1-5.8-2.3-8.5-3.8l-10.5-5.9c-1.4-0.8-3.1,0.2-3.2,1.7v0c-0.6,9-7.2,16.5-16.1,18.1
	l-28.8,5.2c-6.3,1.1-12-3.9-11.6-10.4l0-0.1c0.1-1.3,0.1-2.1-1.8-0.7L307.9,145l-41,20v0.2c-3,1.1-5.9,2.8-8,5.8
	c-8,11-30,145-30,145l47,10l6.4-40.1l4.6,36.1l3.5,67.5c0,0,64,55,95,35c22.1-14.3,50.5-15.7,65-15.4c5.1,0.1,9.3-4.1,9.2-9.2
	l-3.8-30.7c-3.4-27.4-4.1-55.2-2.2-82.7l1.8-24.9v-21.9c0-2.4,3-3.5,4.6-1.7c6.6,8,14.3,14.6,22.9,18
	C500.5,263,507.5,252.2,510.1,239.7z"/>
<circle fill="#FFC1B7" cx="350.6" cy="66.6" r="47.8"/>
<path fill="#653F21" d="M384.9,81.1c0,0,4.2-14.6,13.5-13.5c9.4,1,11.4-7.3,9.4-11.4c-2-4.1-6.2-25-6.2-25c-0.7-3.4,0-7.1-1.5-10.3
	c-2.9-5.9-9.8-6.5-15.6-7.7c-3.3-0.7-6.9-1.7-9.5-4c-2.5-2.1-3.2-4.5-6.3-5.9c-5.4-2.3-11.8-1.8-17.5-2.2
	c-9.2-0.6-17.8,0.1-25.7,5.3c-8,5.3-13.4,13.5-21.4,18.8c-7.9,5.1-14.9,9.8-10.6,20.6c3.6,9,6.2,18.3,9.2,27.5
	c0.2,0.6,0.5,3,1.1,3.2c1.6,0.7,6.2-3.6,7.4-4.6c9.5-8.1,13.7-20.2,18.9-31.1c1.7-3.6,4.3-7.1,8.1-8.3c3.5-1.1,7.3-0.2,10.7,1.1
	c7.3,2.7,14.9,3.5,22.4,5.7c5.3,1.5,10.6,4.2,9.5,10.6C378.6,62.4,384.9,81.1,384.9,81.1z"/>
<path fill="#FFFFFF" d="M381.9,459.4H18.6C8.4,459.4,0,451,0,440.8v-193c0-10.3,8.4-18.6,18.6-18.6h363.3c10.3,0,18.6,8.4,18.6,18.6
	v193C400.6,451,392.2,459.4,381.9,459.4L381.9,459.4z"/>
<path fill="#7D5A0F" d="M381.9,459.4H18.6C8.4,459.4,0,451,0,440.8v-193c0-10.3,8.4-18.6,18.6-18.6h363.3c10.3,0,18.6,8.4,18.6,18.6
	v193C400.6,451,392.2,459.4,381.9,459.4L381.9,459.4z M18.6,232.2c-8.6,0-15.5,7-15.5,15.5v193c0,8.6,7,15.5,15.5,15.5h363.3
	c8.6,0,15.5-7,15.5-15.5v-193c0-8.6-7-15.5-15.5-15.5L18.6,232.2L18.6,232.2z"/>
<circle fill="#3F3D56" cx="353.9" cy="247.8" r="4.7"/>
<circle fill="#3F3D56" cx="366.4" cy="247.8" r="4.7"/>
<circle fill="#3F3D56" cx="378.8" cy="247.8" r="4.7"/>
<path fill="#E6E6E6" d="M26.4,323.3c-1.3,0-2.3,1-2.3,2.3c0,0.6,0.2,1.2,0.7,1.6c0.4,0.5,1,0.7,1.7,0.7h349.2c1.3,0,2.3-1,2.3-2.3
	c0-0.6-0.2-1.2-0.7-1.6c-0.4-0.5-1-0.7-1.7-0.7H26.4z"/>
<path fill="#FCB51F" d="M332.1,322.5v6.2H26.4c-0.9,0-1.6-0.3-2.2-0.9s-0.9-1.3-0.9-2.2c0-1.7,1.4-3.1,3.1-3.1H332.1z"/>
<path fill="#E6E6E6" d="M371.8,310.8h-31.1c-3.4,0-6.2-2.8-6.2-6.2s2.8-6.2,6.2-6.2h31.1c3.4,0,6.2,2.8,6.2,6.2
	S375.2,310.8,371.8,310.8z"/>
<path fill="#E6E6E6" d="M168,278.1H28.8c-3.4,0-6.2-2.8-6.2-6.2s2.8-6.2,6.2-6.2H168c3.4,0,6.2,2.8,6.2,6.2S171.4,278.1,168,278.1z"
	/>
<path fill="#E6E6E6" d="M26.4,393.3c-1.3,0-2.3,1-2.3,2.3c0,0.6,0.2,1.2,0.7,1.6c0.4,0.5,1,0.7,1.7,0.7h349.2c1.3,0,2.3-1,2.3-2.3
	c0-0.6-0.2-1.2-0.7-1.6c-0.4-0.5-1-0.7-1.7-0.7H26.4z"/>
<path fill="#FCB51F" d="M212.3,392.5v6.2H26.4c-0.9,0-1.6-0.3-2.2-0.9s-0.9-1.3-0.9-2.2c0-1.7,1.4-3.1,3.1-3.1H212.3z"/>
<path fill="#E6E6E6" d="M371.8,380.8h-31.1c-3.4,0-6.2-2.8-6.2-6.2s2.8-6.2,6.2-6.2h31.1c3.4,0,6.2,2.8,6.2,6.2
	S375.2,380.8,371.8,380.8z"/>
<ellipse fill="#FCB51F" cx="426.3" cy="70.4" rx="48.7" ry="47.7"/>
<path fill="#FFFFFF" d="M442.8,46.4c-6.3,11.5-12.6,22.9-18.9,34.4c-0.2,0.5-0.9,0.4-1.2,0c-3.4-5.9-2.1-2.3-6.1-9.3
	c-1.4-2.5-5.3-0.3-3.9,2.3c4.8,8.5,3.9,5.4,8.7,13.8c0.8,1.4,3.1,1.5,3.9,0c7.1-13,14.3-26,21.4-38.9
	C448.1,46.1,444.2,43.8,442.8,46.4z"/>
<path fill="#FFC1B7" d="M493.5,196.2l-42.3-20.3c-3.6-1.7-6.3-4.9-7.4-8.8c-1.2-4-3.3-9.3-6.9-13c-2.1-2.1-3.8-4.5-5-7.1
	c-1-2.2-1.9-4.3-2.9-6.2c-4-7.9-2.2-20.2-7.2-20.2s-7.1,13.2-6.7,17.4c0.2,2.6,1,6.8,1.9,11c0.3,1.6-0.5,3.1-1.9,3.8
	c-5,2.3-9.1,5.6-11.8,8.4c-2.8,2.7-3.8,6.8-2.7,10.5c3.2,10.8,11.1,33.2,22.5,33.2c5.5,0,9.5-0.4,12.4-0.9c4.4-0.8,8.9,0.7,11.8,4.1
	c9.8,11.1,31.5,33.6,48.8,35.8C519.1,246.9,493.5,196.2,493.5,196.2L493.5,196.2z"/>
</svg>
